<svg width="250" height="250" viewBox="0 0 250 250" fill="none" xmlns="http://www.w3.org/2000/svg">
<path d="M188.04 72.035C175.04 60.49 155.676 55.635 138.601 57.215C130.011 58.01 123.101 61.57 115.271 64.745C104.271 69.195 97.0005 67.245 85.7705 66.045C53.1655 62.5 38.1155 94 37.5505 117.5C36.8605 146.09 56.8755 172.18 85.0505 179.445C104.016 184.335 122.286 184.54 138.891 178.385C151.851 173.575 155.086 163.015 159.201 150.855C162.351 141.565 165.155 131.08 172.12 123.78C178.485 117.1 185.04 122.725 192.37 118.665C211 108.335 199 81.765 188.04 72.035Z" fill="#0669B7"/>
<path opacity="0.9" d="M188.04 72.035C175.04 60.49 155.676 55.635 138.601 57.215C130.011 58.01 123.101 61.57 115.271 64.745C104.271 69.195 97.0005 67.245 85.7705 66.045C53.1655 62.5 38.1155 94 37.5505 117.5C36.8605 146.09 56.8755 172.18 85.0505 179.445C104.016 184.335 122.286 184.54 138.891 178.385C151.851 173.575 155.086 163.015 159.201 150.855C162.351 141.565 165.155 131.08 172.12 123.78C178.485 117.1 185.04 122.725 192.37 118.665C211 108.335 199 81.765 188.04 72.035Z" fill="white"/>
<path d="M125 213.78C178.541 213.78 221.945 211.246 221.945 208.12C221.945 204.994 178.541 202.46 125 202.46C71.4584 202.46 28.0547 204.994 28.0547 208.12C28.0547 211.246 71.4584 213.78 125 213.78Z" fill="#F5F5F5"/>
<path d="M158.25 49.65H42.9902L50.5752 206.62H165.835L158.25 49.65Z" fill="#0669B7"/>
<path opacity="0.2" d="M158.25 49.65H42.9902L50.5752 206.62H165.835L158.25 49.65Z" fill="black"/>
<path d="M159.315 49.65H44.0547L51.6447 206.62H166.905L159.315 49.65Z" fill="#0669B7"/>
<path opacity="0.2" d="M153.231 54.93H49.3262L56.5862 199.525L146.936 199.405L161.951 186.095L153.231 54.93Z" fill="black"/>
<path d="M154.026 54.925C155.134 98.2282 158.631 141.437 164.501 184.355C156.268 190.022 148.076 195.688 139.926 201.355H62.2162C54.8814 152.86 50.5764 103.955 49.3262 54.925H154.026Z" fill="white"/>
<path d="M164.501 184.355C156.267 190.022 148.076 195.688 139.926 201.355C141.706 193.855 143.561 186.355 145.491 178.855L164.501 184.355Z" fill="#EBEBEB"/>
<path d="M77.5009 68.155C77.6975 73.4483 77.9275 78.745 78.1909 84.045H62.3059C62.0392 78.745 61.8092 73.4483 61.6159 68.155H77.5009ZM79.1209 66.48H59.8809C60.1042 72.89 60.3825 79.3033 60.7159 85.72H79.9609C79.6275 79.3066 79.3492 72.8933 79.1259 66.48H79.1209Z" fill="#0669B7"/>
<path d="M142.409 74.12H87.9994C87.9494 72.925 87.9044 71.725 87.8594 70.53H142.264C142.309 71.725 142.359 72.925 142.409 74.12Z" fill="#E0E0E0"/>
<path d="M130.915 81.67H88.3349C88.2799 80.47 88.2199 79.275 88.1699 78.08H130.745C130.802 79.2767 130.858 80.4733 130.915 81.67Z" fill="#E0E0E0"/>
<path d="M79.0606 99.275C79.394 104.575 79.7656 109.875 80.1756 115.175H64.2856C63.8756 109.875 63.504 104.575 63.1706 99.275H79.0606ZM80.6306 97.6H61.3906C61.784 104.017 62.2323 110.433 62.7356 116.85H82.0006C81.5006 110.437 81.0506 104.02 80.6506 97.6H80.6306Z" fill="#0669B7"/>
<path d="M109.701 105.245H89.7009C89.6209 104.045 89.5359 102.85 89.4609 101.65H109.461C109.536 102.85 109.616 104.045 109.701 105.245Z" fill="#E0E0E0"/>
<path d="M128.634 105.245H113.929C113.849 104.045 113.764 102.85 113.689 101.65H128.394C128.469 102.85 128.549 104.045 128.634 105.245Z" fill="#E0E0E0"/>
<path d="M137.864 112.8H90.2494C90.1594 111.6 90.0744 110.405 89.9844 109.205H137.599C137.689 110.405 137.774 111.6 137.864 112.8Z" fill="#E0E0E0"/>
<path d="M81.4455 130.41C81.9221 135.71 82.4355 141.01 82.9855 146.31H67.0955C66.5455 141.01 66.0321 135.71 65.5555 130.41H81.4455ZM82.9755 128.735H63.7305C64.2971 135.155 64.9171 141.573 65.5905 147.99H84.8355C84.1688 141.57 83.5488 135.152 82.9755 128.735V128.735Z" fill="#0669B7"/>
<path d="M147.05 140.345H92.6348L92.9948 143.935H147.41L147.05 140.345Z" fill="#E0E0E0"/>
<path d="M134.5 132.79H91.9199C92.0299 133.985 92.1399 135.185 92.2549 136.38H134.83C134.72 135.185 134.605 134 134.5 132.79Z" fill="#E0E0E0"/>
<path d="M84.6604 161.545C85.2804 166.845 85.9354 172.143 86.6254 177.44H70.7354C70.0454 172.147 69.3904 166.848 68.7704 161.545H84.6604ZM86.1604 159.87H66.9004C67.6337 166.29 68.4254 172.705 69.2754 179.115H88.5004C87.6571 172.705 86.8654 166.29 86.1254 159.87H86.1604Z" fill="#0669B7"/>
<path d="M150.046 167.5H95.6312C95.4862 166.3 95.3412 165.105 95.2012 163.905H149.611C149.756 165.12 149.896 166.315 150.046 167.5Z" fill="#E0E0E0"/>
<path d="M121.346 175.065H96.5761C96.4211 173.87 96.2711 172.67 96.1211 171.475H120.891C121.041 172.67 121.191 173.87 121.346 175.065Z" fill="#E0E0E0"/>
<path d="M136.134 175.065H125.439C125.284 173.87 125.134 172.67 124.984 171.475H135.679C135.829 172.67 135.999 173.87 136.134 175.065Z" fill="#E0E0E0"/>
<path d="M70.4993 81.775L69.7943 80.655C68.2543 78.205 65.1143 76.02 64.0293 75.38L64.8393 73.945C66.968 75.2376 68.8699 76.871 70.4693 78.78C72.8893 75.485 76.4693 72.08 81.3693 68.42L82.4043 69.77C77.1743 73.685 73.5143 77.27 71.2043 80.72L70.4993 81.775Z" fill="#0669B7"/>
<path d="M72.4006 112.905L71.6656 111.785C70.0656 109.335 66.8656 107.145 65.7656 106.505L66.5306 105.07C68.6999 106.363 70.6465 107.997 72.2956 109.91C74.6256 106.61 78.1106 103.205 82.9156 99.54C83.2706 99.99 83.6306 100.44 83.9856 100.895C78.8606 104.815 75.2956 108.395 73.0806 111.85C72.8506 112.2 72.6256 112.555 72.4006 112.905Z" fill="#0669B7"/>
<path d="M75.1596 144.12L74.3946 143C72.7246 140.55 69.4646 138.36 68.3496 137.725C68.5896 137.225 68.8496 136.765 69.0796 136.29C71.2827 137.585 73.27 139.217 74.9696 141.125C77.2146 137.825 80.6096 134.425 85.3096 130.755L86.4196 132.11C81.4196 136.03 77.9196 139.61 75.8046 143.065L75.1596 144.12Z" fill="#0669B7"/>
<path d="M125.564 192.73C122.614 192.73 120.914 191.64 119.414 190.68C117.914 189.72 116.624 188.89 114.134 188.89C111.644 188.89 110.534 189.76 109.359 190.68C108.184 191.6 106.744 192.73 103.794 192.73C100.844 192.73 99.1443 191.64 97.6493 190.68C96.1543 189.72 94.8643 188.89 92.3693 188.89C89.8743 188.89 88.7693 189.76 87.5943 190.68C86.4193 191.6 84.9793 192.73 82.0343 192.73C79.0893 192.73 77.3843 191.64 75.8843 190.68C74.3843 189.72 73.0993 188.89 70.6043 188.89C70.5393 188.39 70.4693 187.93 70.4043 187.45C73.3543 187.45 75.0493 188.54 76.5493 189.5C78.0493 190.46 79.3343 191.29 81.8243 191.29C84.3143 191.29 85.4243 190.42 86.5993 189.5C87.7743 188.58 89.2193 187.45 92.1693 187.45C95.1193 187.45 96.8093 188.54 98.3093 189.5C99.8093 190.46 101.099 191.29 103.589 191.29C106.079 191.29 107.189 190.42 108.364 189.5C109.539 188.58 110.984 187.45 113.934 187.45C116.884 187.45 118.579 188.54 120.079 189.5C121.579 190.46 122.864 191.29 125.359 191.29C125.424 191.77 125.499 192.25 125.564 192.73Z" fill="#EBEBEB"/>
<path d="M129.795 53.535C128.105 49.035 124.2 46.08 120 46.08H111.44C110.803 46.0744 110.181 45.882 109.652 45.5264C109.124 45.1709 108.711 44.668 108.465 44.08C107.86 42.6429 106.848 41.4139 105.554 40.5443C104.26 39.6746 102.739 39.2022 101.18 39.185C99.6717 39.1697 98.1978 39.6362 96.973 40.5166C95.7481 41.397 94.8363 42.6454 94.3701 44.08C94.1801 44.667 93.8073 45.1778 93.3062 45.5376C92.8051 45.8975 92.202 46.0875 91.5851 46.08H83.0301C78.8251 46.08 75.2051 49.05 73.9551 53.535L73.4551 55.32H130.455L129.795 53.535Z" fill="#263238"/>
<path d="M130.1 57.08H73.9998C73.5266 57.0745 73.0732 56.8898 72.7308 56.5632C72.3884 56.2366 72.1826 55.7923 72.1548 55.32V55.32C72.1425 55.093 72.1768 54.866 72.2556 54.6528C72.3344 54.4396 72.456 54.2448 72.6129 54.0804C72.7698 53.916 72.9587 53.7854 73.168 53.6968C73.3773 53.6081 73.6025 53.5633 73.8298 53.565H129.93C130.402 53.5704 130.855 53.7544 131.197 54.0799C131.539 54.4055 131.746 54.8485 131.775 55.32C131.788 55.5473 131.754 55.775 131.676 55.9887C131.597 56.2025 131.476 56.3979 131.319 56.5629C131.162 56.7279 130.972 56.8589 130.763 56.9478C130.553 57.0367 130.327 57.0817 130.1 57.08V57.08Z" fill="#0669B7"/>
<path opacity="0.2" d="M130.1 57.08H73.9998C73.5266 57.0745 73.0732 56.8898 72.7308 56.5632C72.3884 56.2366 72.1826 55.7923 72.1548 55.32V55.32C72.1425 55.093 72.1768 54.866 72.2556 54.6528C72.3344 54.4396 72.456 54.2448 72.6129 54.0804C72.7698 53.916 72.9587 53.7854 73.168 53.6968C73.3773 53.6081 73.6025 53.5633 73.8298 53.565H129.93C130.402 53.5704 130.855 53.7544 131.197 54.0799C131.539 54.4055 131.746 54.8485 131.775 55.32C131.788 55.5473 131.754 55.775 131.676 55.9887C131.597 56.2025 131.476 56.3979 131.319 56.5629C131.162 56.7279 130.972 56.8589 130.763 56.9478C130.553 57.0367 130.327 57.0817 130.1 57.08V57.08Z" fill="black"/>
<path d="M180.46 205.115H176.795L176.43 196.63H180.095L180.46 205.115Z" fill="#FFC3BD"/>
<path d="M202.456 205.115H198.791L196.951 196.63H200.611L202.456 205.115Z" fill="#FFC3BD"/>
<path d="M198.531 204.69H202.646C202.719 204.69 202.789 204.714 202.846 204.76C202.902 204.805 202.941 204.869 202.956 204.94L203.681 208.2C203.698 208.279 203.696 208.361 203.677 208.439C203.657 208.518 203.621 208.591 203.569 208.653C203.518 208.716 203.453 208.766 203.38 208.8C203.307 208.834 203.227 208.851 203.146 208.85C201.711 208.825 201.011 208.74 199.201 208.74C198.086 208.74 195.791 208.855 194.256 208.855C192.721 208.855 192.516 207.355 193.146 207.2C195.971 206.58 197.031 205.73 197.936 204.915C198.1 204.77 198.312 204.69 198.531 204.69V204.69Z" fill="#263238"/>
<path d="M176.821 204.69H180.821C180.893 204.69 180.964 204.714 181.02 204.76C181.077 204.805 181.116 204.869 181.131 204.94L181.856 208.2C181.874 208.276 181.874 208.356 181.858 208.433C181.841 208.509 181.807 208.581 181.76 208.643C181.712 208.706 181.651 208.756 181.581 208.792C181.511 208.828 181.434 208.848 181.356 208.85C179.911 208.825 177.826 208.74 176.011 208.74C173.891 208.74 172.061 208.855 169.571 208.855C168.071 208.855 167.651 207.355 168.281 207.2C171.146 206.57 173.486 206.505 175.961 204.975C176.217 204.805 176.514 204.707 176.821 204.69Z" fill="#263238"/>
<path d="M184.001 71.4601C183.501 74.1401 183.211 77.4601 185.086 79.2501C185.086 79.2501 184.011 81.9701 179.031 81.9701C174.481 81.9701 176.761 79.2501 176.761 79.2501C179.761 78.5351 179.591 74.8401 179.071 72.7501L184.001 71.4601Z" fill="#FFC3BD"/>
<path d="M175.33 79.6251C175.43 78.9601 176.6 78.1851 177.93 77.8951C179.26 77.6051 184.37 76.9601 185.93 77.6051C187.49 78.2501 185.66 80.1601 185.66 80.1601L175.33 79.6251Z" fill="#0669B7"/>
<path opacity="0.4" d="M175.33 79.6251C175.43 78.9601 176.6 78.1851 177.93 77.8951C179.26 77.6051 184.37 76.9601 185.93 77.6051C187.49 78.2501 185.66 80.1601 185.66 80.1601L175.33 79.6251Z" fill="white"/>
<path opacity="0.2" d="M176.43 196.635L176.62 201.005H180.285L180.095 196.635H176.43Z" fill="black"/>
<path opacity="0.2" d="M200.616 196.635H196.951L197.901 201.005H201.566L200.616 196.635Z" fill="black"/>
<path d="M192.675 82.55L188.26 85.5C188.26 85.5 194.6 96.775 194.07 98.58C193.345 101.04 192.335 106.415 190.96 109.145C191.14 109.735 192.055 111.08 192.565 111.31C196.065 108.65 199.6 100.31 199.47 97.975C199.165 92.68 192.675 82.55 192.675 82.55Z" fill="#FFC3BD"/>
<path d="M190.961 109.155L187.461 108.885L189.296 112.74C189.296 112.74 192.351 112.875 192.861 110.54L190.961 109.155Z" fill="#B55B52"/>
<path d="M208.26 127.955L207.965 128.51L205.985 132.255L135.695 95.09L137.965 90.79L208.26 127.955Z" fill="#0669B7"/>
<path d="M212.805 119.37L211.355 122.11L210.535 123.66L140.24 86.4951L142.51 82.1951L212.805 119.37Z" fill="#0669B7"/>
<path d="M140.263 86.4824L137.988 90.7771L208.254 127.997L210.529 123.702L140.263 86.4824Z" fill="#0669B7"/>
<path opacity="0.2" d="M140.263 86.4824L137.988 90.7771L208.254 127.997L210.529 123.702L140.263 86.4824Z" fill="black"/>
<path d="M132.666 82.765L130.621 86.635L135.696 95.09L142.511 82.2L132.666 82.765Z" fill="#0669B7"/>
<path opacity="0.8" d="M132.666 82.765L130.621 86.635L135.696 95.09L142.511 82.2L132.666 82.765Z" fill="white"/>
<path d="M128.445 83.01L130.62 86.635L132.665 82.765L128.445 83.01Z" fill="#0669B7"/>
<path d="M184.645 110.64L186.475 114.05L189.31 112.74L187.475 108.885L184.645 110.64Z" fill="#B55B52"/>
<path d="M191.626 80.08C195.091 80.58 199.061 92.58 199.061 92.58L191.781 96.69C191.781 96.69 188.576 91 187.001 86.75C185.341 82.305 187.911 79.54 191.626 80.08Z" fill="#263238"/>
<path opacity="0.2" d="M189.611 84.195C188.036 82.755 189.001 88.92 189.751 92.865C190.136 93.635 190.501 94.335 190.811 94.92C192.566 91.82 191.781 86.18 189.611 84.195Z" fill="black"/>
<path d="M171.104 80.27C171.104 80.27 166.779 91.33 170.884 111.93H190.499C190.634 108.93 188.744 94.25 191.644 80.08C189.478 79.6618 187.287 79.3845 185.084 79.25C182.312 79.0899 179.532 79.0899 176.759 79.25C174.85 79.4409 172.96 79.7819 171.104 80.27V80.27Z" fill="#263238"/>
<path d="M174.12 85.41L169.18 83.455C169.18 83.455 163.49 95.07 161.68 95.655C159.245 96.455 154.245 98.655 151.215 99.085C150.835 99.585 150.245 101.085 150.34 101.635C154.515 103 163.4 101.19 165.24 99.76C169.46 96.5 174.12 85.41 174.12 85.41Z" fill="#FFC3BD"/>
<path opacity="0.2" d="M174.676 84.09C173.861 82.21 172.301 81.425 170.676 81.7C170.046 84.005 168.981 89.07 169.176 96.7L170.341 97.26C170.341 97.26 176.071 87.305 174.676 84.09Z" fill="black"/>
<path d="M175.455 82.775C176.685 86.055 170.455 95.705 170.455 95.705L163.125 91.705C164.226 88.7036 165.646 85.8288 167.36 83.13C169.935 79.285 174.1 79.18 175.455 82.775Z" fill="#263238"/>
<path d="M151.395 99.075L147.035 100L149.245 104.035C150.464 103.429 151.571 102.621 152.52 101.645L151.395 99.075Z" fill="#FFC3BD"/>
<path d="M144.975 100.915L146.715 103.325L149.245 104.055L147.035 100.02L144.975 100.915Z" fill="#FFC3BD"/>
<path d="M175.691 67.605C175.691 67.9 175.506 68.105 175.311 68.105C175.116 68.105 174.976 67.845 174.996 67.55C175.016 67.255 175.181 67.05 175.376 67.05C175.571 67.05 175.711 67.31 175.691 67.605Z" fill="#263238"/>
<path d="M175.95 67.63C175.546 68.511 175.023 69.332 174.395 70.07C174.588 70.2262 174.813 70.338 175.054 70.3977C175.295 70.4573 175.546 70.4632 175.79 70.415L175.95 67.63Z" fill="#ED847E"/>
<path d="M175.315 66.585C175.288 66.5794 175.263 66.5692 175.24 66.555C175.22 66.5428 175.204 66.5269 175.191 66.5081C175.178 66.4893 175.168 66.4681 175.164 66.4456C175.159 66.4232 175.159 66.4001 175.163 66.3777C175.168 66.3552 175.177 66.3339 175.19 66.315C175.335 66.0809 175.533 65.8844 175.769 65.7419C176.004 65.5993 176.27 65.5147 176.545 65.495C176.59 65.4974 176.634 65.5166 176.666 65.5489C176.698 65.5812 176.717 65.6244 176.72 65.67C176.72 65.7164 176.701 65.7609 176.669 65.7937C176.636 65.8266 176.591 65.845 176.545 65.845C176.332 65.8649 176.126 65.9345 175.944 66.0482C175.763 66.162 175.611 66.3167 175.5 66.5C175.482 66.5317 175.454 66.5569 175.421 66.5722C175.388 66.5874 175.351 66.5919 175.315 66.585V66.585Z" fill="#263238"/>
<path d="M185.631 67.3501C185.201 70.9601 185.131 73.0901 183.196 74.8501C180.281 77.4901 175.906 75.5751 175.246 71.9051C174.656 68.6051 175.461 63.2601 179.091 62.0201C179.89 61.7437 180.746 61.676 181.578 61.8235C182.41 61.971 183.191 62.3286 183.846 62.8626C184.501 63.3966 185.009 64.0891 185.321 64.8745C185.634 65.6598 185.74 66.512 185.631 67.3501V67.3501Z" fill="#FFC3BD"/>
<path d="M178.355 68.055C177.09 68.305 175.07 65.495 176.72 63.11C175.885 62.695 173.16 64.335 172.135 62.805C171.11 61.275 173.955 60.46 173.41 59.165C175.34 59.56 172.16 61.97 173.995 61.735C175.83 61.5 177.945 58.11 179.995 59.5C183.62 61.935 188.56 57.875 186.545 62.96C189.015 62.46 190.705 65.38 188.35 67.405C183.655 71.43 186.545 71.96 183.57 72.165C182.08 72.275 178.615 70.5 178.355 68.055Z" fill="#263238"/>
<path d="M180.231 69C180.058 69.361 179.814 69.6836 179.515 69.9489C179.215 70.2143 178.865 70.417 178.486 70.545C177.486 70.89 176.911 69.995 177.146 69.01C177.356 68.12 178.146 66.87 179.181 66.96C179.408 66.9822 179.626 67.061 179.815 67.1892C180.004 67.3174 180.158 67.491 180.262 67.6939C180.367 67.8968 180.418 68.1227 180.413 68.3509C180.408 68.5791 180.345 68.8023 180.231 69Z" fill="#FFC3BD"/>
<path d="M177.836 111.93C177.836 111.93 181.996 139.93 184.276 150.43C186.776 161.93 196.191 200.175 196.191 200.175H202.901C202.901 200.175 196.696 162.845 195.266 151.47C193.721 139.13 190.481 111.945 190.481 111.945L177.836 111.93Z" fill="#0669B7"/>
<path opacity="0.2" d="M177.836 111.93C177.836 111.93 181.996 139.93 184.276 150.43C186.776 161.93 196.191 200.175 196.191 200.175H202.901C202.901 200.175 196.696 162.845 195.266 151.47C193.721 139.13 190.481 111.945 190.481 111.945L177.836 111.93Z" fill="white"/>
<path opacity="0.2" d="M182.776 121.72C182.466 121.28 182.186 121.13 181.926 121.22H181.871C181.812 121.246 181.756 121.28 181.706 121.32C181.653 121.363 181.604 121.412 181.561 121.465L181.481 121.565L181.376 121.73C181.289 121.876 181.214 122.028 181.151 122.185C181.111 122.28 181.071 122.38 181.036 122.48C181.001 122.58 180.946 122.735 180.906 122.875C180.866 123.015 180.791 123.255 180.736 123.46C180.736 123.515 180.711 123.565 180.696 123.62C180.681 123.675 180.641 123.85 180.616 123.965C180.591 124.08 180.571 124.165 180.551 124.265C180.506 124.46 180.466 124.665 180.426 124.875C180.386 125.085 180.341 125.33 180.301 125.565C180.301 125.645 180.276 125.725 180.261 125.81C180.211 126.11 180.166 126.415 180.121 126.73C181.231 133.7 182.551 141.69 183.621 147.265C183.671 147.085 183.726 146.895 183.771 146.69C183.989 145.76 184.156 144.819 184.271 143.87C185.216 136.685 184.781 124.585 182.776 121.72Z" fill="black"/>
<path d="M170.886 111.93C170.886 111.93 170.386 139.32 170.781 150.495C171.196 162.115 175.256 200.16 175.256 200.16H181.461C181.461 200.16 181.686 162.79 181.961 151.38C182.261 138.94 183.761 111.93 183.761 111.93H170.886Z" fill="#0669B7"/>
<path opacity="0.2" d="M170.886 111.93C170.886 111.93 170.386 139.32 170.781 150.495C171.196 162.115 175.256 200.16 175.256 200.16H181.461C181.461 200.16 181.686 162.79 181.961 151.38C182.261 138.94 183.761 111.93 183.761 111.93H170.886Z" fill="white"/>
<path d="M181.871 198.26C181.896 198.26 181.871 200.285 181.871 200.285H174.716L174.416 198.01L181.871 198.26Z" fill="#263238"/>
<path d="M202.901 198.41C202.931 198.41 203.236 200.285 203.236 200.285H195.861L195.211 198.135L202.901 198.41Z" fill="#263238"/>
<path d="M197.32 205.33C197.071 205.35 196.822 205.285 196.615 205.145C196.548 205.09 196.496 205.019 196.464 204.939C196.433 204.858 196.422 204.771 196.435 204.685C196.435 204.635 196.449 204.586 196.475 204.543C196.5 204.5 196.536 204.465 196.58 204.44C196.985 204.235 198.17 204.94 198.305 205.04C198.319 205.05 198.329 205.064 198.335 205.08C198.342 205.096 198.343 205.113 198.34 205.13C198.337 205.147 198.33 205.163 198.318 205.175C198.307 205.187 198.291 205.196 198.275 205.2C197.962 205.278 197.642 205.322 197.32 205.33ZM196.775 204.575C196.737 204.567 196.698 204.567 196.66 204.575C196.642 204.585 196.628 204.6 196.618 204.617C196.609 204.635 196.604 204.655 196.605 204.675C196.597 204.733 196.604 204.793 196.625 204.848C196.646 204.903 196.68 204.952 196.725 204.99C197.133 205.18 197.599 205.205 198.025 205.06C197.643 204.819 197.219 204.655 196.775 204.575Z" fill="#0669B7"/>
<path d="M198.256 205.205C198.243 205.209 198.229 205.209 198.216 205.205C197.836 205 197.106 204.205 197.181 203.79C197.194 203.727 197.228 203.669 197.278 203.628C197.329 203.587 197.391 203.565 197.456 203.565C197.522 203.555 197.589 203.56 197.653 203.579C197.717 203.598 197.776 203.631 197.826 203.675C198.251 204.02 198.326 205.08 198.326 205.125C198.326 205.14 198.322 205.156 198.315 205.17C198.308 205.183 198.298 205.195 198.286 205.205C198.276 205.207 198.266 205.207 198.256 205.205V205.205ZM197.516 203.705H197.501C197.386 203.705 197.376 203.77 197.371 203.795C197.326 204.035 197.791 204.64 198.171 204.925C198.145 204.508 197.993 204.109 197.736 203.78C197.704 203.752 197.667 203.732 197.626 203.721C197.585 203.71 197.543 203.708 197.501 203.715L197.516 203.705Z" fill="#0669B7"/>
<path d="M175.295 205.33C174.981 205.359 174.667 205.28 174.405 205.105C174.347 205.052 174.303 204.987 174.275 204.914C174.247 204.841 174.237 204.763 174.245 204.685C174.245 204.638 174.258 204.591 174.283 204.551C174.307 204.51 174.343 204.477 174.385 204.455C174.83 204.205 176.305 204.955 176.47 205.04C176.486 205.048 176.5 205.061 176.508 205.077C176.516 205.093 176.519 205.112 176.515 205.13C176.513 205.148 176.505 205.164 176.492 205.177C176.479 205.19 176.463 205.198 176.445 205.2C176.067 205.281 175.681 205.324 175.295 205.33V205.33ZM174.63 204.575C174.575 204.573 174.52 204.583 174.47 204.605C174.453 204.615 174.439 204.629 174.43 204.645C174.42 204.662 174.415 204.681 174.415 204.7C174.408 204.751 174.414 204.803 174.432 204.851C174.45 204.899 174.481 204.942 174.52 204.975C174.745 205.175 175.35 205.21 176.16 205.075C175.681 204.824 175.164 204.655 174.63 204.575V204.575Z" fill="#0669B7"/>
<path d="M176.43 205.205H176.395C175.95 205.005 175.075 204.205 175.145 203.8C175.145 203.705 175.23 203.58 175.465 203.56C175.553 203.547 175.644 203.553 175.73 203.578C175.817 203.603 175.897 203.646 175.965 203.705C176.43 204.09 176.525 205.075 176.53 205.12C176.532 205.135 176.53 205.149 176.523 205.163C176.517 205.176 176.507 205.187 176.495 205.195C176.475 205.206 176.452 205.21 176.43 205.205V205.205ZM175.535 203.705H175.5C175.345 203.705 175.335 203.78 175.33 203.805C175.29 204.05 175.885 204.675 176.33 204.945C176.286 204.525 176.111 204.129 175.83 203.815C175.744 203.751 175.641 203.716 175.535 203.715V203.705Z" fill="#0669B7"/>
</svg>
