<svg width="364" height="385" viewBox="0 0 364 385" fill="none" xmlns="http://www.w3.org/2000/svg">
<path d="M263.26 325.935C240.33 339.325 240.33 361.025 263.26 374.415C286.19 387.805 323.37 387.805 346.31 374.415C369.25 361.025 369.24 339.325 346.31 325.935C323.38 312.545 286.19 312.545 263.26 325.935Z" fill="#EBEBEB"/>
<path opacity="0.1" d="M276.05 57.9849C276.105 57.4773 276.019 56.9644 275.802 56.5022C275.585 56.04 275.245 55.6465 274.82 55.3649L271.68 53.5649C271.222 53.3396 270.712 53.2437 270.205 53.2878C269.697 53.3319 269.211 53.5142 268.8 53.8149L57.5695 175.815C56.3972 176.583 55.4236 177.617 54.7283 178.834C54.033 180.051 53.6359 181.415 53.5695 182.815V354.675C53.5141 355.178 53.5964 355.686 53.8078 356.146C54.0192 356.606 54.3516 357 54.7695 357.285L57.9895 359.125C58.445 359.335 58.9484 359.42 59.4476 359.371C59.9468 359.321 60.4238 359.14 60.8295 358.845L272.06 236.845C273.232 236.077 274.206 235.042 274.901 233.826C275.596 232.609 275.993 231.245 276.06 229.845L276.05 57.9849Z" fill="#5C83BE"/>
<path opacity="0.1" d="M272.029 55.6748L60.7988 177.675C59.6271 178.443 58.6538 179.478 57.9586 180.695C57.2634 181.911 56.866 183.275 56.7988 184.675V356.575C56.7988 359.135 58.5888 360.175 60.7988 358.895L272.029 236.895C273.201 236.127 274.175 235.092 274.87 233.876C275.565 232.659 275.962 231.295 276.029 229.895V57.9848C276.049 55.4248 274.249 54.3848 272.029 55.6748Z" fill="#5C83BE"/>
<path opacity="0.15" d="M276.05 57.9849V229.885C275.983 231.285 275.585 232.648 274.89 233.865C274.195 235.082 273.222 236.116 272.05 236.885L60.8301 358.885C58.8301 360.015 57.2101 359.335 56.8301 357.365C57.076 357.276 57.3136 357.166 57.5401 357.035L268.79 235.005C269.961 234.235 270.933 233.2 271.628 231.984C272.323 230.767 272.721 229.404 272.79 228.005V56.1349C272.794 55.8666 272.77 55.5985 272.72 55.3349C274.62 54.6749 276.05 55.6749 276.05 57.9849Z" fill="#5C83BE"/>
<path d="M272.03 55.6748L182.73 107.675L140.68 132.255L98.55 156.675L77.48 168.885L66.93 174.955L61.65 177.955C59.9952 178.857 58.7181 180.322 58.05 182.085C57.6914 182.932 57.511 183.845 57.52 184.765V193.905V206.075V230.425L57.38 279.125L57.17 284.295L56.85 356.445L56.52 284.295L56.31 279.125L56.17 230.425V206.075V193.905V184.765C56.1657 183.653 56.3833 182.552 56.81 181.525C57.2175 180.51 57.7809 179.565 58.48 178.725C58.8402 178.303 59.2349 177.911 59.66 177.555C60.0923 177.222 60.5504 176.925 61.03 176.665L66.18 173.675L76.68 167.545L97.79 155.405L140 131.125L182.29 106.985L272.03 55.6748Z" fill="white"/>
<path d="M75.4199 331.165C75.2881 331.162 75.1624 331.109 75.0692 331.016C74.976 330.922 74.9225 330.797 74.9199 330.665V185.255C74.9225 185.123 74.976 184.997 75.0692 184.904C75.1624 184.811 75.2881 184.757 75.4199 184.755C75.5525 184.755 75.6797 184.808 75.7735 184.901C75.8672 184.995 75.9199 185.122 75.9199 185.255V330.675C75.9173 330.806 75.8635 330.93 75.77 331.022C75.6765 331.114 75.5508 331.165 75.4199 331.165Z" fill="#455A64"/>
<path d="M71.3601 319.435C71.251 319.434 71.1453 319.397 71.059 319.33C70.9727 319.263 70.9107 319.17 70.8824 319.065C70.854 318.959 70.861 318.848 70.9021 318.747C70.9432 318.646 71.0163 318.561 71.1101 318.505L266.11 205.935C266.223 205.884 266.351 205.877 266.469 205.914C266.586 205.952 266.686 206.032 266.748 206.139C266.811 206.246 266.831 206.373 266.805 206.494C266.78 206.615 266.71 206.722 266.61 206.795L71.6101 319.365C71.535 319.411 71.4484 319.436 71.3601 319.435Z" fill="#455A64"/>
<path d="M79.4902 309.555L198.3 240.955C128.23 281.415 125.18 250.675 113 257.675C100.82 264.675 97.7602 288.165 79.4902 309.555Z" fill="#83BBFC"/>
<path opacity="0.4" d="M79.4902 309.555L198.3 240.955C128.23 281.415 125.18 250.675 113 257.675C100.82 264.675 97.7602 288.165 79.4902 309.555Z" fill="white"/>
<path d="M134.32 277.895C180.02 243.385 186.11 174.895 210.48 160.805C234.85 146.715 247.04 212.805 262.28 204.015L134.32 277.895Z" fill="#83BBFC"/>
<path d="M117.138 223.765C116.838 223.765 116.468 224.285 116.308 224.905C116.148 225.525 116.308 226.015 116.558 226.005C116.808 225.995 117.228 225.485 117.388 224.865C117.548 224.245 117.428 223.755 117.138 223.765Z" fill="#37474F"/>
<path d="M111.18 221.905C111.44 221.305 111.45 220.725 111.18 220.605C110.91 220.485 110.51 220.875 110.24 221.475C109.97 222.075 109.97 222.655 110.24 222.775C110.51 222.895 110.91 222.505 111.18 221.905Z" fill="#37474F"/>
<path d="M112.548 225.585C112.308 225.355 111.958 225.455 111.748 225.805C111.648 225.964 111.6 226.15 111.608 226.338C111.617 226.525 111.684 226.706 111.798 226.855C112.038 227.085 112.388 226.985 112.598 226.635C112.698 226.476 112.747 226.29 112.738 226.102C112.729 225.914 112.663 225.734 112.548 225.585Z" fill="#37474F"/>
<path d="M114.679 221.965C114.546 222.158 114.468 222.384 114.452 222.618C114.436 222.852 114.484 223.085 114.589 223.295C114.819 223.645 115.219 223.625 115.489 223.245C115.627 223.054 115.708 222.828 115.724 222.593C115.74 222.358 115.69 222.123 115.579 221.915C115.389 221.555 114.979 221.585 114.679 221.965Z" fill="#37474F"/>
<path d="M112.588 229.355C112.365 229.412 112.161 229.53 112.001 229.696C111.84 229.862 111.728 230.069 111.678 230.295C111.578 230.765 111.828 231.095 112.228 231.035C112.454 230.979 112.66 230.86 112.821 230.692C112.982 230.524 113.092 230.313 113.138 230.085C113.238 229.675 112.998 229.295 112.588 229.355Z" fill="#37474F"/>
<path d="M113.108 222.565C113.408 222.095 113.518 221.565 113.348 221.335C113.178 221.105 112.788 221.335 112.488 221.835C112.188 222.335 112.088 222.835 112.258 223.065C112.428 223.295 112.808 223.045 113.108 222.565Z" fill="#37474F"/>
<path d="M110.239 225.505C110.239 224.725 109.849 224.325 109.399 224.595C109.136 224.835 108.932 225.132 108.8 225.463C108.668 225.794 108.613 226.15 108.639 226.505C108.639 227.285 109.029 227.685 109.479 227.405C109.739 227.165 109.943 226.87 110.075 226.541C110.206 226.212 110.262 225.858 110.239 225.505Z" fill="#37474F"/>
<path d="M117.939 220.415C117.859 220.055 117.609 219.925 117.379 220.135C117.254 220.276 117.164 220.445 117.115 220.627C117.067 220.809 117.061 221 117.099 221.185C117.179 221.555 117.429 221.675 117.659 221.465C117.783 221.323 117.874 221.155 117.922 220.973C117.971 220.79 117.976 220.599 117.939 220.415Z" fill="#37474F"/>
<path d="M116.098 217.675C115.889 217.623 115.667 217.654 115.481 217.762C115.294 217.87 115.157 218.047 115.098 218.255C114.991 218.436 114.959 218.651 115.01 218.855C115.06 219.059 115.189 219.235 115.368 219.345C115.573 219.373 115.781 219.333 115.961 219.232C116.14 219.13 116.281 218.972 116.362 218.782C116.443 218.592 116.459 218.38 116.408 218.18C116.356 217.98 116.24 217.803 116.078 217.675H116.098Z" fill="#37474F"/>
<path d="M113.198 219.175C113.333 219.077 113.444 218.949 113.522 218.802C113.6 218.655 113.643 218.491 113.648 218.325C113.648 218.065 113.368 218.025 113.098 218.235C112.964 218.335 112.853 218.465 112.775 218.613C112.698 218.762 112.654 218.927 112.648 219.095C112.678 219.345 112.928 219.385 113.198 219.175Z" fill="#37474F"/>
<path d="M109.759 229.465C109.672 229.582 109.625 229.724 109.625 229.87C109.625 230.016 109.672 230.158 109.759 230.275C109.939 230.445 110.219 230.365 110.379 230.085C110.454 229.961 110.49 229.817 110.481 229.672C110.472 229.527 110.419 229.389 110.329 229.275C110.189 229.105 109.909 229.195 109.759 229.465Z" fill="#37474F"/>
<path d="M114.278 226.445C114.418 226.575 114.698 226.385 114.908 226.025C115.118 225.665 115.178 225.255 115.038 225.125C114.898 224.995 114.618 225.185 114.408 225.555C114.198 225.925 114.148 226.315 114.278 226.445Z" fill="#37474F"/>
<path d="M114.799 228.505C114.679 228.621 114.587 228.764 114.532 228.922C114.476 229.08 114.458 229.249 114.479 229.415C114.559 229.625 114.829 229.555 115.089 229.275C115.207 229.156 115.297 229.013 115.352 228.856C115.407 228.698 115.427 228.531 115.409 228.365C115.329 228.155 115.049 228.215 114.799 228.505Z" fill="#37474F"/>
<path d="M113.26 206.755C106.92 210.415 101.76 221.335 101.76 231.105C101.76 240.875 106.92 245.835 113.26 242.175C119.6 238.515 124.76 227.585 124.76 217.825C124.76 208.065 119.6 203.095 113.26 206.755ZM120.79 230.965L119.93 232.715C118.44 235.819 116.134 238.46 113.26 240.355C107.57 243.645 102.94 239.185 102.94 230.425C102.988 226.402 103.824 222.427 105.4 218.725L106.21 216.935C108.06 213.205 110.54 210.145 113.26 208.575C118.95 205.285 123.58 209.745 123.58 218.505C123.521 222.806 122.571 227.049 120.79 230.965Z" fill="#455A64"/>
<path d="M112.679 247.415L111.209 242.415L115.399 239.995L113.879 246.675C113.679 247.675 112.859 248.155 112.679 247.415Z" fill="#455A64"/>
<path d="M215.929 124.895C215.629 124.895 215.259 125.415 215.099 126.035C214.939 126.655 215.099 127.145 215.359 127.135C215.619 127.125 216.019 126.605 216.179 125.985C216.339 125.365 216.229 124.875 215.929 124.895Z" fill="#37474F"/>
<path d="M209.969 123.025C210.229 122.435 210.239 121.845 209.969 121.735C209.699 121.625 209.299 122.005 209.039 122.605C208.779 123.205 208.769 123.785 209.039 123.895C209.309 124.005 209.679 123.675 209.969 123.025Z" fill="#37474F"/>
<path d="M211.339 126.675C211.109 126.455 210.749 126.545 210.549 126.905C210.449 127.064 210.4 127.25 210.409 127.438C210.418 127.625 210.484 127.806 210.599 127.955C210.829 128.185 211.189 128.085 211.389 127.725C211.49 127.566 211.54 127.38 211.531 127.192C211.522 127.004 211.455 126.823 211.339 126.675Z" fill="#37474F"/>
<path d="M213.509 123.085C213.372 123.278 213.29 123.505 213.274 123.742C213.258 123.979 213.309 124.215 213.419 124.425C213.639 124.775 214.049 124.755 214.319 124.365C214.452 124.171 214.53 123.946 214.546 123.712C214.562 123.478 214.515 123.244 214.409 123.035C214.179 122.675 213.779 122.675 213.509 123.085Z" fill="#37474F"/>
<path d="M211.389 130.475C211.162 130.53 210.955 130.649 210.792 130.817C210.629 130.985 210.517 131.196 210.469 131.425C210.369 131.885 210.619 132.215 211.029 132.155C211.254 132.1 211.459 131.982 211.62 131.816C211.781 131.65 211.891 131.441 211.939 131.215C212.039 130.755 211.789 130.425 211.389 130.475Z" fill="#37474F"/>
<path d="M211.909 123.675C212.209 123.195 212.309 122.675 212.139 122.445C211.969 122.215 211.589 122.445 211.289 122.935C210.989 123.425 210.879 123.935 211.049 124.165C211.219 124.395 211.609 124.175 211.909 123.675Z" fill="#37474F"/>
<path d="M209.039 126.675C209.039 125.905 208.639 125.495 208.199 125.775C207.935 126.014 207.728 126.311 207.595 126.642C207.462 126.972 207.405 127.329 207.429 127.685C207.429 128.455 207.829 128.865 208.269 128.585C208.534 128.345 208.74 128.049 208.874 127.718C209.007 127.388 209.064 127.031 209.039 126.675Z" fill="#37474F"/>
<path d="M216.739 121.545C216.659 121.175 216.409 121.045 216.179 121.265C216.059 121.399 215.971 121.559 215.922 121.732C215.874 121.906 215.866 122.088 215.899 122.265C215.969 122.635 216.219 122.765 216.459 122.555C216.576 122.416 216.661 122.255 216.709 122.08C216.758 121.906 216.768 121.723 216.739 121.545Z" fill="#37474F"/>
<path d="M214.89 118.765C214.54 118.615 214.11 118.875 213.89 119.335C213.785 119.519 213.756 119.736 213.809 119.941C213.861 120.146 213.99 120.323 214.17 120.435C214.379 120.487 214.601 120.456 214.787 120.348C214.974 120.239 215.111 120.063 215.17 119.855C215.276 119.673 215.306 119.456 215.254 119.252C215.201 119.048 215.07 118.873 214.89 118.765Z" fill="#37474F"/>
<path d="M211.999 120.305C212.133 120.204 212.241 120.074 212.318 119.925C212.394 119.776 212.435 119.612 212.439 119.445C212.439 119.195 212.169 119.155 211.889 119.365C211.757 119.464 211.648 119.592 211.572 119.74C211.496 119.887 211.454 120.049 211.449 120.215C211.479 120.475 211.729 120.515 211.999 120.305Z" fill="#37474F"/>
<path d="M208.549 130.595C208.473 130.719 208.438 130.863 208.447 131.008C208.456 131.153 208.509 131.291 208.599 131.405C208.789 131.575 209.069 131.485 209.219 131.215C209.299 131.092 209.337 130.948 209.328 130.802C209.319 130.656 209.263 130.517 209.169 130.405C208.989 130.235 208.679 130.315 208.549 130.595Z" fill="#37474F"/>
<path d="M213.08 127.575C213.22 127.705 213.5 127.515 213.71 127.145C213.92 126.775 213.98 126.385 213.84 126.255C213.7 126.125 213.42 126.315 213.21 126.675C213 127.035 212.94 127.445 213.08 127.575Z" fill="#37474F"/>
<path d="M213.59 129.675C213.47 129.792 213.379 129.935 213.323 130.093C213.268 130.25 213.25 130.419 213.27 130.585C213.35 130.795 213.62 130.735 213.88 130.445C213.999 130.328 214.09 130.185 214.146 130.027C214.201 129.869 214.22 129.701 214.2 129.535C214.12 129.275 213.85 129.345 213.59 129.675Z" fill="#37474F"/>
<path d="M212.049 107.875C205.709 111.545 200.549 122.465 200.549 132.235C200.549 142.005 205.709 146.965 212.049 143.295C218.389 139.625 223.559 128.715 223.559 118.945C223.559 109.175 218.399 104.215 212.049 107.875ZM219.589 132.085L218.729 133.835C217.238 136.944 214.928 139.588 212.049 141.485C206.359 144.765 201.729 140.315 201.729 131.545C201.783 127.522 202.619 123.549 204.189 119.845L205.009 118.065C206.849 114.335 209.329 111.265 212.009 109.695C217.699 106.415 222.329 110.865 222.329 119.625C222.282 123.923 221.349 128.164 219.589 132.085Z" fill="#455A64"/>
<path d="M211.429 148.535L209.959 143.535L214.149 141.115L212.679 147.815C212.459 148.825 211.679 149.285 211.429 148.535Z" fill="#455A64"/>
<path d="M103.679 308.905C103.687 308.896 103.697 308.889 103.708 308.884C103.719 308.88 103.731 308.877 103.744 308.877C103.756 308.877 103.768 308.88 103.779 308.884C103.79 308.889 103.8 308.896 103.809 308.905C103.83 308.929 103.847 308.958 103.857 308.989C103.867 309.02 103.871 309.052 103.869 309.085V309.865C103.868 309.949 103.847 310.031 103.809 310.105C103.782 310.172 103.737 310.231 103.679 310.275L101.399 311.585V313.725L103.529 312.495C103.549 312.48 103.573 312.472 103.599 312.472C103.624 312.472 103.648 312.48 103.669 312.495C103.69 312.519 103.707 312.548 103.717 312.579C103.727 312.61 103.731 312.642 103.729 312.675V313.455C103.728 313.539 103.707 313.621 103.669 313.695C103.638 313.763 103.59 313.822 103.529 313.865L101.399 315.095V317.675C101.398 317.759 101.377 317.841 101.339 317.915C101.314 317.987 101.264 318.047 101.199 318.085L100.619 318.415C100.6 318.43 100.577 318.439 100.554 318.439C100.53 318.439 100.507 318.43 100.489 318.415C100.467 318.391 100.45 318.362 100.44 318.331C100.43 318.3 100.426 318.267 100.429 318.235V311.075C100.429 310.991 100.45 310.909 100.489 310.835C100.516 310.768 100.561 310.709 100.619 310.665L103.679 308.905Z" fill="#455A64"/>
<path d="M105.359 307.805C105.378 307.787 105.403 307.776 105.429 307.776C105.455 307.776 105.481 307.787 105.499 307.805C105.521 307.827 105.538 307.854 105.548 307.883C105.559 307.913 105.563 307.944 105.559 307.975V308.835C105.559 308.919 105.538 309.001 105.499 309.075C105.472 309.145 105.423 309.205 105.359 309.245L104.749 309.595C104.73 309.611 104.705 309.62 104.679 309.62C104.654 309.62 104.629 309.611 104.609 309.595C104.572 309.546 104.555 309.486 104.559 309.425V308.565C104.562 308.483 104.578 308.401 104.609 308.325C104.636 308.255 104.686 308.195 104.749 308.155L105.359 307.805ZM105.519 315.225C105.517 315.307 105.5 315.389 105.469 315.465C105.439 315.533 105.391 315.592 105.329 315.635L104.789 315.945C104.729 315.945 104.689 315.945 104.649 315.945C104.628 315.921 104.611 315.892 104.601 315.861C104.59 315.83 104.587 315.797 104.589 315.765V310.675C104.59 310.591 104.611 310.509 104.649 310.435C104.676 310.365 104.726 310.305 104.789 310.265L105.329 309.955C105.35 309.94 105.374 309.932 105.399 309.932C105.424 309.932 105.449 309.94 105.469 309.955C105.505 310.008 105.522 310.071 105.519 310.135V315.225Z" fill="#455A64"/>
<path d="M108.239 309.545C107.973 309.693 107.76 309.92 107.629 310.195C107.488 310.53 107.423 310.892 107.439 311.255V314.115C107.438 314.199 107.418 314.281 107.379 314.355C107.355 314.427 107.305 314.487 107.239 314.525L106.699 314.835C106.691 314.844 106.68 314.851 106.669 314.855C106.658 314.86 106.646 314.863 106.634 314.863C106.622 314.863 106.61 314.86 106.599 314.855C106.587 314.851 106.577 314.844 106.569 314.835C106.547 314.813 106.53 314.786 106.52 314.757C106.509 314.727 106.506 314.696 106.509 314.665V309.535C106.51 309.451 106.53 309.369 106.569 309.295C106.593 309.226 106.638 309.166 106.699 309.125L107.239 308.815C107.299 308.815 107.339 308.815 107.379 308.815C107.401 308.839 107.417 308.868 107.428 308.899C107.438 308.93 107.442 308.962 107.439 308.995V309.245C107.546 309.018 107.676 308.804 107.829 308.605C107.986 308.419 108.176 308.263 108.389 308.145L108.709 307.955C108.727 307.939 108.75 307.931 108.774 307.931C108.798 307.931 108.821 307.939 108.839 307.955C108.861 307.979 108.877 308.008 108.887 308.039C108.898 308.07 108.902 308.102 108.899 308.135V308.865C108.898 308.949 108.878 309.031 108.839 309.105C108.815 309.172 108.769 309.228 108.709 309.265L108.239 309.545Z" fill="#455A64"/>
<path d="M111.519 310.415C111.524 310.357 111.506 310.3 111.469 310.255C111.444 310.234 111.415 310.219 111.384 310.211C111.353 310.202 111.321 310.2 111.289 310.205L110.959 310.265L110.429 310.395C110.258 310.433 110.08 310.433 109.909 310.395C109.781 310.369 109.665 310.302 109.579 310.205C109.487 310.088 109.426 309.951 109.399 309.805C109.365 309.61 109.348 309.413 109.349 309.215C109.35 308.978 109.384 308.743 109.449 308.515C109.517 308.258 109.615 308.01 109.739 307.775C109.868 307.539 110.022 307.318 110.199 307.115C110.377 306.91 110.586 306.734 110.819 306.595C111.014 306.48 111.227 306.399 111.449 306.355C111.607 306.334 111.768 306.351 111.919 306.405C112.048 306.466 112.153 306.568 112.219 306.695C112.291 306.834 112.332 306.988 112.339 307.145C112.343 307.229 112.322 307.313 112.279 307.385C112.252 307.455 112.203 307.515 112.139 307.555L111.589 307.865C111.519 307.865 111.469 307.925 111.429 307.865L111.319 307.795C111.263 307.779 111.204 307.779 111.149 307.795C111.031 307.809 110.918 307.85 110.819 307.915C110.68 308.002 110.555 308.11 110.449 308.235C110.339 308.359 110.279 308.519 110.279 308.685C110.26 308.744 110.26 308.806 110.279 308.865C110.297 308.886 110.321 308.902 110.347 308.913C110.373 308.923 110.401 308.927 110.429 308.925C110.532 308.936 110.636 308.936 110.739 308.925L111.249 308.805C111.394 308.741 111.555 308.72 111.712 308.743C111.87 308.766 112.017 308.832 112.139 308.935C112.352 309.222 112.449 309.579 112.409 309.935C112.404 310.172 112.367 310.408 112.299 310.635C112.223 310.892 112.119 311.141 111.989 311.375C111.849 311.623 111.681 311.854 111.489 312.065C111.293 312.274 111.067 312.453 110.819 312.595C110.616 312.725 110.387 312.81 110.149 312.845C109.982 312.87 109.812 312.846 109.659 312.775C109.527 312.7 109.42 312.589 109.349 312.455C109.281 312.307 109.243 312.147 109.239 311.985C109.235 311.906 109.251 311.828 109.284 311.757C109.317 311.685 109.367 311.623 109.429 311.575L109.979 311.255C110.059 311.255 110.109 311.255 110.139 311.255L110.269 311.365C110.319 311.408 110.383 311.432 110.449 311.435C110.583 311.423 110.71 311.374 110.819 311.295L111.039 311.145C111.116 311.09 111.186 311.026 111.249 310.955C111.314 310.891 111.368 310.817 111.409 310.735C111.474 310.64 111.512 310.53 111.519 310.415Z" fill="#455A64"/>
<path d="M114.459 308.295C114.444 308.461 114.486 308.627 114.579 308.765C114.659 308.855 114.799 308.845 115.019 308.765L115.449 308.515C115.509 308.515 115.549 308.515 115.589 308.515C115.611 308.539 115.627 308.568 115.638 308.599C115.648 308.63 115.652 308.662 115.649 308.695V309.415C115.648 309.498 115.628 309.581 115.589 309.655C115.565 309.727 115.515 309.787 115.449 309.825L114.919 310.135C114.479 310.385 114.129 310.425 113.919 310.225C113.709 310.025 113.559 309.585 113.559 308.905V306.535L113.089 306.805C113.069 306.821 113.045 306.83 113.019 306.83C112.994 306.83 112.969 306.821 112.949 306.805C112.912 306.756 112.895 306.696 112.899 306.635V305.905C112.901 305.822 112.918 305.741 112.949 305.665C112.979 305.596 113.028 305.538 113.089 305.495L113.559 305.225V303.435C113.56 303.351 113.581 303.269 113.619 303.195C113.644 303.126 113.689 303.066 113.749 303.025L114.299 302.715C114.308 302.706 114.318 302.699 114.329 302.694C114.34 302.689 114.352 302.687 114.364 302.687C114.376 302.687 114.388 302.689 114.399 302.694C114.411 302.699 114.421 302.706 114.429 302.715C114.451 302.737 114.468 302.764 114.478 302.793C114.489 302.822 114.492 302.854 114.489 302.885V304.675L115.409 304.145C115.43 304.13 115.454 304.122 115.479 304.122C115.504 304.122 115.529 304.13 115.549 304.145C115.588 304.197 115.609 304.26 115.609 304.325V305.045C115.605 305.128 115.584 305.209 115.549 305.285C115.522 305.355 115.473 305.415 115.409 305.455L114.489 305.985L114.459 308.295Z" fill="#455A64"/>
<path d="M121.48 305.035L122.32 298.285C122.322 298.233 122.338 298.182 122.366 298.139C122.394 298.095 122.433 298.059 122.48 298.035L122.63 297.945C122.644 297.933 122.661 297.927 122.68 297.927C122.698 297.927 122.715 297.933 122.73 297.945C122.73 297.945 122.73 298.015 122.73 298.075C122.727 298.121 122.727 298.168 122.73 298.215L121.73 305.865C121.725 305.939 121.705 306.011 121.671 306.076C121.636 306.142 121.588 306.199 121.53 306.245L121.42 306.305C121.31 306.365 121.23 306.305 121.2 306.165L120.25 302.075L119.25 307.265C119.242 307.341 119.218 307.416 119.18 307.483C119.142 307.55 119.091 307.608 119.03 307.655L118.92 307.715C118.81 307.775 118.75 307.715 118.72 307.565L117.72 301.045C117.716 301.005 117.716 300.965 117.72 300.925C117.705 300.866 117.705 300.804 117.72 300.745C117.739 300.695 117.774 300.653 117.82 300.625L117.97 300.535C118.06 300.485 118.11 300.535 118.12 300.615L118.96 306.395L119.85 301.395C119.858 301.317 119.881 301.243 119.92 301.175C119.949 301.103 120.002 301.043 120.07 301.005L120.23 300.915C120.251 300.898 120.277 300.888 120.305 300.888C120.332 300.888 120.358 300.898 120.38 300.915C120.411 300.957 120.434 301.004 120.45 301.055L121.48 305.035Z" fill="#455A64"/>
<path d="M125.95 303.725C125.84 303.785 125.79 303.725 125.79 303.575V303.055C125.744 303.196 125.688 303.333 125.62 303.465C125.552 303.613 125.468 303.754 125.37 303.885C125.262 304.031 125.141 304.168 125.01 304.295C124.862 304.431 124.702 304.551 124.53 304.655C124.381 304.744 124.213 304.799 124.04 304.815C123.909 304.803 123.784 304.754 123.68 304.675C123.554 304.585 123.456 304.46 123.4 304.315C123.326 304.127 123.292 303.926 123.3 303.725C123.298 303.478 123.332 303.232 123.4 302.995C123.472 302.755 123.569 302.524 123.69 302.305C123.815 302.078 123.966 301.867 124.14 301.675C124.312 301.474 124.503 301.29 124.71 301.125L125.84 300.235V299.845C125.856 299.705 125.844 299.562 125.805 299.427C125.765 299.291 125.699 299.165 125.61 299.055C125.46 298.925 125.21 298.965 124.87 299.155C124.618 299.298 124.405 299.5 124.25 299.745C124.122 299.951 124.03 300.178 123.98 300.415C123.964 300.494 123.94 300.571 123.91 300.645C123.885 300.685 123.85 300.719 123.81 300.745L123.7 300.805C123.685 300.819 123.665 300.827 123.645 300.827C123.625 300.827 123.605 300.819 123.59 300.805C123.581 300.783 123.576 300.759 123.576 300.735C123.576 300.711 123.581 300.687 123.59 300.665C123.596 300.519 123.619 300.375 123.66 300.235C123.716 300.034 123.793 299.839 123.89 299.655C124.009 299.437 124.146 299.23 124.3 299.035C124.473 298.831 124.679 298.659 124.91 298.525C125.118 298.387 125.361 298.311 125.61 298.305C125.691 298.307 125.772 298.326 125.846 298.361C125.92 298.395 125.986 298.444 126.04 298.505C126.147 298.655 126.221 298.825 126.26 299.005C126.301 299.216 126.321 299.43 126.32 299.645V303.305C126.325 303.369 126.313 303.434 126.285 303.492C126.257 303.55 126.214 303.599 126.16 303.635L125.95 303.725ZM124.6 303.975C124.774 303.872 124.93 303.74 125.06 303.585C125.214 303.404 125.342 303.202 125.44 302.985C125.559 302.733 125.647 302.468 125.7 302.195C125.762 301.882 125.792 301.564 125.79 301.245V300.865L124.87 301.595C124.547 301.795 124.272 302.066 124.066 302.386C123.86 302.706 123.728 303.067 123.68 303.445C123.671 303.594 123.702 303.742 123.77 303.875C123.813 303.968 123.887 304.042 123.98 304.085C124.074 304.116 124.176 304.116 124.27 304.085C124.386 304.07 124.498 304.032 124.6 303.975Z" fill="#455A64"/>
<path d="M128.399 302.235C128.353 302.196 128.322 302.144 128.309 302.085L126.989 297.745C126.985 297.708 126.985 297.671 126.989 297.635C126.975 297.576 126.975 297.514 126.989 297.455C127.011 297.404 127.046 297.359 127.089 297.325L127.239 297.245C127.239 297.245 127.319 297.245 127.349 297.245L127.399 297.315L128.599 301.375L129.809 295.925C129.809 295.925 129.809 295.845 129.859 295.785C129.881 295.734 129.92 295.692 129.969 295.665L130.119 295.585C130.133 295.574 130.151 295.567 130.169 295.567C130.187 295.567 130.205 295.574 130.219 295.585C130.236 295.627 130.236 295.673 130.219 295.715C130.224 295.758 130.224 295.802 130.219 295.845L128.959 301.675C128.941 301.762 128.911 301.846 128.869 301.925C128.825 301.999 128.763 302.061 128.689 302.105L128.579 302.165C128.499 302.245 128.439 302.268 128.399 302.235Z" fill="#455A64"/>
<path d="M130.81 297.615C130.829 297.241 130.879 296.87 130.96 296.505C131.027 296.16 131.134 295.825 131.28 295.505C131.398 295.221 131.556 294.955 131.75 294.715C131.922 294.492 132.136 294.306 132.38 294.165C132.88 293.875 133.27 293.905 133.54 294.245C133.874 294.797 134.021 295.442 133.96 296.085V296.255C133.958 296.324 133.941 296.393 133.91 296.455C133.884 296.512 133.842 296.561 133.79 296.595L131.25 298.055V298.165C131.256 298.394 131.287 298.622 131.34 298.845C131.38 299.021 131.455 299.187 131.56 299.335C131.645 299.451 131.769 299.533 131.91 299.565C132.073 299.593 132.241 299.557 132.38 299.465C132.528 299.378 132.663 299.27 132.78 299.145C132.885 299.029 132.982 298.905 133.07 298.775C133.143 298.662 133.21 298.545 133.27 298.425C133.307 298.343 133.341 298.26 133.37 298.175C133.396 298.095 133.43 298.018 133.47 297.945C133.504 297.908 133.544 297.877 133.59 297.855L133.7 297.785C133.716 297.775 133.735 297.77 133.755 297.77C133.774 297.77 133.793 297.775 133.81 297.785C133.81 297.785 133.81 297.855 133.81 297.925C133.795 298.079 133.758 298.231 133.7 298.375C133.618 298.585 133.521 298.789 133.41 298.985C133.275 299.205 133.121 299.412 132.95 299.605C132.77 299.799 132.565 299.967 132.34 300.105C132.154 300.222 131.939 300.285 131.72 300.285C131.533 300.268 131.36 300.178 131.24 300.035C131.09 299.857 130.98 299.649 130.92 299.425C130.833 299.115 130.783 298.796 130.77 298.475V297.595L130.81 297.615ZM131.25 297.465L133.52 296.155V296.105C133.527 295.866 133.5 295.627 133.44 295.395C133.405 295.214 133.33 295.043 133.22 294.895C133.177 294.838 133.123 294.791 133.061 294.757C132.999 294.722 132.93 294.701 132.86 294.695C132.689 294.68 132.519 294.726 132.38 294.825C132.193 294.931 132.029 295.074 131.9 295.245C131.754 295.434 131.636 295.642 131.55 295.865C131.448 296.106 131.374 296.357 131.33 296.615C131.277 296.882 131.25 297.153 131.25 297.425V297.465Z" fill="#455A64"/>
<path d="M198.68 253.955C198.934 253.794 199.221 253.695 199.52 253.665C199.734 253.654 199.946 253.706 200.13 253.815C200.293 253.921 200.419 254.074 200.49 254.255C200.576 254.444 200.624 254.648 200.63 254.855C200.638 254.938 200.62 255.022 200.58 255.095C200.55 255.163 200.501 255.222 200.44 255.265L199.94 255.545C199.86 255.595 199.8 255.605 199.76 255.545C199.714 255.511 199.676 255.467 199.65 255.415C199.617 255.347 199.571 255.286 199.515 255.236C199.458 255.186 199.392 255.149 199.32 255.125C199.207 255.107 199.092 255.113 198.982 255.143C198.872 255.172 198.769 255.224 198.68 255.295C198.55 255.367 198.429 255.454 198.32 255.555C198.21 255.66 198.113 255.777 198.03 255.905C197.948 256.026 197.881 256.157 197.83 256.295C197.787 256.431 197.764 256.572 197.76 256.715C197.75 256.842 197.774 256.97 197.83 257.085C197.853 257.126 197.886 257.161 197.926 257.186C197.967 257.21 198.013 257.224 198.06 257.225C198.199 257.253 198.341 257.253 198.48 257.225C198.66 257.225 198.88 257.175 199.14 257.075C199.382 257.015 199.631 256.985 199.88 256.985C200.064 256.988 200.242 257.047 200.39 257.155C200.53 257.276 200.631 257.436 200.68 257.615C200.75 257.855 200.784 258.105 200.78 258.355C200.779 258.694 200.729 259.031 200.63 259.355C200.542 259.705 200.407 260.041 200.23 260.355C200.046 260.665 199.828 260.953 199.58 261.215C199.322 261.477 199.03 261.703 198.71 261.885C198.476 262.029 198.219 262.13 197.95 262.185C197.732 262.228 197.507 262.207 197.3 262.125C197.109 262.042 196.95 261.898 196.85 261.715C196.724 261.478 196.655 261.214 196.65 260.945C196.637 260.854 196.647 260.761 196.68 260.675C196.707 260.607 196.757 260.551 196.82 260.515L197.32 260.225C197.4 260.175 197.46 260.165 197.5 260.225C197.526 260.238 197.55 260.256 197.569 260.278C197.588 260.301 197.602 260.327 197.61 260.355C197.64 260.433 197.68 260.507 197.73 260.575C197.774 260.643 197.842 260.693 197.92 260.715C198.022 260.74 198.128 260.74 198.23 260.715C198.388 260.671 198.539 260.607 198.68 260.525C198.827 260.439 198.967 260.342 199.1 260.235C199.232 260.127 199.35 260.003 199.45 259.865C199.547 259.735 199.627 259.594 199.69 259.445C199.751 259.292 199.781 259.129 199.78 258.965C199.787 258.905 199.782 258.843 199.765 258.785C199.748 258.726 199.719 258.672 199.68 258.625C199.595 258.558 199.488 258.526 199.38 258.535C199.208 258.547 199.037 258.573 198.87 258.615L198.18 258.765C197.977 258.814 197.768 258.831 197.56 258.815C197.393 258.802 197.235 258.736 197.11 258.625C196.986 258.492 196.897 258.331 196.85 258.155C196.793 257.889 196.766 257.617 196.77 257.345C196.767 257.007 196.814 256.67 196.91 256.345C197.003 256.017 197.134 255.702 197.3 255.405C197.468 255.11 197.669 254.834 197.9 254.585C198.129 254.339 198.391 254.127 198.68 253.955Z" fill="#455A64"/>
<path d="M201.34 257.375C201.34 256.959 201.38 256.543 201.46 256.135C201.536 255.744 201.653 255.361 201.81 254.995C201.953 254.639 202.141 254.303 202.37 253.995C202.564 253.732 202.809 253.511 203.09 253.345C203.308 253.209 203.563 253.143 203.82 253.155C204.032 253.181 204.228 253.285 204.37 253.445C204.539 253.64 204.66 253.873 204.72 254.125C204.812 254.45 204.856 254.787 204.85 255.125V255.625C204.849 255.709 204.829 255.791 204.79 255.865C204.763 255.932 204.718 255.991 204.66 256.035L202.27 257.405C202.262 257.545 202.286 257.685 202.34 257.815C202.37 257.906 202.432 257.983 202.515 258.031C202.598 258.079 202.696 258.094 202.79 258.075C202.896 258.059 202.998 258.022 203.09 257.965C203.228 257.893 203.353 257.799 203.46 257.685C203.555 257.59 203.635 257.482 203.7 257.365C203.735 257.296 203.778 257.232 203.83 257.175C203.866 257.128 203.91 257.087 203.96 257.055L204.53 256.725C204.55 256.71 204.575 256.702 204.6 256.702C204.625 256.702 204.649 256.71 204.67 256.725C204.692 256.749 204.708 256.778 204.718 256.809C204.729 256.84 204.733 256.872 204.73 256.905C204.711 257.062 204.674 257.216 204.62 257.365C204.535 257.59 204.432 257.808 204.31 258.015C204.164 258.265 203.99 258.496 203.79 258.705C203.592 258.935 203.355 259.128 203.09 259.275C202.878 259.419 202.626 259.492 202.37 259.485C202.153 259.464 201.952 259.36 201.81 259.195C201.639 258.978 201.519 258.725 201.46 258.455C201.378 258.101 201.338 257.738 201.34 257.375ZM203.09 254.705C202.956 254.783 202.837 254.884 202.74 255.005C202.642 255.125 202.558 255.256 202.49 255.395C202.425 255.526 202.375 255.663 202.34 255.805C202.305 255.933 202.281 256.063 202.27 256.195L203.88 255.265C203.878 255.156 203.861 255.049 203.83 254.945C203.81 254.841 203.757 254.747 203.68 254.675C203.62 254.61 203.538 254.57 203.45 254.565C203.323 254.575 203.2 254.612 203.09 254.675V254.705Z" fill="#455A64"/>
<path d="M206.379 254.075C206.379 254.195 206.379 254.325 206.379 254.475C206.379 254.625 206.379 254.745 206.379 254.845C206.38 255.026 206.413 255.206 206.479 255.375C206.516 255.481 206.581 255.575 206.669 255.645C206.744 255.701 206.837 255.726 206.929 255.715C207.035 255.708 207.137 255.678 207.229 255.625C207.336 255.561 207.436 255.487 207.529 255.405C207.607 255.329 207.678 255.245 207.739 255.155C207.794 255.069 207.841 254.979 207.879 254.885C207.919 254.798 207.959 254.698 207.999 254.585C208.028 254.497 208.062 254.41 208.099 254.325C208.124 254.251 208.173 254.187 208.239 254.145L208.779 253.835C208.799 253.819 208.824 253.81 208.849 253.81C208.875 253.81 208.9 253.819 208.919 253.835C208.942 253.858 208.959 253.887 208.968 253.918C208.977 253.95 208.977 253.983 208.969 254.015C208.958 254.225 208.921 254.433 208.859 254.635C208.788 254.916 208.684 255.188 208.549 255.445C208.402 255.739 208.221 256.014 208.009 256.265C207.79 256.531 207.526 256.758 207.229 256.935C207.019 257.073 206.771 257.142 206.519 257.135C206.315 257.125 206.12 257.043 205.969 256.905C205.804 256.736 205.681 256.53 205.609 256.305C205.515 256.024 205.461 255.731 205.449 255.435C205.449 255.315 205.449 255.165 205.449 255.005C205.449 254.845 205.449 254.695 205.449 254.545C205.464 254.187 205.518 253.831 205.609 253.485C205.697 253.141 205.818 252.806 205.969 252.485C206.119 252.178 206.304 251.89 206.519 251.625C206.716 251.379 206.957 251.172 207.229 251.015C207.46 250.858 207.73 250.771 208.009 250.765C208.207 250.768 208.397 250.839 208.549 250.965C208.692 251.083 208.8 251.239 208.859 251.415C208.926 251.574 208.963 251.743 208.969 251.915C208.977 251.998 208.959 252.082 208.919 252.155C208.892 252.225 208.843 252.285 208.779 252.325L208.239 252.635C208.179 252.635 208.139 252.635 208.099 252.635L207.999 252.485C207.964 252.428 207.924 252.375 207.879 252.325C207.84 252.28 207.792 252.243 207.739 252.215C207.671 252.195 207.598 252.195 207.529 252.215C207.422 252.24 207.32 252.284 207.229 252.345C207.115 252.406 207.014 252.487 206.929 252.585C206.828 252.697 206.74 252.821 206.669 252.955C206.589 253.115 206.525 253.282 206.479 253.455C206.42 253.657 206.387 253.865 206.379 254.075Z" fill="#455A64"/>
<path d="M211.39 248.605C211.6 248.463 211.846 248.383 212.1 248.375C212.301 248.374 212.496 248.445 212.65 248.575C212.818 248.728 212.945 248.921 213.02 249.135C213.12 249.407 213.174 249.695 213.18 249.985C213.18 250.045 213.18 250.135 213.18 250.235V250.845C213.18 250.945 213.18 251.025 213.18 251.095C213.16 251.434 213.103 251.769 213.01 252.095C212.924 252.44 212.804 252.775 212.65 253.095C212.498 253.391 212.314 253.67 212.1 253.925C211.895 254.157 211.656 254.356 211.39 254.515C211.175 254.656 210.926 254.736 210.67 254.745C210.471 254.748 210.279 254.676 210.13 254.545C209.957 254.4 209.829 254.21 209.76 253.995C209.661 253.722 209.604 253.435 209.59 253.145C209.59 253.085 209.59 253.005 209.59 252.905V252.295C209.59 252.195 209.59 252.105 209.59 252.035C209.612 251.697 209.666 251.363 209.75 251.035C209.844 250.69 209.971 250.355 210.13 250.035C210.274 249.734 210.455 249.451 210.67 249.195C210.876 248.96 211.119 248.761 211.39 248.605ZM212.25 250.605C212.246 250.431 212.212 250.258 212.15 250.095C212.104 249.999 212.031 249.919 211.94 249.865C211.899 249.845 211.855 249.835 211.81 249.835C211.765 249.835 211.72 249.845 211.68 249.865C211.577 249.887 211.479 249.928 211.39 249.985C211.283 250.045 211.183 250.115 211.09 250.195C210.988 250.296 210.901 250.411 210.83 250.535C210.742 250.682 210.674 250.84 210.63 251.005C210.569 251.21 210.532 251.421 210.52 251.635C210.52 251.695 210.52 251.775 210.52 251.865V252.415C210.52 252.505 210.52 252.575 210.52 252.625C210.526 252.8 210.563 252.973 210.63 253.135C210.669 253.235 210.739 253.319 210.83 253.375C210.914 253.405 211.006 253.405 211.09 253.375L211.39 253.255C211.491 253.188 211.588 253.115 211.68 253.035C211.781 252.934 211.869 252.819 211.94 252.695C212.027 252.547 212.098 252.389 212.15 252.225C212.207 252.02 212.241 251.808 212.25 251.595C212.256 251.522 212.256 251.448 212.25 251.375V250.825C212.257 250.742 212.257 250.658 212.25 250.575V250.605Z" fill="#455A64"/>
<path d="M217.489 250.615C217.488 250.698 217.468 250.781 217.429 250.855C217.402 250.923 217.353 250.979 217.289 251.015L216.749 251.335C216.731 251.35 216.708 251.359 216.684 251.359C216.66 251.359 216.637 251.35 216.619 251.335C216.597 251.311 216.581 251.282 216.571 251.251C216.56 251.22 216.556 251.187 216.559 251.155V248.365C216.585 248.039 216.516 247.712 216.359 247.425C216.229 247.235 216.019 247.225 215.739 247.425C215.463 247.596 215.255 247.858 215.149 248.165C214.995 248.539 214.92 248.941 214.929 249.345V252.135C214.928 252.218 214.908 252.301 214.869 252.375C214.845 252.444 214.799 252.503 214.739 252.545L214.189 252.855C214.181 252.864 214.171 252.871 214.16 252.875C214.148 252.88 214.136 252.883 214.124 252.883C214.112 252.883 214.1 252.88 214.089 252.875C214.078 252.871 214.068 252.864 214.059 252.855C214.037 252.833 214.02 252.806 214.01 252.777C214 252.747 213.996 252.716 213.999 252.685V247.555C214 247.471 214.021 247.389 214.059 247.315C214.086 247.247 214.131 247.189 214.189 247.145L214.739 246.835C214.748 246.826 214.758 246.819 214.769 246.814C214.78 246.81 214.792 246.807 214.804 246.807C214.816 246.807 214.828 246.81 214.84 246.814C214.851 246.819 214.861 246.826 214.869 246.835C214.891 246.859 214.907 246.888 214.918 246.919C214.928 246.95 214.932 246.982 214.929 247.015V247.265C215.05 247.007 215.198 246.762 215.369 246.535C215.526 246.321 215.727 246.143 215.959 246.015C216.174 245.867 216.429 245.79 216.689 245.795C216.783 245.81 216.872 245.843 216.953 245.893C217.034 245.943 217.104 246.008 217.159 246.085C217.291 246.287 217.376 246.516 217.409 246.755C217.466 247.085 217.493 247.42 217.489 247.755V250.615Z" fill="#455A64"/>
<path d="M219.87 243.675C219.988 243.597 220.12 243.543 220.26 243.515C220.362 243.496 220.467 243.496 220.57 243.515C220.65 243.533 220.728 243.563 220.8 243.605C220.856 243.64 220.907 243.684 220.95 243.735V241.385C220.952 241.303 220.969 241.221 221 241.145C221.03 241.076 221.078 241.018 221.14 240.975L221.68 240.675C221.7 240.66 221.724 240.652 221.75 240.652C221.775 240.652 221.799 240.66 221.82 240.675C221.855 240.728 221.872 240.791 221.87 240.855V248.065C221.868 248.147 221.852 248.229 221.82 248.305C221.792 248.375 221.743 248.435 221.68 248.475L221.14 248.785C221.119 248.8 221.095 248.807 221.07 248.807C221.044 248.807 221.02 248.8 221 248.785C220.964 248.732 220.947 248.669 220.95 248.605V248.355L220.8 248.655C220.73 248.765 220.66 248.875 220.57 248.995C220.477 249.118 220.373 249.232 220.26 249.335C220.143 249.451 220.012 249.552 219.87 249.635C219.678 249.761 219.448 249.818 219.22 249.795C219.026 249.762 218.851 249.659 218.73 249.505C218.574 249.32 218.464 249.1 218.41 248.865C218.324 248.572 218.276 248.27 218.27 247.965V247.195C218.286 246.858 218.333 246.523 218.41 246.195C218.481 245.851 218.588 245.516 218.73 245.195C218.857 244.892 219.021 244.607 219.22 244.345C219.384 244.076 219.606 243.847 219.87 243.675ZM219.2 246.675C219.2 246.895 219.2 247.095 219.2 247.295C219.2 247.755 219.33 248.045 219.49 248.155C219.576 248.216 219.679 248.249 219.785 248.249C219.89 248.249 219.993 248.216 220.08 248.155C220.332 247.992 220.536 247.764 220.67 247.495C220.835 247.158 220.93 246.79 220.95 246.415C220.95 246.305 220.95 246.165 220.95 245.995C220.95 245.825 220.95 245.685 220.95 245.585C220.957 245.447 220.936 245.31 220.888 245.181C220.84 245.052 220.765 244.934 220.67 244.835C220.584 244.772 220.481 244.739 220.375 244.739C220.268 244.739 220.165 244.772 220.08 244.835C219.825 244.991 219.62 245.217 219.49 245.485C219.3 245.878 219.201 246.309 219.2 246.745V246.675Z" fill="#455A64"/>
<path d="M228 243.575L228.83 236.825C228.835 236.772 228.851 236.721 228.879 236.676C228.907 236.631 228.945 236.593 228.99 236.565L229.14 236.475C229.155 236.465 229.172 236.46 229.19 236.46C229.208 236.46 229.225 236.465 229.24 236.475C229.257 236.517 229.257 236.563 229.24 236.605C229.243 236.651 229.243 236.698 229.24 236.745L228.24 244.395C228.236 244.469 228.216 244.541 228.181 244.607C228.147 244.672 228.099 244.729 228.04 244.775L227.93 244.835C227.82 244.905 227.74 244.835 227.71 244.705L226.76 240.605L225.81 245.795C225.803 245.873 225.78 245.949 225.742 246.018C225.704 246.087 225.652 246.147 225.59 246.195L225.48 246.255C225.38 246.315 225.31 246.255 225.28 246.105L224.28 239.585C224.277 239.545 224.277 239.505 224.28 239.465C224.266 239.406 224.266 239.344 224.28 239.285C224.302 239.234 224.337 239.189 224.38 239.155L224.53 239.075C224.62 239.015 224.67 239.075 224.69 239.145L225.52 244.935L226.41 239.935C226.429 239.86 226.452 239.787 226.48 239.715C226.516 239.65 226.568 239.595 226.63 239.555L226.79 239.465C226.86 239.465 226.91 239.465 226.94 239.465C226.977 239.503 227.002 239.552 227.01 239.605L228 243.575Z" fill="#455A64"/>
<path d="M232.46 242.265C232.36 242.325 232.31 242.275 232.31 242.115V241.595C232.26 241.715 232.21 241.855 232.14 241.995C232.069 242.144 231.982 242.285 231.88 242.415C231.778 242.563 231.66 242.701 231.53 242.825C231.384 242.969 231.219 243.094 231.04 243.195C230.893 243.287 230.724 243.338 230.55 243.345C230.405 243.355 230.261 243.317 230.14 243.235C230.019 243.146 229.926 243.024 229.87 242.885C229.793 242.698 229.756 242.497 229.76 242.295C229.761 242.048 229.798 241.802 229.87 241.565C229.933 241.322 230.031 241.09 230.16 240.875C230.285 240.647 230.432 240.433 230.6 240.235C230.776 240.037 230.97 239.856 231.18 239.695L232.31 238.795V238.415C232.329 238.274 232.317 238.13 232.275 237.994C232.234 237.858 232.164 237.732 232.07 237.625C231.92 237.495 231.67 237.525 231.33 237.725C231.079 237.865 230.868 238.069 230.72 238.315C230.587 238.519 230.492 238.746 230.44 238.985C230.429 239.062 230.405 239.136 230.37 239.205C230.348 239.25 230.313 239.288 230.27 239.315L230.17 239.375C230.154 239.387 230.135 239.394 230.115 239.394C230.095 239.394 230.076 239.387 230.06 239.375C230.026 239.336 230.008 239.286 230.01 239.235C230.019 239.09 230.043 238.946 230.08 238.805C230.138 238.603 230.218 238.409 230.32 238.225C230.429 238.002 230.567 237.793 230.73 237.605C230.899 237.402 231.102 237.229 231.33 237.095C231.538 236.956 231.78 236.877 232.03 236.865C232.113 236.866 232.194 236.885 232.269 236.922C232.343 236.958 232.408 237.01 232.46 237.075C232.575 237.216 232.65 237.385 232.68 237.565C232.72 237.776 232.74 237.99 232.74 238.205V241.865C232.748 241.931 232.738 241.998 232.71 242.058C232.681 242.119 232.636 242.169 232.58 242.205L232.46 242.265ZM231.11 242.515C231.282 242.408 231.437 242.277 231.57 242.125C231.727 241.944 231.858 241.742 231.96 241.525C232.073 241.272 232.157 241.007 232.21 240.735C232.279 240.406 232.312 240.071 232.31 239.735V239.365L231.38 240.095C231.056 240.294 230.782 240.564 230.577 240.884C230.373 241.205 230.244 241.567 230.2 241.945C230.19 242.093 230.217 242.241 230.28 242.375C230.323 242.466 230.398 242.537 230.49 242.575C230.584 242.606 230.686 242.606 230.78 242.575C230.892 242.572 231.004 242.551 231.11 242.515Z" fill="#455A64"/>
<path d="M234.92 240.765C234.872 240.73 234.837 240.681 234.82 240.625L233.51 236.275C233.505 236.239 233.505 236.201 233.51 236.165C233.502 236.105 233.502 236.045 233.51 235.985C233.533 235.937 233.567 235.896 233.61 235.865L233.76 235.775C233.76 235.775 233.85 235.775 233.87 235.775C233.89 235.799 233.907 235.826 233.92 235.855L235.13 239.905L236.34 234.455C236.351 234.41 236.368 234.366 236.39 234.325C236.412 234.277 236.446 234.235 236.49 234.205L236.64 234.115C236.654 234.104 236.672 234.097 236.69 234.097C236.708 234.097 236.726 234.104 236.74 234.115C236.757 234.132 236.771 234.152 236.779 234.175C236.788 234.197 236.791 234.221 236.79 234.245C236.794 234.288 236.794 234.332 236.79 234.375L235.48 240.235C235.456 240.322 235.423 240.406 235.38 240.485C235.343 240.561 235.284 240.623 235.21 240.665L235.09 240.735C235.02 240.785 234.96 240.795 234.92 240.765Z" fill="#455A64"/>
<path d="M237.329 236.155C237.348 235.782 237.395 235.411 237.469 235.045C237.541 234.701 237.648 234.366 237.789 234.045C237.911 233.763 238.069 233.497 238.259 233.255C238.431 233.032 238.645 232.845 238.889 232.705C239.389 232.415 239.779 232.435 240.059 232.775C240.384 233.334 240.528 233.981 240.469 234.625V234.795C240.484 234.861 240.484 234.929 240.469 234.995C240.437 235.045 240.396 235.089 240.349 235.125L237.799 236.595V236.705C237.806 236.934 237.836 237.162 237.889 237.385C237.935 237.561 238.013 237.727 238.119 237.875C238.203 237.992 238.328 238.074 238.469 238.105C238.629 238.127 238.792 238.092 238.929 238.005C239.078 237.92 239.213 237.812 239.329 237.685C239.441 237.568 239.541 237.441 239.629 237.305C239.699 237.196 239.763 237.082 239.819 236.965L239.929 236.715C239.949 236.633 239.982 236.555 240.029 236.485C240.059 236.448 240.096 236.417 240.139 236.395L240.249 236.325C240.299 236.325 240.329 236.325 240.359 236.325C240.389 236.325 240.409 236.385 240.359 236.455C240.347 236.61 240.309 236.762 240.249 236.905C240.179 237.12 240.082 237.325 239.959 237.515C239.824 237.735 239.67 237.942 239.499 238.135C239.327 238.336 239.12 238.506 238.889 238.635C238.708 238.762 238.49 238.825 238.269 238.815C238.177 238.808 238.087 238.784 238.005 238.743C237.922 238.702 237.849 238.645 237.789 238.575C237.639 238.394 237.53 238.182 237.469 237.955C237.39 237.647 237.343 237.332 237.329 237.015C237.329 236.905 237.329 236.755 237.329 236.575C237.329 236.395 237.319 236.265 237.329 236.155ZM237.759 235.995L240.039 234.685C240.04 234.443 240.013 234.201 239.959 233.965C239.917 233.787 239.838 233.621 239.729 233.475C239.686 233.418 239.632 233.37 239.57 233.334C239.508 233.298 239.44 233.274 239.369 233.265C239.199 233.261 239.033 233.306 238.889 233.395C238.704 233.508 238.541 233.653 238.409 233.825C238.27 234.015 238.153 234.22 238.059 234.435C237.96 234.677 237.886 234.928 237.839 235.185C237.787 235.452 237.761 235.723 237.759 235.995Z" fill="#455A64"/>
<path d="M192.099 44.0448C191.948 43.9114 191.784 43.7941 191.609 43.6948L188.049 41.6248C186.569 40.6848 184.229 40.8948 182.139 41.9448C179.139 43.4548 176.659 46.6448 174.759 51.9448C174.759 51.9448 172.839 50.5648 172.209 50.2148C170.669 49.3748 168.869 49.7848 166.829 51.1048C164.498 52.673 162.665 54.8768 161.549 57.4548V57.5148C160.305 60.0029 159.622 62.7339 159.549 65.5148C159.549 71.6548 162.069 74.5848 165.329 76.7848C166.259 77.4048 168.729 78.7248 168.979 78.8948C170.951 80.199 173.133 81.153 175.429 81.7148L178.649 82.4648L181.869 77.9948C184.214 74.6844 186.361 71.2384 188.299 67.6748C191.569 61.6748 194.099 55.8548 194.079 49.7448C194.069 47.1148 193.319 45.1648 192.099 44.0448Z" fill="#D73E62"/>
<path opacity="0.05" d="M192.099 44.0448C191.948 43.9114 191.784 43.7941 191.609 43.6948L188.049 41.6248C186.569 40.6848 184.229 40.8948 182.139 41.9448C179.139 43.4548 176.659 46.6448 174.759 51.9448C174.759 51.9448 172.839 50.5648 172.209 50.2148C170.669 49.3748 168.869 49.7848 166.829 51.1048C164.498 52.673 162.665 54.8768 161.549 57.4548V57.5148C160.305 60.0029 159.622 62.7339 159.549 65.5148C159.549 71.6548 162.069 74.5848 165.329 76.7848C166.259 77.4048 168.729 78.7248 168.979 78.8948C170.951 80.199 173.133 81.153 175.429 81.7148L178.649 82.4648L181.869 77.9948C184.214 74.6844 186.361 71.2384 188.299 67.6748C191.569 61.6748 194.099 55.8548 194.079 49.7448C194.069 47.1148 193.319 45.1648 192.099 44.0448Z" fill="black"/>
<path d="M192.099 44.0448C191.948 43.9114 191.784 43.7941 191.609 43.6948L188.049 41.6248C186.569 40.6848 184.229 40.8948 182.139 41.9448C179.139 43.4548 176.659 46.6448 174.759 51.9448C174.759 51.9448 172.839 50.5648 172.209 50.2148C170.669 49.3748 168.869 49.7848 166.829 51.1048C164.498 52.673 162.665 54.8768 161.549 57.4548V57.5148C161.489 57.6448 161.439 57.7748 161.379 57.8948L185.829 72.0148C186.689 70.6048 187.539 69.1748 188.339 67.7048C191.609 61.7048 194.139 55.8848 194.119 49.7748C194.069 47.1148 193.319 45.1648 192.099 44.0448Z" fill="#D73E62"/>
<path opacity="0.4" d="M192.099 44.0448C191.948 43.9114 191.784 43.7941 191.609 43.6948L188.049 41.6248C186.569 40.6848 184.229 40.8948 182.139 41.9448C179.139 43.4548 176.659 46.6448 174.759 51.9448C174.759 51.9448 172.839 50.5648 172.209 50.2148C170.669 49.3748 168.869 49.7848 166.829 51.1048C164.498 52.673 162.665 54.8768 161.549 57.4548V57.5148C161.489 57.6448 161.439 57.7748 161.379 57.8948L185.829 72.0148C186.689 70.6048 187.539 69.1748 188.339 67.7048C191.609 61.7048 194.139 55.8848 194.119 49.7748C194.069 47.1148 193.319 45.1648 192.099 44.0448Z" fill="white"/>
<path d="M174.738 51.9149L178.018 56.1849L183.298 49.9349L177.298 46.4949C176.244 48.1994 175.385 50.0176 174.738 51.9149Z" fill="#D73E62"/>
<path opacity="0.05" d="M174.738 51.9149L178.018 56.1849L183.298 49.9349L177.298 46.4949C176.244 48.1994 175.385 50.0176 174.738 51.9149Z" fill="black"/>
<path d="M192.099 44.0447C190.679 42.7647 188.099 42.9047 185.779 44.0447C182.649 45.6247 180.059 49.0447 178.129 54.8447C176.199 51.2847 173.609 51.1747 170.479 53.2147C168.141 54.7749 166.307 56.981 165.199 59.5647C163.955 62.0528 163.272 64.7838 163.199 67.5647C163.199 73.7047 165.709 76.6247 168.979 78.8247C170.951 80.1289 173.133 81.0829 175.429 81.6447L178.649 82.3947L181.869 77.9247C184.212 74.637 186.359 71.2144 188.299 67.6747C191.569 61.6747 194.099 55.8547 194.079 49.7447C194.069 47.1147 193.319 45.1647 192.099 44.0447Z" fill="#D73E62"/>
<path opacity="0.2" d="M192.099 44.0447C190.679 42.7647 188.099 42.9047 185.779 44.0447C182.649 45.6247 180.059 49.0447 178.129 54.8447C176.199 51.2847 173.609 51.1747 170.479 53.2147C168.141 54.7749 166.307 56.981 165.199 59.5647C163.955 62.0528 163.272 64.7838 163.199 67.5647C163.199 73.7047 165.709 76.6247 168.979 78.8247C170.951 80.1289 173.133 81.0829 175.429 81.6447L178.649 82.3947L181.869 77.9247C184.212 74.637 186.359 71.2144 188.299 67.6747C191.569 61.6747 194.099 55.8547 194.079 49.7447C194.069 47.1147 193.319 45.1647 192.099 44.0447Z" fill="white"/>
<g opacity="0.07">
<path opacity="0.07" d="M189.349 43.4147C190.248 43.373 191.133 43.6571 191.839 44.2147V44.2747C193.039 45.3747 193.709 47.2747 193.719 49.7447C193.719 56.1247 190.829 62.3147 187.979 67.5247C186.034 71.0586 183.887 74.4775 181.549 77.7647L178.449 82.0647L175.449 81.3647C173.187 80.8039 171.037 79.864 169.089 78.5847C166.149 76.5847 163.429 73.9047 163.449 67.5847C163.517 64.8581 164.179 62.1792 165.389 59.7347V59.6747C166.508 57.1298 168.347 54.9677 170.679 53.4547C171.691 52.7008 172.9 52.2562 174.159 52.1747C175.639 52.1747 176.859 53.0847 177.889 54.9747C177.915 55.0237 177.954 55.0646 178.002 55.0929C178.049 55.1211 178.104 55.1356 178.159 55.1347C178.219 55.1277 178.276 55.1045 178.324 55.0675C178.371 55.0304 178.408 54.9811 178.429 54.9247C180.269 49.3947 182.729 45.9247 185.919 44.3047C186.985 43.7459 188.166 43.4413 189.369 43.4147H189.349ZM189.369 43.1047C188.118 43.1302 186.889 43.4451 185.779 44.0247C182.649 45.6047 180.059 49.0247 178.129 54.8247C177.009 52.7647 175.669 51.8247 174.129 51.8247C172.81 51.9139 171.543 52.3789 170.479 53.1647C168.141 54.7249 166.307 56.931 165.199 59.5147C163.955 62.0028 163.272 64.7338 163.199 67.5147C163.199 73.6547 165.709 76.5747 168.979 78.7747C170.951 80.0789 173.133 81.0329 175.429 81.5947L178.649 82.3447L181.869 77.8747C184.21 74.6032 186.357 71.1974 188.299 67.6747C191.569 61.6747 194.099 55.8547 194.079 49.7447C194.079 47.1147 193.319 45.1647 192.079 44.0447C191.312 43.4168 190.339 43.0961 189.349 43.1447L189.369 43.1047Z" fill="black"/>
</g>
<path d="M53.6797 136.704C53.7129 137.318 53.8905 137.915 54.1981 138.446C54.5057 138.978 54.9345 139.43 55.4497 139.764L55.9897 140.064C56.488 140.313 57.0327 140.455 57.5889 140.48C58.145 140.506 58.7005 140.416 59.2197 140.214C58.3897 140.524 57.7597 140.054 57.7597 139.044V115.614C57.7806 114.999 57.9597 114.4 58.2797 113.874L54.1997 111.524C53.8821 112.051 53.7032 112.65 53.6797 113.264V136.704Z" fill="#263238"/>
<path d="M131.64 71.1944C131.36 71.203 131.087 71.2858 130.85 71.4344L59.5198 112.554C58.9984 112.879 58.5709 113.334 58.2798 113.874C57.961 114.401 57.782 115 57.7598 115.614V139.044C57.7598 139.854 58.1498 140.314 58.7598 140.314C58.9064 140.31 59.0515 140.283 59.1898 140.234H59.2498C59.3577 140.195 59.4616 140.144 59.5598 140.084L107.56 112.404L113.43 109.004L131.07 98.8444C131.625 98.6015 132.084 98.1807 132.373 97.6484C132.663 97.1161 132.767 96.5025 132.67 95.9044V72.4344C132.669 72.266 132.649 72.0982 132.61 71.9344C132.574 71.7199 132.462 71.5253 132.296 71.3859C132.129 71.2465 131.917 71.1714 131.7 71.1744L131.64 71.1944Z" fill="#37474F"/>
<path d="M132.589 71.9544C132.379 71.2044 131.699 70.9544 130.879 71.4344L59.5192 112.554C58.9978 112.879 58.5703 113.334 58.2792 113.874L54.1992 111.534C54.4939 110.993 54.9248 110.538 55.4492 110.214L126.769 69.0944C127.317 68.8184 127.921 68.6746 128.534 68.6746C129.147 68.6746 129.752 68.8184 130.299 69.0944L130.849 69.3944C131.297 69.6815 131.682 70.0564 131.981 70.4964C132.28 70.9363 132.487 71.4323 132.589 71.9544Z" fill="#455A64"/>
<path d="M71.7397 124.644C70.9497 126.618 69.5477 128.286 67.7397 129.404C64.4097 131.324 62.6797 129.234 62.6797 124.734C62.6797 120.234 64.4797 115.914 67.7497 114.024C69.3997 113.074 70.6497 113.124 71.6897 114.184L70.4397 116.844C69.7497 115.924 68.9797 115.764 67.7697 116.464C65.4497 117.804 64.4597 120.684 64.4597 123.704C64.4597 126.724 65.3897 128.324 67.7497 126.954C69.0386 126.147 69.9963 124.906 70.4497 123.454L71.7397 124.644Z" fill="#BA68C8"/>
<path d="M77.5902 123.724C74.4102 125.564 72.7402 123.414 72.7402 118.934C72.7402 114.454 74.4102 110.184 77.5902 108.344C80.7702 106.504 82.4602 108.814 82.4602 113.344C82.4602 117.874 80.7802 121.904 77.5902 123.724ZM77.5902 110.784C75.4002 112.054 74.5002 114.854 74.5002 117.904C74.5002 120.954 75.4002 122.534 77.5902 121.274C79.7802 120.014 80.6702 117.274 80.6702 114.344C80.6702 111.414 79.8402 109.514 77.6402 110.784H77.5902Z" fill="#BA68C8"/>
<path d="M93.5298 99.3545L89.2298 116.834L87.6198 117.764L83.3398 105.234L85.2798 104.114L88.1398 112.764L88.4298 114.074L88.7198 112.424L91.5898 100.434L93.5298 99.3545Z" fill="#BA68C8"/>
<path d="M96.5896 112.584L94.8496 113.584V98.5845L96.5896 97.5845V112.584Z" fill="#BA68C8"/>
<path d="M102.869 108.964L98.8691 111.294V96.2944L102.869 93.9944C106.929 91.6444 107.639 95.2944 107.639 98.7444C107.639 102.194 106.889 106.634 102.869 108.964ZM102.689 96.5044L100.399 97.8244L100.569 97.9944V107.584L100.399 107.944L102.749 106.584C105.379 105.064 105.749 102.584 105.749 99.7644C105.749 96.9444 105.369 94.9644 102.689 96.5044Z" fill="#BA68C8"/>
<path d="M112.88 98.1844L108.59 100.644V98.2444L112.86 95.7744L112.88 98.1844Z" fill="#BA68C8"/>
<path d="M117.499 100.514L115.749 101.514V91.5144L115.859 89.8744L115.269 91.4444L114.589 92.8344L113.469 91.7044L116.009 86.3644L117.489 85.5144L117.499 100.514Z" fill="#BA68C8"/>
<path d="M123.33 97.3543C121.82 98.2243 120.75 98.2143 119.7 97.1143L120.95 94.4643C121.065 94.6637 121.222 94.8357 121.41 94.9686C121.598 95.1014 121.812 95.1919 122.039 95.2337C122.265 95.2755 122.497 95.2677 122.72 95.2109C122.943 95.154 123.151 95.0494 123.33 94.9043C124.7 94.1143 125.6 92.1343 125.83 89.6143C125.257 90.7593 124.396 91.7348 123.33 92.4443C120.71 93.9643 119.33 92.2643 119.33 89.4443C119.33 86.8143 120.64 83.4443 123.4 81.8743C126.16 80.3043 127.67 82.5943 127.62 87.0543C127.59 91.9543 125.83 95.9043 123.33 97.3543ZM123.42 84.3543C122.738 84.8126 122.174 85.4257 121.775 86.1435C121.375 86.8612 121.151 87.6633 121.12 88.4843C121.12 89.7243 121.77 90.9143 123.33 90.0143C124.015 89.5476 124.581 88.9258 124.98 88.1995C125.38 87.4732 125.602 86.6628 125.63 85.8343C125.64 84.5943 124.96 83.4343 123.42 84.3543Z" fill="#BA68C8"/>
<g opacity="0.2">
<path opacity="0.2" d="M71.7397 124.644C70.9497 126.618 69.5477 128.286 67.7397 129.404C64.4097 131.324 62.6797 129.234 62.6797 124.734C62.6797 120.234 64.4797 115.914 67.7497 114.024C69.3997 113.074 70.6497 113.124 71.6897 114.184L70.4397 116.844C69.7497 115.924 68.9797 115.764 67.7697 116.464C65.4497 117.804 64.4597 120.684 64.4597 123.704C64.4597 126.724 65.3897 128.324 67.7497 126.954C69.0386 126.147 69.9963 124.906 70.4497 123.454L71.7397 124.644Z" fill="white"/>
<path opacity="0.2" d="M77.5902 123.724C74.4102 125.564 72.7402 123.414 72.7402 118.934C72.7402 114.454 74.4102 110.184 77.5902 108.344C80.7702 106.504 82.4602 108.814 82.4602 113.344C82.4602 117.874 80.7802 121.904 77.5902 123.724ZM77.5902 110.784C75.4002 112.054 74.5002 114.854 74.5002 117.904C74.5002 120.954 75.4002 122.534 77.5902 121.274C79.7802 120.014 80.6702 117.274 80.6702 114.344C80.6702 111.414 79.8402 109.514 77.6402 110.784H77.5902Z" fill="white"/>
<path opacity="0.2" d="M93.5298 99.3542L89.2298 116.834L87.6198 117.764L83.3398 105.234L85.2798 104.114L88.1398 112.764L88.4298 114.074L88.7198 112.424L91.5898 100.434L93.5298 99.3542Z" fill="white"/>
<path opacity="0.2" d="M96.5896 112.584L94.8496 113.584V98.5842L96.5896 97.5842V112.584Z" fill="white"/>
<path opacity="0.2" d="M102.869 108.964L98.8691 111.294V96.2944L102.869 93.9944C106.929 91.6444 107.639 95.2944 107.639 98.7444C107.639 102.194 106.889 106.634 102.869 108.964ZM102.689 96.5044L100.399 97.8244L100.569 97.9944V107.584L100.399 107.944L102.749 106.584C105.379 105.064 105.749 102.584 105.749 99.7644C105.749 96.9444 105.369 94.9644 102.689 96.5044Z" fill="white"/>
<path opacity="0.2" d="M112.88 98.1844L108.59 100.644V98.2444L112.86 95.7744L112.88 98.1844Z" fill="white"/>
<path opacity="0.2" d="M117.499 100.514L115.749 101.514V91.5144L115.859 89.8744L115.269 91.4444L114.589 92.8344L113.469 91.7044L116.009 86.3644L117.489 85.5144L117.499 100.514Z" fill="white"/>
<path opacity="0.2" d="M123.33 97.3543C121.82 98.2243 120.75 98.2143 119.7 97.1143L120.95 94.4643C121.065 94.6637 121.222 94.8357 121.41 94.9686C121.598 95.1014 121.812 95.1919 122.039 95.2337C122.265 95.2755 122.497 95.2677 122.72 95.2109C122.943 95.154 123.151 95.0494 123.33 94.9043C124.7 94.1143 125.6 92.1343 125.83 89.6143C125.257 90.7593 124.396 91.7348 123.33 92.4443C120.71 93.9643 119.33 92.2643 119.33 89.4443C119.33 86.8143 120.64 83.4443 123.4 81.8743C126.16 80.3043 127.67 82.5943 127.62 87.0543C127.59 91.9543 125.83 95.9043 123.33 97.3543ZM123.42 84.3543C122.738 84.8126 122.174 85.4257 121.775 86.1435C121.375 86.8612 121.151 87.6633 121.12 88.4843C121.12 89.7243 121.77 90.9143 123.33 90.0143C124.015 89.5476 124.581 88.9258 124.98 88.1995C125.38 87.4732 125.602 86.6628 125.63 85.8343C125.64 84.5943 124.96 83.4343 123.42 84.3543Z" fill="white"/>
</g>
<path d="M212.02 62.8647V33.1147C212.045 32.7817 212.148 32.4594 212.322 32.1743C212.496 31.8892 212.735 31.6494 213.02 31.4747L263.14 2.57471C263.66 2.27471 264.09 2.51471 264.09 3.11471V32.8747C264.07 33.2019 263.974 33.5199 263.809 33.803C263.644 34.0862 263.415 34.3265 263.14 34.5047L213.02 63.4147C212.45 63.6747 212.02 63.4647 212.02 62.8647Z" fill="#37474F"/>
<path d="M264.02 2.94464C263.95 2.47464 263.56 2.30464 263.09 2.57464L212.97 31.4746C212.691 31.6523 212.461 31.8963 212.3 32.1846L208.18 29.7946C208.34 29.5232 208.563 29.2936 208.83 29.1246L258.96 0.22464C259.253 0.0769378 259.576 0 259.905 0C260.233 0 260.557 0.0769378 260.85 0.22464L263.09 1.50464C263.339 1.66432 263.55 1.87546 263.711 2.12385C263.871 2.37224 263.977 2.65212 264.02 2.94464Z" fill="#455A64"/>
<path d="M212.97 63.4146C212.676 63.5648 212.35 63.643 212.02 63.643C211.69 63.643 211.364 63.5648 211.07 63.4146L208.84 62.1246C208.552 61.959 208.309 61.7241 208.135 61.4413C207.96 61.1584 207.859 60.8365 207.84 60.5047V30.7646C207.845 30.4098 207.948 30.0634 208.14 29.7646L212.25 32.1547C212.079 32.4357 211.982 32.7559 211.97 33.0847V62.8347C212.02 63.4147 212.41 63.7346 212.97 63.4146Z" fill="#263238"/>
<path d="M207.89 43.7346L200.3 51.4546C200.212 51.5424 200.144 51.649 200.102 51.7665C200.061 51.884 200.046 52.0094 200.06 52.1333C200.073 52.2573 200.114 52.3766 200.18 52.4824C200.246 52.5882 200.335 52.6778 200.44 52.7446L204.55 55.1546L212.02 46.1546L207.89 43.7346Z" fill="#455A64"/>
<path d="M212.021 46.1646L204.431 53.8846C204.312 54.0106 204.234 54.1705 204.21 54.3423C204.185 54.514 204.214 54.6892 204.293 54.8438C204.372 54.9983 204.497 55.1246 204.65 55.2053C204.804 55.286 204.979 55.3172 205.151 55.2946L212.021 54.2946C212.761 54.3046 212.761 46.1646 212.021 46.1646Z" fill="#37474F"/>
<path d="M214.131 47.1647C214.054 47.1647 213.98 47.1395 213.919 47.0932C213.858 47.0469 213.814 46.9818 213.794 46.9081C213.774 46.8344 213.778 46.756 213.806 46.685C213.835 46.6139 213.885 46.5541 213.951 46.5147L217.231 44.6747C218.081 41.5247 218.431 41.3247 218.551 41.2547C218.611 41.2276 218.675 41.2136 218.741 41.2136C218.807 41.2136 218.871 41.2276 218.931 41.2547C219.321 41.3947 219.751 42.2547 220.091 43.0347L221.301 42.3047C221.36 42.2559 221.434 42.2293 221.511 42.2293C221.588 42.2293 221.662 42.2559 221.721 42.3047L222.541 43.0747L223.051 32.3547C223.056 32.2644 223.095 32.1794 223.16 32.1164C223.224 32.0534 223.311 32.0171 223.401 32.0147C223.49 32.0146 223.577 32.0487 223.642 32.1101C223.707 32.1714 223.746 32.2554 223.751 32.3447L224.411 42.2447L224.571 40.5747C224.58 40.5194 224.601 40.4667 224.632 40.4201C224.663 40.3735 224.703 40.3342 224.751 40.3047L228.751 38.0247C229.331 36.8747 231.031 33.5947 231.651 33.2447C232.271 32.8947 233.521 33.9747 234.281 34.8247L238.801 32.2047C239.151 31.1047 239.801 29.3647 240.231 29.0947C240.299 29.0604 240.375 29.0426 240.451 29.0426C240.527 29.0426 240.603 29.0604 240.671 29.0947C241.071 29.2447 241.431 29.9647 241.671 30.5647L243.001 29.7647C243.046 29.7426 243.096 29.7311 243.146 29.7311C243.196 29.7311 243.246 29.7426 243.291 29.7647C243.339 29.7828 243.382 29.8108 243.419 29.847C243.455 29.8833 243.483 29.9268 243.501 29.9747L243.891 30.9747L244.581 20.2447C244.586 20.1554 244.625 20.0714 244.69 20.0101C244.755 19.9487 244.842 19.9146 244.931 19.9147C245.018 19.9166 245.102 19.9501 245.166 20.0089C245.23 20.0678 245.271 20.148 245.281 20.2347L246.121 30.6747L246.461 27.8147C246.47 27.7608 246.491 27.7095 246.522 27.6645C246.553 27.6196 246.594 27.5821 246.641 27.5547L250.401 25.3847C251.041 24.2347 252.901 20.9047 253.521 20.5547C254.141 20.2047 255.381 21.2547 256.151 22.0647L257.011 21.5747L257.581 20.3247C257.62 20.2464 257.686 20.1849 257.767 20.1518C257.848 20.1186 257.938 20.1161 258.021 20.1447L258.911 20.4747L261.761 18.8247C261.801 18.8017 261.845 18.7869 261.891 18.781C261.937 18.7751 261.983 18.7782 262.028 18.7903C262.072 18.8024 262.114 18.8231 262.151 18.8513C262.187 18.8795 262.218 18.9147 262.241 18.9547C262.264 18.9948 262.279 19.039 262.285 19.0848C262.291 19.1306 262.287 19.1771 262.275 19.2216C262.263 19.2662 262.243 19.308 262.214 19.3445C262.186 19.3811 262.151 19.4117 262.111 19.4347L259.111 21.1547C259.065 21.1742 259.016 21.1843 258.966 21.1843C258.916 21.1843 258.867 21.1742 258.821 21.1547L258.071 20.8847L257.591 21.8847C257.558 21.9516 257.506 22.0073 257.441 22.0447L256.251 22.7347C256.18 22.7741 256.099 22.7887 256.019 22.776C255.939 22.7633 255.866 22.7241 255.811 22.6647C255.031 21.8047 254.061 21.0447 253.811 21.0947C252.719 22.5518 251.755 24.101 250.931 25.7247C250.898 25.7803 250.854 25.8281 250.801 25.8647L247.101 27.9947L246.361 34.0547C246.351 34.1404 246.31 34.2195 246.245 34.2767C246.181 34.3339 246.097 34.3653 246.011 34.3647C245.926 34.3605 245.844 34.3259 245.782 34.2673C245.72 34.2087 245.68 34.1298 245.671 34.0447L244.901 24.7547L244.411 32.2947C244.405 32.3725 244.372 32.4458 244.319 32.5031C244.266 32.5604 244.196 32.5984 244.119 32.6111C244.042 32.6237 243.963 32.6103 243.894 32.5729C243.826 32.5355 243.772 32.4763 243.741 32.4047L242.931 30.4047L241.591 31.2147C241.545 31.2392 241.493 31.252 241.441 31.252C241.389 31.252 241.337 31.2392 241.291 31.2147C241.242 31.1993 241.197 31.1721 241.16 31.1356C241.124 31.099 241.096 31.0541 241.081 31.0047C240.928 30.5172 240.71 30.0529 240.431 29.6247C239.994 30.5094 239.633 31.4293 239.351 32.3747C239.326 32.4568 239.273 32.5275 239.201 32.5747L234.321 35.4047C234.25 35.4448 234.167 35.4588 234.087 35.4442C234.006 35.4295 233.933 35.3873 233.881 35.3247C233.35 34.6308 232.665 34.0694 231.881 33.6847C230.855 35.1227 229.965 36.6526 229.221 38.2547C229.197 38.3189 229.151 38.3723 229.091 38.4047L225.191 40.6547L224.681 46.4947C224.671 46.5814 224.63 46.6616 224.566 46.7205C224.502 46.7793 224.418 46.8128 224.331 46.8147C224.243 46.8105 224.159 46.7749 224.095 46.7144C224.031 46.6539 223.99 46.5724 223.981 46.4847L223.451 38.4847L223.191 43.8647C223.188 43.9321 223.166 43.9972 223.127 44.0522C223.088 44.1072 223.034 44.1497 222.971 44.1747C222.909 44.1983 222.841 44.2043 222.776 44.1919C222.711 44.1796 222.65 44.1494 222.601 44.1047L221.421 42.9947L220.091 43.8147C220.047 43.84 219.998 43.8557 219.948 43.8607C219.897 43.8658 219.846 43.8601 219.798 43.844C219.75 43.828 219.705 43.8019 219.668 43.7676C219.631 43.7332 219.601 43.6914 219.581 43.6447C219.372 43.0783 219.111 42.5326 218.801 42.0147C218.426 42.9952 218.108 43.9969 217.851 45.0147C217.841 45.0593 217.822 45.1013 217.794 45.1376C217.767 45.1739 217.731 45.2036 217.691 45.2247L214.291 47.2247C214.233 47.2191 214.178 47.1984 214.131 47.1647Z" fill="#BA68C8"/>
<g opacity="0.2">
<path opacity="0.2" d="M214.131 47.1647C214.054 47.1647 213.98 47.1395 213.919 47.0932C213.858 47.0469 213.814 46.9818 213.794 46.9081C213.774 46.8344 213.778 46.756 213.806 46.685C213.835 46.6139 213.885 46.5541 213.951 46.5147L217.231 44.6747C218.081 41.5247 218.431 41.3247 218.551 41.2547C218.611 41.2276 218.675 41.2136 218.741 41.2136C218.807 41.2136 218.871 41.2276 218.931 41.2547C219.321 41.3947 219.751 42.2547 220.091 43.0347L221.301 42.3047C221.36 42.2559 221.434 42.2293 221.511 42.2293C221.588 42.2293 221.662 42.2559 221.721 42.3047L222.541 43.0747L223.051 32.3547C223.056 32.2644 223.095 32.1794 223.16 32.1164C223.224 32.0534 223.311 32.0171 223.401 32.0147C223.49 32.0146 223.577 32.0487 223.642 32.1101C223.707 32.1714 223.746 32.2554 223.751 32.3447L224.411 42.2447L224.571 40.5747C224.58 40.5194 224.601 40.4667 224.632 40.4201C224.663 40.3735 224.703 40.3342 224.751 40.3047L228.751 38.0247C229.331 36.8747 231.031 33.5947 231.651 33.2447C232.271 32.8947 233.521 33.9747 234.281 34.8247L238.801 32.2047C239.151 31.1047 239.801 29.3647 240.231 29.0947C240.299 29.0604 240.375 29.0426 240.451 29.0426C240.527 29.0426 240.603 29.0604 240.671 29.0947C241.071 29.2447 241.431 29.9647 241.671 30.5647L243.001 29.7647C243.046 29.7426 243.096 29.7311 243.146 29.7311C243.196 29.7311 243.246 29.7426 243.291 29.7647C243.339 29.7828 243.382 29.8108 243.419 29.847C243.455 29.8833 243.483 29.9268 243.501 29.9747L243.891 30.9747L244.581 20.2447C244.586 20.1554 244.625 20.0714 244.69 20.0101C244.755 19.9487 244.842 19.9146 244.931 19.9147C245.018 19.9166 245.102 19.9501 245.166 20.0089C245.23 20.0678 245.271 20.148 245.281 20.2347L246.121 30.6747L246.461 27.8147C246.47 27.7608 246.491 27.7095 246.522 27.6645C246.553 27.6196 246.594 27.5821 246.641 27.5547L250.401 25.3847C251.041 24.2347 252.901 20.9047 253.521 20.5547C254.141 20.2047 255.381 21.2547 256.151 22.0647L257.011 21.5747L257.581 20.3247C257.62 20.2464 257.686 20.1849 257.767 20.1518C257.848 20.1186 257.938 20.1161 258.021 20.1447L258.911 20.4747L261.761 18.8247C261.801 18.8017 261.845 18.7869 261.891 18.781C261.937 18.7751 261.983 18.7782 262.028 18.7903C262.072 18.8024 262.114 18.8231 262.151 18.8513C262.187 18.8795 262.218 18.9147 262.241 18.9547C262.264 18.9948 262.279 19.039 262.285 19.0848C262.291 19.1306 262.287 19.1771 262.275 19.2216C262.263 19.2662 262.243 19.308 262.214 19.3445C262.186 19.3811 262.151 19.4117 262.111 19.4347L259.111 21.1547C259.065 21.1742 259.016 21.1843 258.966 21.1843C258.916 21.1843 258.867 21.1742 258.821 21.1547L258.071 20.8847L257.591 21.8847C257.558 21.9516 257.506 22.0073 257.441 22.0447L256.251 22.7347C256.18 22.7741 256.099 22.7887 256.019 22.776C255.939 22.7633 255.866 22.7241 255.811 22.6647C255.031 21.8047 254.061 21.0447 253.811 21.0947C252.719 22.5518 251.755 24.101 250.931 25.7247C250.898 25.7803 250.854 25.8281 250.801 25.8647L247.101 27.9947L246.361 34.0547C246.351 34.1404 246.31 34.2195 246.245 34.2767C246.181 34.3339 246.097 34.3653 246.011 34.3647C245.926 34.3605 245.844 34.3259 245.782 34.2673C245.72 34.2087 245.68 34.1298 245.671 34.0447L244.901 24.7547L244.411 32.2947C244.405 32.3725 244.372 32.4458 244.319 32.5031C244.266 32.5604 244.196 32.5984 244.119 32.6111C244.042 32.6237 243.963 32.6103 243.894 32.5729C243.826 32.5355 243.772 32.4763 243.741 32.4047L242.931 30.4047L241.591 31.2147C241.545 31.2392 241.493 31.252 241.441 31.252C241.389 31.252 241.337 31.2392 241.291 31.2147C241.242 31.1993 241.197 31.1721 241.16 31.1356C241.124 31.099 241.096 31.0541 241.081 31.0047C240.928 30.5172 240.71 30.0529 240.431 29.6247C239.994 30.5094 239.633 31.4293 239.351 32.3747C239.326 32.4568 239.273 32.5275 239.201 32.5747L234.321 35.4047C234.25 35.4448 234.167 35.4588 234.087 35.4442C234.006 35.4295 233.933 35.3873 233.881 35.3247C233.35 34.6308 232.665 34.0694 231.881 33.6847C230.855 35.1227 229.965 36.6526 229.221 38.2547C229.197 38.3189 229.151 38.3723 229.091 38.4047L225.191 40.6547L224.681 46.4947C224.671 46.5814 224.63 46.6616 224.566 46.7205C224.502 46.7793 224.418 46.8128 224.331 46.8147C224.243 46.8105 224.159 46.7749 224.095 46.7144C224.031 46.6539 223.99 46.5724 223.981 46.4847L223.451 38.4847L223.191 43.8647C223.188 43.9321 223.166 43.9972 223.127 44.0522C223.088 44.1072 223.034 44.1497 222.971 44.1747C222.909 44.1983 222.841 44.2043 222.776 44.1919C222.711 44.1796 222.65 44.1494 222.601 44.1047L221.421 42.9947L220.091 43.8147C220.047 43.84 219.998 43.8557 219.948 43.8607C219.897 43.8658 219.846 43.8601 219.798 43.844C219.75 43.828 219.705 43.8019 219.668 43.7676C219.631 43.7332 219.601 43.6914 219.581 43.6447C219.372 43.0783 219.111 42.5326 218.801 42.0147C218.426 42.9952 218.108 43.9969 217.851 45.0147C217.841 45.0593 217.822 45.1013 217.794 45.1376C217.767 45.1739 217.731 45.2036 217.691 45.2247L214.291 47.2247C214.233 47.2191 214.178 47.1984 214.131 47.1647Z" fill="white"/>
</g>
<path d="M320.209 335.245C318.723 334.588 317.289 333.819 315.919 332.945C314.609 331.987 313.574 330.7 312.919 329.215C312.379 327.975 311.799 326.215 312.199 324.925C312.464 324.236 312.914 323.634 313.499 323.185C314.839 321.978 316.586 321.32 318.389 321.345C321.169 321.345 322.839 322.865 325.139 324.085C326.06 324.471 326.928 324.976 327.719 325.585C328.569 326.345 329.299 327.215 330.109 328.005C331.066 329.083 332.162 330.028 333.369 330.815C333.799 331.035 337.569 331.515 337.499 330.995C337.864 333.52 338.075 336.064 338.129 338.615C338.189 339.245 338.093 339.881 337.849 340.465C337.508 341.016 337.015 341.457 336.429 341.735C333.799 343.215 330.309 343.535 327.859 341.735C327.192 341.222 326.576 340.646 326.019 340.015C324.486 338.271 322.707 336.758 320.739 335.525L320.209 335.245Z" fill="#263238"/>
<path d="M305.47 353.405C306.009 355.191 306.456 357.003 306.81 358.835C307.17 360.835 307.68 364.205 306.95 365.695C306.22 367.185 303.46 368.095 299.22 367.965C296.48 367.875 292.16 369.645 289.22 371.215C286.28 372.785 279.85 373.365 276.66 372.915C273.47 372.465 269.2 370.755 267.46 367.915C267.115 367.394 266.9 366.798 266.832 366.177C266.764 365.556 266.846 364.928 267.07 364.345C267.498 363.491 268.203 362.807 269.07 362.405C269.934 362.015 270.84 361.723 271.77 361.535C275.55 360.748 279.259 359.651 282.86 358.255C285.366 357.257 287.625 355.725 289.48 353.765C289.776 353.371 290.155 353.047 290.59 352.815C290.91 352.697 291.249 352.643 291.59 352.655C292.713 352.615 293.837 352.675 294.95 352.835C296.011 353.078 297.086 353.251 298.17 353.355C300.57 353.405 303.02 353.405 305.47 353.405Z" fill="#263238"/>
<path d="M338.51 292.005C337.51 284.23 337.055 276.394 337.15 268.555C337.15 261.235 337.65 251.885 337.23 237.785C336.68 219.045 336.62 216.925 333.62 194.955C333.62 194.955 284.96 189.955 283.69 207.575C282.42 225.195 283.79 272.255 284.2 279.995C284.61 287.735 284.75 295.565 285.54 314.655C286.25 331.905 287.67 355.225 287.67 355.225C293.21 358.385 306.57 354.855 306.57 354.855C306.57 354.855 309.5 328.295 310.25 319.395C310.894 311.032 310.636 302.623 309.48 294.315L312.54 243.735C312.54 243.735 313.15 253.925 313.54 261.675C313.93 269.425 315.01 276.865 316.93 291.275C318.59 303.775 321.84 331.965 321.84 331.965C325.64 337.595 336.41 336.285 338.21 332.885C338.22 332.885 339.73 302.855 338.51 292.005Z" fill="#37474F"/>
<path d="M329.68 221.855C329.68 221.855 323.09 232.555 315.74 235.855C315.74 235.855 313.42 259.855 313.44 259.305L312.02 233.855C312.02 233.855 323.54 227.025 329.68 221.855Z" fill="#263238"/>
<path d="M303.139 132.275L304.949 148.385L320.159 147.615L318.469 128.825L303.139 132.275Z" fill="#693F27"/>
<path d="M323.578 138.395C330.428 137.225 335.038 138.685 338.418 143.915C341.898 149.305 346.418 163.455 349.258 172.115C352.048 180.485 353.438 185.415 348.618 188.815C345.618 190.965 334.788 195.025 334.788 195.025L323.578 138.395Z" fill="#6E7F88"/>
<path d="M335.448 146.795C334.278 142.365 328.708 137.545 323.158 138.455C321.868 138.655 320.618 138.875 319.388 139.085C318.728 141.795 311.308 143.495 304.208 141.825C300.089 143.2 296.046 144.795 292.098 146.605C287.228 148.865 284.098 149.555 282.558 169.185C281.018 188.815 280.218 212.185 280.998 249.185C293.588 254.495 308.838 254.395 316.268 253.585C334.948 251.585 339.798 244.525 339.798 244.525C339.798 244.525 336.118 209.525 335.998 192.145C335.878 174.765 339.008 160.195 335.448 146.795Z" fill="#E2E2E2"/>
<path d="M303.738 137.595L303.788 137.995C306.884 138.855 310.139 138.971 313.288 138.335C318.228 137.245 319.128 136.105 319.128 136.105L319.068 135.435C319.068 135.435 319.618 135.145 320.898 136.435C322.328 137.835 323.158 138.495 323.158 138.495C323.158 138.495 322.158 142.205 316.368 143.965C311.295 145.464 305.854 145.109 301.018 142.965L299.148 143.685C299.148 143.685 301.598 138.345 302.148 137.425C302.285 137.172 302.492 136.963 302.743 136.823C302.995 136.683 303.281 136.618 303.568 136.635L303.738 137.595Z" fill="#6E7F88"/>
<path d="M257.308 120.325L227.148 136.055L242.138 177.035L270.278 161.265L257.308 120.325Z" fill="#455A64"/>
<path d="M255.919 124.335L230.619 137.535L243.889 172.765L267.499 159.535L255.919 124.335Z" fill="white"/>
<path d="M234.339 139.785C234.271 139.788 234.203 139.77 234.144 139.735C234.086 139.699 234.039 139.647 234.009 139.585C233.963 139.497 233.952 139.395 233.98 139.299C234.008 139.204 234.073 139.123 234.159 139.075L254.679 128.365C254.723 128.341 254.771 128.326 254.821 128.321C254.871 128.316 254.921 128.321 254.968 128.336C255.016 128.351 255.06 128.375 255.098 128.408C255.136 128.44 255.167 128.48 255.189 128.525C255.213 128.568 255.228 128.615 255.233 128.664C255.238 128.713 255.233 128.763 255.218 128.81C255.203 128.856 255.178 128.9 255.146 128.937C255.113 128.974 255.074 129.004 255.029 129.025L234.499 139.745C234.45 139.772 234.395 139.785 234.339 139.785Z" fill="#E0E0E0"/>
<path d="M235.278 142.455C235.21 142.454 235.144 142.435 235.086 142.4C235.028 142.365 234.98 142.315 234.948 142.255C234.925 142.212 234.912 142.164 234.908 142.116C234.903 142.067 234.909 142.018 234.924 141.972C234.939 141.925 234.963 141.882 234.994 141.845C235.026 141.808 235.064 141.777 235.108 141.755L255.678 131.035C255.765 131 255.862 130.999 255.95 131.032C256.038 131.065 256.111 131.129 256.155 131.212C256.198 131.295 256.209 131.392 256.186 131.483C256.163 131.574 256.106 131.653 256.028 131.705L235.498 142.415C235.43 142.449 235.354 142.463 235.278 142.455Z" fill="#E0E0E0"/>
<path d="M236.229 145.135C236.146 145.133 236.066 145.104 236.001 145.052C235.936 145.001 235.89 144.929 235.869 144.848C235.849 144.768 235.855 144.683 235.888 144.606C235.92 144.53 235.977 144.466 236.049 144.425L256.579 133.675C256.667 133.628 256.769 133.618 256.865 133.646C256.96 133.674 257.041 133.738 257.089 133.825C257.132 133.914 257.14 134.017 257.11 134.112C257.081 134.206 257.016 134.286 256.929 134.335L236.399 145.045C236.352 145.091 236.293 145.122 236.229 145.135Z" fill="#E0E0E0"/>
<path d="M237.169 147.805C237.101 147.804 237.035 147.785 236.977 147.75C236.919 147.715 236.871 147.665 236.839 147.605C236.815 147.561 236.8 147.513 236.795 147.463C236.79 147.414 236.795 147.363 236.81 147.316C236.825 147.268 236.849 147.224 236.882 147.186C236.914 147.148 236.954 147.117 236.999 147.095L257.529 136.385C257.572 136.363 257.619 136.349 257.668 136.345C257.717 136.341 257.766 136.347 257.812 136.361C257.858 136.376 257.901 136.4 257.939 136.432C257.976 136.463 258.007 136.502 258.029 136.545C258.051 136.588 258.065 136.636 258.069 136.684C258.073 136.733 258.067 136.782 258.052 136.828C258.038 136.875 258.014 136.918 257.982 136.955C257.951 136.992 257.912 137.023 257.869 137.045L237.339 147.765C237.285 147.789 237.227 147.802 237.169 147.805Z" fill="#E0E0E0"/>
<path d="M238.119 150.475C238.05 150.476 237.981 150.458 237.921 150.423C237.861 150.387 237.812 150.336 237.779 150.275C237.736 150.186 237.728 150.083 237.758 149.988C237.788 149.893 237.853 149.814 237.939 149.765L258.469 139.055C258.558 139.009 258.662 139 258.757 139.03C258.853 139.06 258.932 139.126 258.979 139.215C259.023 139.304 259.03 139.407 259 139.502C258.971 139.596 258.906 139.676 258.819 139.725L238.289 150.435C238.236 150.461 238.178 150.475 238.119 150.475Z" fill="#E0E0E0"/>
<path d="M239.059 153.145C238.99 153.148 238.923 153.13 238.864 153.095C238.805 153.059 238.758 153.007 238.729 152.945C238.705 152.902 238.69 152.855 238.685 152.806C238.68 152.757 238.686 152.707 238.701 152.66C238.716 152.614 238.74 152.57 238.773 152.533C238.805 152.496 238.845 152.466 238.889 152.445L259.409 141.725C259.498 141.682 259.601 141.674 259.696 141.704C259.79 141.734 259.87 141.798 259.919 141.885C259.943 141.929 259.958 141.977 259.963 142.027C259.968 142.076 259.963 142.127 259.948 142.174C259.933 142.222 259.908 142.266 259.876 142.304C259.843 142.342 259.804 142.373 259.759 142.395L239.229 153.105C239.177 153.133 239.118 153.147 239.059 153.145Z" fill="#E0E0E0"/>
<path d="M239.998 155.825C239.93 155.822 239.865 155.802 239.807 155.767C239.749 155.732 239.702 155.683 239.668 155.625C239.625 155.536 239.617 155.433 239.647 155.338C239.677 155.243 239.741 155.164 239.828 155.115L260.358 144.405C260.401 144.381 260.448 144.366 260.497 144.361C260.546 144.357 260.596 144.362 260.643 144.377C260.689 144.392 260.733 144.416 260.77 144.449C260.807 144.481 260.837 144.521 260.858 144.565C260.882 144.607 260.898 144.654 260.903 144.703C260.909 144.751 260.904 144.8 260.89 144.847C260.876 144.894 260.853 144.937 260.821 144.975C260.79 145.012 260.751 145.043 260.708 145.065L240.178 155.775C240.123 155.805 240.061 155.822 239.998 155.825Z" fill="#E0E0E0"/>
<path d="M240.949 158.495C240.88 158.498 240.812 158.48 240.754 158.445C240.695 158.409 240.648 158.357 240.619 158.295C240.572 158.207 240.562 158.105 240.59 158.009C240.618 157.914 240.682 157.834 240.769 157.785L261.299 147.075C261.342 147.052 261.389 147.038 261.438 147.033C261.487 147.029 261.536 147.034 261.583 147.048C261.63 147.062 261.674 147.086 261.712 147.117C261.749 147.148 261.781 147.187 261.804 147.23C261.827 147.273 261.841 147.321 261.846 147.37C261.85 147.418 261.845 147.468 261.831 147.515C261.816 147.562 261.793 147.605 261.762 147.643C261.73 147.681 261.692 147.712 261.649 147.735L241.119 158.455C241.067 158.483 241.008 158.497 240.949 158.495Z" fill="#E0E0E0"/>
<path d="M241.889 161.165C241.821 161.164 241.755 161.145 241.697 161.11C241.639 161.075 241.591 161.025 241.559 160.965C241.535 160.922 241.52 160.874 241.515 160.826C241.511 160.777 241.516 160.727 241.531 160.68C241.546 160.633 241.57 160.59 241.603 160.553C241.635 160.516 241.675 160.486 241.719 160.465L262.249 149.745C262.335 149.716 262.429 149.72 262.513 149.755C262.597 149.789 262.666 149.853 262.707 149.934C262.748 150.015 262.759 150.108 262.737 150.196C262.715 150.284 262.663 150.362 262.589 150.415L242.069 161.125C242.013 161.152 241.951 161.166 241.889 161.165Z" fill="#E0E0E0"/>
<path d="M242.839 163.845C242.769 163.844 242.7 163.824 242.64 163.787C242.58 163.75 242.532 163.697 242.499 163.635C242.456 163.547 242.449 163.446 242.479 163.353C242.509 163.26 242.573 163.182 242.659 163.135L263.189 152.425C263.277 152.378 263.379 152.368 263.475 152.396C263.57 152.424 263.651 152.488 263.699 152.575C263.743 152.664 263.75 152.767 263.72 152.862C263.691 152.956 263.626 153.036 263.539 153.085L243.009 163.795C242.957 163.824 242.899 163.841 242.839 163.845Z" fill="#E0E0E0"/>
<path d="M243.778 166.515C243.71 166.516 243.643 166.498 243.584 166.463C243.526 166.427 243.479 166.376 243.448 166.315C243.424 166.271 243.409 166.223 243.404 166.173C243.399 166.124 243.404 166.073 243.419 166.026C243.434 165.978 243.459 165.934 243.491 165.896C243.524 165.858 243.563 165.827 243.608 165.805L264.128 155.095C264.172 155.071 264.22 155.056 264.27 155.051C264.32 155.046 264.37 155.051 264.417 155.066C264.465 155.081 264.509 155.105 264.547 155.138C264.585 155.17 264.616 155.21 264.638 155.255C264.662 155.298 264.677 155.345 264.682 155.394C264.687 155.443 264.681 155.493 264.666 155.54C264.651 155.586 264.627 155.63 264.595 155.667C264.562 155.704 264.523 155.734 264.478 155.755L243.948 166.475C243.895 166.499 243.837 166.512 243.778 166.515Z" fill="#E0E0E0"/>
<path d="M244.679 169.185C244.611 169.184 244.545 169.165 244.487 169.13C244.429 169.095 244.381 169.045 244.349 168.985C244.303 168.896 244.294 168.793 244.324 168.697C244.354 168.602 244.42 168.522 244.509 168.475L265.039 157.765C265.082 157.743 265.13 157.729 265.178 157.725C265.227 157.721 265.276 157.726 265.322 157.741C265.369 157.756 265.412 157.78 265.449 157.811C265.486 157.843 265.517 157.882 265.539 157.925C265.586 158.013 265.596 158.115 265.568 158.211C265.54 158.306 265.476 158.387 265.389 158.435L244.859 169.145C244.803 169.173 244.741 169.186 244.679 169.185Z" fill="#E0E0E0"/>
<path opacity="0.15" d="M250.588 128.135L250.098 126.885C249.828 126.185 247.718 126.605 245.388 127.805L240.938 130.105C238.608 131.305 236.938 132.835 237.218 133.535L237.698 134.785L250.588 128.135Z" fill="black"/>
<path d="M250.1 123.125C249.93 122.685 249.01 122.755 248.05 123.275L246.31 124.275C246.31 124.275 245.23 121.565 241.22 123.435C237.21 125.305 238.12 128.435 238.12 128.435L236.27 129.435C235.27 130.005 234.52 130.815 234.64 131.255L234.87 132.055L250.4 123.945L250.1 123.125Z" fill="#BA68C8"/>
<path opacity="0.4" d="M250.1 123.125C249.93 122.685 249.01 122.755 248.05 123.275L246.31 124.275C246.31 124.275 245.23 121.565 241.22 123.435C237.21 125.305 238.12 128.435 238.12 128.435L236.27 129.435C235.27 130.005 234.52 130.815 234.64 131.255L234.87 132.055L250.4 123.945L250.1 123.125Z" fill="white"/>
<path d="M248.419 124.935C246.979 125.645 246.419 125.995 246.819 127.055C247.299 128.275 247.739 129.155 247.739 129.155L240.869 132.745C240.869 132.745 240.299 131.195 240.049 130.605C239.799 130.015 239.289 129.715 238.199 130.285L237.789 129.855L248.679 124.335L248.419 124.935Z" fill="#BA68C8"/>
<path opacity="0.3" d="M248.419 124.935C246.979 125.645 246.419 125.995 246.819 127.055C247.299 128.275 247.739 129.155 247.739 129.155L240.869 132.745C240.869 132.745 240.299 131.195 240.049 130.605C239.799 130.015 239.289 129.715 238.199 130.285L237.789 129.855L248.679 124.335L248.419 124.935Z" fill="black"/>
<path d="M250.879 128.195L250.389 126.945C250.119 126.255 248.019 126.665 245.689 127.865L241.229 130.165C238.909 131.365 237.229 132.905 237.509 133.595L237.999 134.845L250.879 128.195Z" fill="#BA68C8"/>
<path d="M291.679 147.805C284.679 148.405 279.109 153.475 275.559 160.395C270.219 170.805 261.559 184.325 260.169 186.665C258.239 189.915 257.879 194.865 259.539 197.855C261.089 200.635 266.009 201.915 271.589 195.615C278.219 188.125 290.589 169.825 290.589 169.825C290.589 169.825 299.429 159.505 291.679 147.805Z" fill="#FFA8A7"/>
<path d="M236.149 155.585C236.149 155.585 236.149 155.485 236.149 155.445C236.049 154.219 236.079 152.985 236.239 151.765C236.283 151.298 236.43 150.846 236.668 150.441C236.907 150.037 237.231 149.69 237.619 149.425C238.079 149.155 238.859 149.055 239.199 149.565C239.398 149.951 239.495 150.381 239.479 150.815C239.521 151.582 239.655 152.34 239.879 153.075C240.137 153.716 240.434 154.34 240.769 154.945C241.122 155.755 241.348 156.615 241.439 157.495C241.539 158.305 241.609 159.115 241.739 159.915C241.989 161.445 242.079 163.125 242.999 164.435C244.379 166.435 261.409 181.325 261.409 181.325L262.409 199.995C257.079 199.345 244.749 184.325 240.589 179.245C237.227 175.168 233.549 171.363 229.589 167.865C228.209 166.595 225.069 161.015 224.869 158.105C224.639 154.665 226.329 152.105 227.869 149.055C228.156 148.439 228.619 147.921 229.198 147.565C229.778 147.21 230.449 147.032 231.129 147.055L232.639 151.155L234.399 155.985C234.729 156.285 234.929 156.575 235.399 156.595C235.525 156.611 235.654 156.59 235.769 156.535C236.129 156.355 236.169 155.945 236.149 155.585Z" fill="#693F27"/>
<path d="M292.1 146.605C281.2 149.495 281.22 150.885 277.29 155.985C273.36 161.085 261.42 179.675 261.42 179.675L252.42 172.765C252.42 172.765 246.05 179.155 245.02 186.605C245.02 186.605 248.69 190.605 253.68 195.435C257.68 199.275 261.99 201.875 265.4 200.615C268.81 199.355 270.84 196.505 279.4 187.265C288.33 177.595 292.4 172.685 292.4 172.685C292.4 172.685 299.98 155.985 292.1 146.605Z" fill="#6E7F88"/>
<path d="M293.268 111.205C291.285 113.437 289.696 115.99 288.568 118.755L292.288 119.965L293.268 111.205Z" fill="#612504"/>
<path d="M302.529 93.8949C297.689 95.7649 294.189 99.8949 292.759 105.525C292.109 108.075 292.989 109.715 292.339 113.835C290.679 124.335 291.429 127.065 294.559 132.315C295.869 133.315 301.979 133.685 305.149 132.805C309.149 131.715 318.089 128.535 322.289 122.115C327.229 114.565 326.769 101.535 321.479 97.3349C318.847 95.2469 315.741 93.8405 312.435 93.2405C309.13 92.6404 305.727 92.8652 302.529 93.8949Z" fill="#693F27"/>
<path d="M303.239 133.155L302.879 130.815C300.248 131.916 297.408 132.428 294.559 132.315C295.679 133.175 299.969 133.545 303.239 133.155Z" fill="#8D6249"/>
<path d="M290.1 110.795L303.76 112.565L303.21 113.525L290.1 111.825V110.795Z" fill="#E786D7"/>
<path d="M291.978 116.325C289.278 115.995 289.418 113.325 289.538 111.045C289.538 110.635 289.588 110.225 289.598 109.825H290.598C290.598 110.245 290.598 110.665 290.538 111.075C290.408 113.645 290.408 115.075 292.098 115.315L291.978 116.325Z" fill="#E786D7"/>
<path d="M298.769 103.865C298.335 104.251 298.051 104.779 297.969 105.355C297.639 107.355 298.969 109.055 300.339 110.355C301.109 111.135 300.759 112.125 301.109 113.025C301.209 113.265 302.699 114.905 302.759 114.675C302.759 114.675 303.979 109.955 307.949 110.545C311.919 111.135 312.489 116.245 309.949 119.345C307.409 122.445 305.109 121.265 305.079 121.255C305.309 121.365 305.389 122.865 305.469 123.155C305.718 124.045 306.053 124.909 306.469 125.735C307.333 127.394 308.564 128.834 310.069 129.945C312.149 131.485 314.689 132.575 317.279 131.945C317.857 131.804 318.42 131.606 318.959 131.355C323.239 129.355 325.689 123.835 326.849 119.515C328.169 114.605 328.709 110.745 327.559 105.785C327.319 104.705 326.349 101.845 324.669 102.395C324.829 102.905 324.949 103.325 324.949 103.325C323.669 104.481 322.145 105.333 320.489 105.815C317.228 106.595 313.83 106.595 310.569 105.815C307.299 105.165 304.099 104.155 300.819 103.545C300.314 103.415 299.784 103.415 299.279 103.545C299.091 103.621 298.919 103.729 298.769 103.865Z" fill="#E0E0E0"/>
<path d="M302.679 117.385L302.819 112.055C302.457 112.025 302.093 112.07 301.749 112.186C301.405 112.302 301.088 112.487 300.818 112.729C300.548 112.972 300.33 113.267 300.178 113.596C300.026 113.926 299.942 114.283 299.933 114.646C299.923 115.009 299.988 115.37 300.122 115.707C300.257 116.044 300.459 116.35 300.716 116.607C300.973 116.863 301.28 117.064 301.617 117.198C301.955 117.332 302.316 117.396 302.679 117.385Z" fill="#E0E0E0"/>
</svg>
