<svg width="245" height="245" viewBox="0 0 245 245" fill="none" xmlns="http://www.w3.org/2000/svg">
<path d="M215.747 50.2348C204.173 32.9721 184.534 20.6976 163.758 20.3791C142.982 20.0606 121.971 32.928 114.973 52.4986C111.543 62.034 111.45 72.4024 109.446 82.3298C107.442 92.2572 102.797 102.591 93.7123 107.075C81.4035 113.141 66.8113 106.207 53.1109 106.864C37.6024 107.604 23.5198 118.943 18.071 133.471C12.6222 148 15.2633 164.954 23.5835 178.061C31.9037 191.169 45.4277 200.532 60.1816 205.369C74.9355 210.205 109.706 213.018 125.092 210.95C132.349 210.651 139.542 209.463 146.51 207.412C167.668 201.125 184.891 190.561 199.209 175.709C216.276 157.996 226.919 134.319 229.305 109.838C231.28 89.1506 227.316 67.4975 215.747 50.2348Z" fill="#EBEBEB"/>
<path d="M230.677 227.247C230.677 227.321 182.24 227.375 122.504 227.375C62.7686 227.375 14.3223 227.321 14.3223 227.247C14.3223 227.174 62.749 227.12 122.504 227.12C182.26 227.12 230.677 227.179 230.677 227.247Z" fill="#263238"/>
<path d="M45.3928 214.522C45.8828 212.719 44.6725 210.911 43.3495 209.622C42.0265 208.334 40.4438 207.148 39.7529 205.418C38.6357 202.615 40.1351 198.989 38.2339 196.652C37.1118 195.28 35.1028 194.819 34.1081 193.349C33.6482 192.539 33.3441 191.65 33.2114 190.728C32.1541 186.073 29.8642 181.787 26.5817 178.321C26.3604 182.468 27.2592 186.597 29.1836 190.277C29.9529 191.747 30.9035 193.178 31.1436 194.819C31.5601 197.48 30.0705 200.209 30.7271 202.836C31.4768 205.825 34.8333 207.829 34.9901 210.906C35.1273 213.508 32.8586 215.806 33.0301 218.393C33.1675 219.501 33.5692 220.56 34.2012 221.48C36.2102 224.827 39.1698 227.13 43.6484 227.056L49.1364 227.248L45.3928 214.522Z" fill="#0669B7"/>
<g opacity="0.3">
<path opacity="0.3" d="M45.3928 214.522C45.8828 212.719 44.6725 210.911 43.3495 209.622C42.0265 208.334 40.4438 207.148 39.7529 205.418C38.6357 202.615 40.1351 198.989 38.2339 196.652C37.1118 195.28 35.1028 194.819 34.1081 193.349C33.6482 192.539 33.3441 191.65 33.2114 190.728C32.1541 186.073 29.8642 181.787 26.5817 178.321C26.3604 182.468 27.2592 186.597 29.1836 190.277C29.9529 191.747 30.9035 193.178 31.1436 194.819C31.5601 197.48 30.0705 200.209 30.7271 202.836C31.4768 205.825 34.8333 207.829 34.9901 210.906C35.1273 213.508 32.8586 215.806 33.0301 218.393C33.1675 219.501 33.5692 220.56 34.2012 221.48C36.2102 224.827 39.1698 227.13 43.6484 227.056L49.1364 227.248L45.3928 214.522Z" fill="black"/>
</g>
<path d="M50.2443 227.36C50.747 227.438 51.2592 227.428 51.7584 227.331C52.3646 227.238 52.9603 227.087 53.5371 226.88C54.3338 226.603 55.0789 226.195 55.7421 225.674C56.1412 225.354 56.4529 224.937 56.6486 224.464C56.8126 223.934 56.8984 223.383 56.9034 222.828C56.9145 222.234 56.9587 221.642 57.0357 221.054C57.139 220.427 57.3655 219.828 57.7021 219.29C58.3489 218.153 59.4269 217.075 59.7699 215.531C60.1129 213.988 59.8777 212.371 59.6229 210.725C59.3681 209.078 59.1329 207.295 59.7503 205.57C60.3677 203.845 61.5437 202.301 62.1464 200.371C62.7491 198.44 62.4649 196.314 62.5923 194.241C62.63 193.188 62.873 192.153 63.3077 191.193C63.7487 190.213 64.3661 189.307 64.8463 188.287C65.8263 186.22 65.9929 183.877 66.2575 181.579C66.3898 180.423 66.5172 179.252 66.6495 178.076C66.7329 176.887 66.9382 175.71 67.262 174.563C67.6338 173.406 68.0723 172.272 68.5752 171.167C68.8343 170.595 69.0473 170.004 69.2122 169.398C69.3046 168.771 69.3634 168.14 69.3886 167.507C69.4471 166.239 69.3979 164.968 69.2416 163.709C69.0946 162.445 68.8643 161.19 68.7271 159.921C68.7271 159.843 68.7271 159.769 68.7271 159.701L68.6977 159.451L68.4772 159.559C67.3187 160.153 66.3127 161.007 65.5372 162.053C64.7767 163.077 64.1647 164.204 63.7193 165.4C62.803 167.756 62.4747 170.226 62.0141 172.583C61.5535 174.94 60.9655 177.258 59.7601 179.218C59.1574 180.198 58.4273 181.089 57.8001 182.04C57.1191 182.968 56.6537 184.036 56.4379 185.166C56.1096 187.489 57.3885 189.527 57.1239 191.585C57.0046 192.593 56.6704 193.564 56.1439 194.432C55.6539 195.309 55.061 196.123 54.5024 196.936C53.9363 197.734 53.4442 198.582 53.0324 199.469C52.6449 200.338 52.4159 201.269 52.3562 202.218C52.2239 204.07 52.4836 205.825 52.3562 207.481C52.2032 209.059 51.7421 210.593 50.9989 211.994C50.3374 213.341 49.5975 214.561 48.9801 215.747C48.6714 216.335 48.3823 216.913 48.1471 217.496C47.9246 218.056 47.7604 218.637 47.6571 219.231C47.4931 220.267 47.4799 221.322 47.6179 222.362C47.7619 223.812 48.3046 225.195 49.1859 226.356C49.3207 226.531 49.4698 226.695 49.6318 226.846C49.7401 226.959 49.86 227.061 49.9895 227.149C50.1953 227.301 50.3031 227.37 50.3031 227.37C49.9114 227.06 49.5549 226.709 49.2398 226.321C48.3986 225.156 47.8904 223.784 47.7698 222.352C47.6451 221.325 47.6682 220.286 47.8384 219.265C47.9416 218.686 48.1059 218.119 48.3284 217.575C48.5767 216.985 48.8564 216.409 49.1663 215.85C49.7886 214.674 50.5334 213.459 51.2096 212.101C51.975 210.678 52.4513 209.118 52.611 207.51C52.758 205.82 52.5032 204.056 52.6404 202.252C52.7036 201.334 52.9275 200.433 53.3019 199.592C53.7163 198.723 54.2083 197.893 54.7719 197.112C55.3305 196.299 55.9234 195.486 56.433 194.589C56.9923 193.688 57.3501 192.677 57.4816 191.624C57.7462 189.434 56.4771 187.386 56.8054 185.225C57.0202 184.144 57.4702 183.124 58.1235 182.236C58.7458 181.3 59.4808 180.408 60.0835 179.404C61.333 177.39 61.9357 175.028 62.3914 172.661C62.8471 170.295 63.1852 167.845 64.0868 165.532C64.5205 164.369 65.116 163.274 65.8557 162.278C66.6017 161.274 67.5692 160.456 68.683 159.887L68.4331 159.745C68.4331 159.818 68.4331 159.892 68.4576 159.97C68.5948 161.254 68.8251 162.509 68.9476 163.763C69.1024 165.003 69.1499 166.254 69.0897 167.502C69.065 168.115 69.0094 168.727 68.9231 169.334C68.7648 169.92 68.5583 170.492 68.3057 171.044C67.8001 172.162 67.3584 173.307 66.9827 174.474C66.6562 175.639 66.4493 176.835 66.3653 178.042C66.2379 179.222 66.1056 180.394 65.9782 181.55C65.7136 183.858 65.5421 186.161 64.6062 188.155C64.1162 189.135 63.5282 190.071 63.0725 191.071C62.6241 192.066 62.3744 193.14 62.3375 194.231C62.215 196.348 62.4894 198.421 61.9161 200.292C61.3428 202.164 60.1521 203.722 59.5494 205.491C58.9467 207.26 59.1672 209.132 59.4318 210.774C59.6964 212.415 59.961 214.032 59.6082 215.487C59.2554 216.943 58.246 218.03 57.5894 219.197C57.2433 219.758 57.0118 220.383 56.9083 221.034C56.8343 221.629 56.7951 222.228 56.7907 222.828C56.7915 223.369 56.7123 223.907 56.5555 224.425C56.374 224.874 56.0825 225.27 55.7078 225.576C55.0624 226.097 54.3356 226.507 53.5567 226.792C52.9875 227.011 52.3984 227.175 51.7976 227.282C51.4305 227.348 51.0585 227.384 50.6853 227.389C50.3766 227.36 50.2443 227.36 50.2443 227.36Z" fill="#263238"/>
<path d="M67.5794 162.729C67.5533 162.782 67.5351 162.838 67.5255 162.896L67.4079 163.386C67.3001 163.822 67.1678 164.473 66.962 165.287C66.7562 166.1 66.2515 167.021 65.8252 168.153C65.326 169.428 64.8909 170.726 64.5218 172.044C64.1004 173.514 63.7329 175.131 63.3409 176.875C63.0078 178.733 62.4174 180.536 61.5867 182.231C61.1359 183.123 60.6067 184.024 60.2294 185.014C59.8338 186.025 59.5687 187.082 59.4405 188.16C59.1618 190.392 58.766 192.609 58.2547 194.799C57.1571 199.293 56.1085 203.575 55.153 207.476C54.1975 211.376 53.2959 214.865 52.5511 217.815C51.8063 220.765 51.2428 223.117 50.8312 224.797C50.6401 225.601 50.4882 226.233 50.3804 226.699C50.3363 226.899 50.2971 227.061 50.2677 227.189C50.2623 227.246 50.2623 227.303 50.2677 227.36C50.2962 227.309 50.3176 227.255 50.3314 227.198C50.3657 227.066 50.4147 226.909 50.4735 226.708C50.596 226.253 50.7675 225.621 50.988 224.822C51.429 223.156 52.0513 220.789 52.8206 217.874C53.5899 214.958 54.4866 211.43 55.4911 207.554C56.4956 203.678 57.5148 199.366 58.6222 194.868C59.1303 192.671 59.5163 190.448 59.7786 188.209C59.9038 187.157 60.1607 186.125 60.543 185.137C60.9301 184.157 61.425 183.28 61.8758 182.378C62.8558 180.59 63.2429 178.669 63.63 176.939C64.0171 175.209 64.3601 173.573 64.7619 172.113C65.1637 170.652 65.5851 169.349 66.0065 168.222C66.4279 167.095 66.8934 166.164 67.0943 165.321C67.2952 164.478 67.3883 163.851 67.4765 163.4C67.5092 163.198 67.5386 163.034 67.5647 162.91C67.5794 162.788 67.5892 162.729 67.5794 162.729Z" fill="#263238"/>
<path d="M51.2145 227.385C54.7964 225.253 55.8254 218.785 54.3309 214.895C52.8364 211.004 50.2198 207.447 49.818 203.296C49.5044 200.106 50.553 196.833 49.818 193.717C48.8135 189.508 44.7073 186.249 44.7563 181.922C44.7808 179.497 46.1626 177.214 46.0499 174.788C45.9176 171.819 43.6342 169.457 42.223 166.84C40.0572 162.827 39.9151 158.089 39.1752 153.61C38.4353 149.132 36.7252 144.3 32.7366 142.09C32.1486 145.907 31.1441 148.524 31.4577 153.694C31.5753 155.551 33.7313 159.084 34.0253 163.175C34.2017 165.625 34.3193 168.046 34.4712 170.476C34.6231 172.906 34.7701 175.258 35.6178 177.473C36.2695 179.174 37.3132 180.717 37.7983 182.471C38.7048 185.769 37.5092 189.331 38.2442 192.683C38.8665 195.515 40.8265 197.95 41.2283 200.822C41.7869 204.854 39.1801 209.049 40.5129 212.895C41.1793 214.806 42.7473 216.325 43.1932 218.31C43.5411 219.839 43.1638 221.461 43.4774 222.994C43.9674 225.474 48.7008 227.404 51.2243 227.243" fill="#0669B7"/>
<path d="M33.716 145.858C33.7093 145.93 33.7093 146.002 33.716 146.074C33.716 146.236 33.765 146.441 33.7944 146.701C33.8777 147.255 33.9708 148.063 34.157 149.112C34.3432 150.161 34.9018 151.346 35.333 152.777C35.7642 154.208 36.2444 155.845 36.6462 157.677C37.048 159.51 37.4008 161.553 37.7585 163.743C38.1162 165.934 38.5082 168.32 39.596 170.603C40.086 171.745 40.6642 172.892 41.066 174.117C41.4776 175.371 41.7311 176.671 41.8206 177.988C42.0209 180.781 42.3726 183.562 42.8741 186.318C43.9717 191.972 45.0154 197.357 45.966 202.262C46.9166 207.167 47.8721 211.543 48.6365 215.247C49.4009 218.952 50.0281 221.911 50.4642 223.999L50.9542 226.375C51.013 226.63 51.0571 226.831 51.0963 226.988C51.1095 227.06 51.1292 227.13 51.1551 227.198C51.1637 227.127 51.1637 227.054 51.1551 226.983C51.1257 226.821 51.0914 226.62 51.0473 226.36C50.9395 225.792 50.7876 224.988 50.5965 223.969C50.1849 221.877 49.6165 218.888 48.8766 215.198C48.1367 211.509 47.2596 207.084 46.2845 202.199C45.3094 197.313 44.3245 191.909 43.222 186.259C42.7201 183.503 42.3668 180.723 42.1636 177.929C42.0703 176.585 41.8085 175.258 41.3845 173.979C40.9484 172.735 40.3751 171.583 39.8704 170.447C38.7924 168.197 38.4004 165.85 38.028 163.67C37.6556 161.489 37.2979 159.441 36.8716 157.599C36.4453 155.756 35.9798 154.11 35.4996 152.699C35.0194 151.288 34.4853 150.092 34.2697 149.068C34.0541 148.044 33.9512 147.221 33.8483 146.677C33.7993 146.422 33.7601 146.216 33.7307 146.054C33.7296 145.989 33.7247 145.923 33.716 145.858Z" fill="#263238"/>
<path d="M71.0843 98.6762H99.3818C99.3818 98.6762 99.3818 74.9161 124.073 74.4947C136.896 74.2693 143.546 82.6728 146.25 89.1065C149.386 96.579 148.436 105.095 144.232 112.029C139.434 119.942 129.095 127.895 110.025 124.533L109.843 187.582H137.827V150.205C137.827 150.205 177.071 140.062 177.071 96.7946C177.071 55.4141 143.609 46.4765 125.621 45.8983C115.616 45.5798 111.99 45.1486 99.6121 46.9077C83.839 49.1617 70.7511 67.4779 71.0843 98.6762Z" fill="#0669B7"/>
<path d="M138.166 200.724H109.766V227.247H138.166V200.724Z" fill="#0669B7"/>
<path opacity="0.1" d="M138.166 200.724H109.766V227.247H138.166V200.724Z" fill="black"/>
<path opacity="0.1" d="M71.0843 98.6762H99.3818C99.3818 98.6762 99.3818 74.9161 124.073 74.4947C136.896 74.2693 143.546 82.6728 146.25 89.1065C149.386 96.579 148.436 105.095 144.232 112.029C139.434 119.942 129.095 127.895 110.025 124.533L109.843 187.582H137.827V150.205C137.827 150.205 177.071 140.062 177.071 96.7946C177.071 55.4141 143.609 46.4765 125.621 45.8983C115.616 45.5798 111.99 45.1486 99.6121 46.9077C83.839 49.1617 70.7511 67.4779 71.0843 98.6762Z" fill="black"/>
<path d="M59.3586 98.6762H87.661C87.661 98.6762 87.661 74.9161 112.352 74.4947C125.175 74.2693 131.825 82.6728 134.525 89.1065C137.666 96.579 136.715 105.095 132.511 112.029C127.714 119.942 117.193 127.135 98.1225 123.789V187.582H126.106V150.205C126.106 150.205 165.351 140.062 165.351 96.7946C165.351 55.4141 128.238 45.8052 112.357 45.8052C100.21 45.8199 58.8245 48.755 59.3586 98.6762Z" fill="#0669B7"/>
<path opacity="0.3" d="M59.3586 98.6762H87.661C87.661 98.6762 87.661 74.9161 112.352 74.4947C125.175 74.2693 131.825 82.6728 134.525 89.1065C137.666 96.579 136.715 105.095 132.511 112.029C127.714 119.942 117.193 127.135 98.1225 123.789V187.582H126.106V150.205C126.106 150.205 165.351 140.062 165.351 96.7946C165.351 55.4141 128.238 45.8052 112.357 45.8052C100.21 45.8199 58.8245 48.755 59.3586 98.6762Z" fill="black"/>
<path d="M126.443 200.724H98.043V227.247H126.443V200.724Z" fill="#0669B7"/>
<path opacity="0.3" d="M126.443 200.724H98.043V227.247H126.443V200.724Z" fill="black"/>
<path d="M115.546 74.6221C115.406 74.6342 115.265 74.6342 115.125 74.6221C114.846 74.6221 114.444 74.529 113.92 74.5241C112.437 74.4513 110.951 74.5136 109.48 74.7103C107.299 74.9865 105.152 75.4907 103.076 76.2146C101.852 76.6424 100.66 77.1566 99.5086 77.7532C98.2643 78.375 97.0926 79.1326 96.0149 80.0121C94.9447 80.8996 93.9855 81.913 93.1582 83.0305C92.3741 84.0637 91.6588 85.1473 91.0169 86.2743C89.9453 88.1938 89.0954 90.229 88.4836 92.3405C88.0688 93.7656 87.7835 95.2252 87.631 96.7015C87.5722 97.2209 87.5575 97.6325 87.5428 97.9069C87.5432 98.0483 87.53 98.1894 87.5036 98.3283C87.491 98.1881 87.491 98.0471 87.5036 97.9069C87.5036 97.6276 87.5036 97.216 87.5477 96.6917C87.6604 95.1995 87.9214 93.7222 88.3268 92.2817C88.9161 90.1458 89.7549 88.0867 90.8258 86.1469C91.469 85.0075 92.1876 83.9123 92.9769 82.8688C93.8111 81.7331 94.7821 80.7045 95.8679 79.8063C96.9587 78.9147 98.1453 78.1472 99.4057 77.518C100.564 76.9104 101.764 76.3864 102.997 75.95C105.093 75.2288 107.26 74.736 109.461 74.48C110.941 74.2981 112.437 74.2636 113.924 74.3771C114.329 74.403 114.731 74.452 115.13 74.5241C115.271 74.547 115.41 74.5797 115.546 74.6221Z" fill="#263238"/>
<path d="M158.186 69.5801C158.186 69.5801 158.152 69.5458 158.093 69.4723C158.034 69.3988 157.946 69.2714 157.848 69.1293L156.912 67.8063C156.711 67.5221 156.496 67.1938 156.241 66.8557L155.359 65.7826L154.35 64.5429C153.982 64.1117 153.551 63.6952 153.12 63.2395C152.688 62.7838 152.247 62.2987 151.748 61.8332C151.248 61.3677 150.714 60.8924 150.165 60.4024C149.891 60.1574 149.621 59.9124 149.327 59.6527L148.416 58.9324C147.793 58.4424 147.176 57.9524 146.505 57.4624C143.579 55.3689 140.475 53.5358 137.229 51.9842L134.647 50.818L132.084 49.838C131.246 49.4901 130.393 49.2451 129.57 48.9707C128.747 48.6963 127.943 48.417 127.12 48.2259L124.778 47.6134C124.019 47.4125 123.264 47.29 122.544 47.1234C121.823 46.9568 121.128 46.8098 120.446 46.7265L118.486 46.4423C117.247 46.2316 116.11 46.1874 115.12 46.0894C114.63 46.0502 114.14 45.9964 113.733 45.9768L112.567 45.9473L110.95 45.8935H110.529H110.387C110.434 45.8861 110.482 45.8861 110.529 45.8935H110.95H112.567H113.738C114.165 45.8935 114.63 45.9522 115.13 45.9865C116.11 46.0698 117.266 46.1042 118.506 46.3051L120.466 46.5697C121.147 46.6481 121.843 46.8245 122.568 46.9568C123.293 47.0891 124.038 47.2263 124.817 47.4468L127.169 48.0544C127.983 48.2406 128.786 48.5444 129.619 48.7943C130.452 49.0442 131.3 49.2843 132.138 49.6567L134.715 50.6367L137.312 51.8078C140.575 53.363 143.691 55.2096 146.622 57.3252C147.298 57.8152 147.916 58.3395 148.538 58.8246L149.45 59.4861C149.744 59.7311 150.013 59.9761 150.287 60.2407L151.865 61.7107C152.355 62.2007 152.796 62.6907 153.232 63.1366C153.668 63.5825 154.085 64.0186 154.452 64.4547L155.432 65.7042L156.305 66.792C156.555 67.135 156.765 67.4682 156.961 67.772C157.343 68.3453 157.642 68.7961 157.853 69.1195L158.083 69.4772C158.122 69.5069 158.156 69.5415 158.186 69.5801Z" fill="#263238"/>
<path d="M155.237 130.34C155.178 130.446 155.108 130.545 155.026 130.634L154.35 131.433C154.07 131.79 153.718 132.217 153.281 132.692C152.845 133.167 152.38 133.726 151.811 134.304C151.243 134.882 150.635 135.529 149.945 136.181C149.254 136.832 148.504 137.518 147.705 138.234C144.202 141.291 140.362 143.94 136.259 146.128C135.308 146.618 134.412 147.108 133.544 147.485C132.677 147.862 131.868 148.249 131.124 148.563C130.379 148.877 129.693 149.136 129.095 149.367C128.497 149.597 127.973 149.783 127.542 149.92L126.562 150.239C126.448 150.284 126.33 150.317 126.209 150.337C126.315 150.276 126.426 150.227 126.542 150.19L127.522 149.827C127.948 149.675 128.463 149.479 129.056 149.234C129.649 148.989 130.335 148.744 131.07 148.396C131.805 148.048 132.618 147.72 133.466 147.294C134.314 146.868 135.22 146.417 136.166 145.922C138.033 144.893 140.047 143.687 142.08 142.296C144.114 140.904 145.941 139.439 147.568 138.057C148.367 137.352 149.131 136.69 149.812 136.024C150.493 135.357 151.13 134.755 151.694 134.177C152.257 133.598 152.752 133.064 153.193 132.594C153.634 132.123 153.997 131.712 154.291 131.369L154.977 130.59C155.057 130.5 155.143 130.416 155.237 130.34Z" fill="#263238"/>
<path d="M125.611 185.357C125.537 185.357 125.479 177.488 125.479 167.781C125.479 158.074 125.537 150.2 125.611 150.2C125.684 150.2 125.738 158.069 125.738 167.781C125.738 177.493 125.679 185.357 125.611 185.357Z" fill="#263238"/>
<path d="M126.69 225.449C126.616 225.449 126.562 219.927 126.562 213.116C126.562 206.305 126.616 200.778 126.69 200.778C126.763 200.778 126.817 206.3 126.817 213.116C126.817 219.932 126.758 225.449 126.69 225.449Z" fill="#263238"/>
<path d="M154.547 94.9177C154.057 95.8977 155.884 96.7013 156.938 97.0198C158.013 97.2836 159.125 97.3599 160.226 97.2452C161.696 97.1668 163.2 97.0296 164.469 96.3044C165.581 95.6159 166.469 94.6203 167.027 93.4379C167.577 92.2593 168.012 91.0302 168.325 89.7678C168.325 89.7678 156.747 90.5224 154.547 94.9177Z" fill="#0669B7"/>
<g opacity="0.4">
<path opacity="0.4" d="M154.547 94.9177C154.057 95.8977 155.884 96.7013 156.938 97.0198C158.013 97.2836 159.125 97.3599 160.226 97.2452C161.696 97.1668 163.2 97.0296 164.469 96.3044C165.581 95.6159 166.469 94.6203 167.027 93.4379C167.577 92.2593 168.012 91.0302 168.325 89.7678C168.325 89.7678 156.747 90.5224 154.547 94.9177Z" fill="black"/>
</g>
<path d="M187.249 91.7818C189.158 93.1357 191.445 93.8525 193.785 93.83C194.907 93.8925 196.013 93.5441 196.897 92.85C197.274 92.5021 197.558 92.0611 197.945 91.7279C198.21 91.5025 198.519 91.331 198.769 91.0909C198.901 90.9773 199.002 90.8328 199.065 90.6704C199.127 90.5079 199.148 90.3325 199.126 90.1599C199.03 89.7343 198.791 89.3542 198.45 89.0819C197.122 88.3273 195.535 88.3567 194.006 88.391C192.476 88.4572 190.964 88.7529 189.522 89.2681C188.337 89.6699 187.097 90.2481 186.494 91.3261" fill="#0669B7"/>
<g opacity="0.4">
<path opacity="0.4" d="M199.126 90.1598C198.953 89.7465 198.648 89.402 198.259 89.1798C196.931 88.4252 195.535 88.3566 194.006 88.3909C192.476 88.4572 190.964 88.7528 189.522 89.268C188.337 89.6698 187.097 90.248 186.494 91.326L187.249 91.7817C189.158 93.1357 191.445 93.8525 193.785 93.8299C194.907 93.8924 196.013 93.544 196.897 92.8499C197.274 92.502 197.558 92.061 197.945 91.7278C198.21 91.5024 198.519 91.3309 198.769 91.0908C198.901 90.9773 199.002 90.8328 199.065 90.6703C199.127 90.5079 199.148 90.3325 199.126 90.1598Z" fill="black"/>
</g>
<path d="M164.641 109.368L189.068 109.691C189.117 109.691 189.166 109.679 189.211 109.657C189.255 109.634 189.293 109.602 189.323 109.562C189.353 109.522 189.372 109.476 189.381 109.427C189.389 109.378 189.386 109.327 189.371 109.28L186.505 100.342C186.505 100.342 186.926 95.8733 187.509 90.5029C188.396 82.3444 189.577 72.0887 189.592 72.1181C187.921 67.4337 178.062 66.6399 178.062 66.6399L166.826 67.3063L166.434 66.6448L163.2 68.1491C162.495 68.4772 161.817 68.8606 161.172 69.2957C159.035 70.7216 153.89 73.9997 152.95 77.6502C150.779 86.1027 154.454 95.5352 154.454 95.5352L156.816 93.6879C157.411 93.2295 158.036 92.812 158.688 92.4384L163.421 105.124C163.139 105.302 162.901 105.54 162.723 105.822C162.545 106.103 162.432 106.421 162.392 106.751C162.353 107.78 162.882 109.015 164.641 109.368Z" fill="#0669B7"/>
<g opacity="0.3">
<path opacity="0.3" d="M175.122 94.4131C175.896 90.2481 175.49 85.9655 175.073 81.7515C173.721 85.1815 173.77 89.1015 172.334 92.5021C172.158 92.8612 172.03 93.2417 171.952 93.634C171.915 93.831 171.924 94.034 171.981 94.2265C172.037 94.419 172.138 94.5955 172.275 94.7414C172.667 95.0991 173.255 94.9031 173.775 94.8443C174.24 94.7556 174.692 94.6108 175.122 94.4131Z" fill="black"/>
</g>
<g opacity="0.4">
<path opacity="0.4" d="M166.111 104.056C168.071 104.737 170.159 103.468 172.232 103.243C173.604 103.096 174.976 103.409 176.338 103.63C179.092 104.076 181.895 104.145 184.668 103.836C185.093 103.812 185.51 103.704 185.893 103.517C186.091 103.382 186.253 103.201 186.364 102.989C186.476 102.777 186.535 102.542 186.535 102.302C181.919 101.812 177.308 101.547 172.692 101.072C171.543 100.876 170.366 100.914 169.233 101.185C167.841 101.616 166.783 102.709 165.803 103.792" fill="black"/>
</g>
<path d="M198.421 88.5528C196.427 84.0595 189.395 71.6331 189.395 71.6331L183.951 78.4588L185.22 91.8603C185.22 91.8603 188.097 88.6508 196.137 88.5871C196.722 88.6104 197.294 88.7643 197.811 89.0373C198.328 89.3103 198.777 89.6956 199.126 90.1649L198.421 88.5528Z" fill="#0669B7"/>
<path d="M165.734 86.1763C165.346 85.2237 165.038 84.2403 164.813 83.2363C164.509 82.2585 164.286 81.2571 164.146 80.2424C164.529 81.1967 164.836 82.1797 165.063 83.1824C165.367 84.1606 165.592 85.1619 165.734 86.1763Z" fill="#263238"/>
<path d="M183.541 77.5522C183.718 77.6775 183.882 77.8203 184.031 77.9785C184.463 78.3966 184.869 78.8418 185.246 79.3113C186.513 80.8601 187.403 82.6816 187.848 84.6327C188.078 85.7113 188.13 86.8205 188 87.9157C187.877 88.9202 187.686 89.8022 187.559 90.547C187.431 91.2918 187.353 91.8994 187.314 92.3208C187.313 92.5398 187.29 92.7581 187.245 92.9725C187.21 92.7539 187.2 92.5319 187.216 92.311C187.237 91.7106 187.293 91.1118 187.382 90.5176C187.485 89.7679 187.657 88.8761 187.769 87.8912C187.883 86.8207 187.825 85.739 187.598 84.6866C187.159 82.772 186.308 80.9761 185.104 79.424C184.207 78.2186 183.501 77.5914 183.541 77.5522Z" fill="#263238"/>
<path d="M178.553 108.29C178.382 108.366 178.203 108.419 178.019 108.447C177.809 108.502 177.596 108.543 177.382 108.569C177.132 108.604 176.848 108.658 176.529 108.672C175.783 108.741 175.031 108.741 174.285 108.672C173.371 108.578 172.469 108.398 171.59 108.133C170.715 107.852 169.869 107.489 169.061 107.05C168.407 106.685 167.786 106.264 167.204 105.791C166.95 105.595 166.744 105.389 166.558 105.218C166.397 105.073 166.245 104.919 166.102 104.757C165.966 104.631 165.848 104.486 165.754 104.326C165.788 104.292 166.313 104.88 167.317 105.649C167.904 106.095 168.525 106.495 169.174 106.844C169.972 107.264 170.805 107.613 171.663 107.888C172.527 108.149 173.413 108.332 174.309 108.437C175.042 108.516 175.779 108.539 176.514 108.506C177.774 108.437 178.543 108.251 178.553 108.29Z" fill="#263238"/>
<path d="M186.094 105.507C186.209 105.728 186.275 105.972 186.285 106.222C186.363 106.819 186.318 107.426 186.153 108.006C185.985 108.598 185.643 109.127 185.173 109.525C184.815 109.823 184.541 109.917 184.526 109.892C184.511 109.868 184.742 109.706 185.05 109.402C185.447 108.989 185.735 108.484 185.888 107.932C186.28 106.638 186.001 105.511 186.094 105.507Z" fill="#263238"/>
<path d="M184.766 107.231C184.872 107.735 184.83 108.259 184.643 108.74C184.457 109.22 184.136 109.636 183.717 109.936C183.663 109.882 184.119 109.397 184.403 108.648C184.687 107.898 184.692 107.236 184.766 107.231Z" fill="#263238"/>
<path d="M180.394 91.1106C180.134 91.5495 179.843 91.9688 179.522 92.365C179.268 92.8076 178.982 93.2302 178.664 93.6292C178.758 93.1121 178.981 92.6269 179.311 92.218C179.572 91.763 179.945 91.3819 180.394 91.1106Z" fill="#263238"/>
<path d="M163.627 79.2427C163.254 79.0234 162.892 78.7846 162.544 78.5272C160.802 77.3824 158.824 76.6439 156.757 76.3664C156.325 76.3348 155.895 76.2776 155.469 76.1949C155.903 76.1349 156.343 76.1349 156.777 76.1949C158.9 76.376 160.933 77.1333 162.657 78.3852C163.019 78.6246 163.345 78.9132 163.627 79.2427Z" fill="#263238"/>
<path d="M189.395 71.4712C188.518 72.1774 187.699 72.9524 186.945 73.7889C186.251 74.6816 185.63 75.6287 185.088 76.6211C185.146 76.2874 185.26 75.9659 185.426 75.6705C185.781 74.9358 186.225 74.2478 186.749 73.6223C187.274 72.9981 187.877 72.4432 188.542 71.971C188.796 71.7565 189.084 71.5874 189.395 71.4712Z" fill="#263238"/>
<path d="M179.311 67.4336C179.356 67.5043 179.392 67.5799 179.419 67.659C179.514 67.8809 179.591 68.1104 179.649 68.345C179.856 69.2182 179.856 70.1276 179.649 71.0008C179.344 72.3043 178.646 73.4828 177.65 74.3769C176.392 75.4423 174.79 76.0136 173.142 75.9841C171.493 75.9898 169.885 75.4621 168.56 74.4798C167.505 73.6737 166.648 72.636 166.057 71.4467C165.658 70.6503 165.377 69.8003 165.224 68.9232C165.179 68.6869 165.149 68.4479 165.135 68.2078C165.122 68.1234 165.122 68.0374 165.135 67.953C165.135 67.953 165.189 68.296 165.326 68.9036C165.517 69.7559 165.818 70.5796 166.223 71.3536C166.821 72.5071 167.67 73.5118 168.707 74.2936C169.984 75.2391 171.529 75.7539 173.117 75.7636C174.706 75.7928 176.252 75.2502 177.474 74.2348C178.436 73.3735 179.119 72.2437 179.434 70.991C179.652 70.1454 179.682 69.2623 179.522 68.4038C179.429 67.757 179.282 67.4434 179.311 67.4336Z" fill="#263238"/>
<g opacity="0.3">
<path opacity="0.3" d="M181.026 91.9778C181.026 91.7328 180.987 91.4437 180.771 91.3212C180.703 91.2867 180.627 91.2688 180.551 91.2688C180.474 91.2688 180.398 91.2867 180.33 91.3212C180.193 91.3953 180.072 91.4951 179.972 91.6152C179.396 92.2147 178.951 92.9271 178.664 93.7075L181.065 93.4968C181.05 93.0019 181.041 92.4825 181.026 91.9778Z" fill="black"/>
</g>
<g opacity="0.3">
<path opacity="0.3" d="M188.998 86.9259C188.757 85.552 188.155 84.2668 187.254 83.2019C188.293 86.5927 187.945 88.5086 187.362 90.8312L187.489 90.5078C188.16 89.1505 189.18 88.2979 188.998 86.9259Z" fill="black"/>
</g>
<path d="M184.202 200.831L182.737 222.808L173.182 222.695L171.678 199.846L184.202 200.831Z" fill="#FFBE9D"/>
<path d="M183.006 219.917V220.554C183.006 220.554 193.786 224.885 193.889 226.924L172.48 226.806L172.814 219.687C176.004 221.181 179.34 221.367 183.006 219.917Z" fill="#0669B7"/>
<path d="M174.985 221.97C174.782 222.031 174.608 222.165 174.496 222.345C174.384 222.526 174.342 222.741 174.377 222.95C174.43 223.159 174.561 223.34 174.744 223.454C174.927 223.568 175.147 223.607 175.357 223.563C175.575 223.497 175.761 223.353 175.879 223.159C175.997 222.964 176.038 222.732 175.994 222.509C175.917 222.297 175.76 222.124 175.557 222.026C175.354 221.929 175.121 221.914 174.907 221.985" fill="white"/>
<path d="M172.48 226.806L172.559 225.096L193.06 225.841C193.06 225.841 194.011 226.262 193.898 226.929L172.48 226.806Z" fill="#263238"/>
<path d="M183.084 220.613C183.084 220.716 182.555 220.76 182.041 221.103C181.526 221.446 181.247 221.872 181.154 221.833C181.061 221.794 181.217 221.186 181.849 220.794C182.482 220.402 183.109 220.5 183.084 220.613Z" fill="#263238"/>
<path d="M185.324 221.554C185.349 221.656 184.893 221.828 184.535 222.269C184.177 222.71 184.075 223.175 183.967 223.171C183.859 223.166 183.8 222.573 184.256 222.039C184.712 221.505 185.319 221.48 185.324 221.554Z" fill="#263238"/>
<path d="M186.582 224.248C186.484 224.248 186.342 223.758 186.617 223.175C186.891 222.592 187.376 222.381 187.42 222.465C187.464 222.548 187.16 222.857 186.93 223.332C186.7 223.807 186.69 224.239 186.582 224.248Z" fill="#263238"/>
<path d="M182.458 40.1064C183.011 38.7344 182.34 37.0733 181.149 36.1864C179.894 35.3603 178.364 35.0627 176.891 35.3583C175.438 35.663 174.031 36.1572 172.707 36.8283C172.091 36.2072 171.314 35.7694 170.464 35.564C169.614 35.3586 168.723 35.3935 167.892 35.6649C167.06 35.9363 166.32 36.4336 165.755 37.101C165.19 37.7685 164.821 38.58 164.69 39.4449C164.16 39.3115 163.604 39.325 163.082 39.4837C162.559 39.6425 162.089 39.9406 161.723 40.346C161.357 40.7515 161.108 41.249 161.003 41.7851C160.898 42.3213 160.941 42.8759 161.128 43.3894L167.753 45.7169L174.985 58.4569C176.054 59.3688 177.418 59.8607 178.823 59.8408C180.228 59.8209 181.578 59.2906 182.62 58.3487C183.663 57.4069 184.327 56.1179 184.489 54.7223C184.651 53.3266 184.3 51.9197 183.501 50.7639C183.907 50.4035 184.251 49.9799 184.521 49.5095C185.099 49.1677 185.603 48.7145 186.004 48.1761C186.405 47.6378 186.695 47.025 186.858 46.3735C187.5 43.5364 185.305 40.4396 182.458 40.1064Z" fill="#263238"/>
<path d="M178.072 66.64C177.661 64.5673 177.377 63.1463 177.382 63.161C177.386 63.1757 181.302 61.642 181.017 56.1883C180.88 53.4737 179.846 49.196 178.886 45.7268C178.023 42.6006 175.108 39.1559 172.026 40.1506L162.682 44.7076C161.746 45.0114 161.584 45.8934 161.804 46.8489V47.3389L165.435 62.3623L166.969 69.0753C167.296 70.4537 168.127 71.6598 169.299 72.4561C170.471 73.2523 171.898 73.581 173.3 73.3775C174.065 73.2698 174.801 73.0068 175.461 72.6046C176.122 72.2024 176.693 71.6694 177.14 71.0385C177.587 70.4076 177.9 69.6919 178.06 68.9356C178.221 68.1792 178.225 67.398 178.072 66.64Z" fill="#FFBE9D"/>
<path d="M178.851 49.3527C178.89 49.5266 178.861 49.7089 178.77 49.8621C178.679 50.0153 178.532 50.1276 178.361 50.1759C178.274 50.2001 178.184 50.2065 178.094 50.1948C178.005 50.183 177.919 50.1534 177.842 50.1076C177.765 50.0618 177.697 50.0009 177.644 49.9284C177.591 49.8559 177.553 49.7735 177.533 49.6859C177.493 49.5127 177.523 49.331 177.614 49.1787C177.705 49.0263 177.851 48.9149 178.023 48.8676C178.109 48.8427 178.199 48.8355 178.288 48.8466C178.378 48.8578 178.463 48.8869 178.541 48.9323C178.618 48.9777 178.686 49.0383 178.739 49.1106C178.792 49.1829 178.83 49.2653 178.851 49.3527Z" fill="#263238"/>
<path d="M178.426 48.309C178.357 48.4168 177.764 48.1473 177.039 48.309C176.314 48.4707 175.853 48.9411 175.755 48.8676C175.657 48.7941 175.755 48.6569 175.956 48.4413C176.226 48.1564 176.576 47.9614 176.961 47.8827C177.34 47.801 177.735 47.8439 178.088 48.0052C178.362 48.1179 178.455 48.2649 178.426 48.309Z" fill="#263238"/>
<path d="M171.736 50.96C171.775 51.1332 171.746 51.3149 171.654 51.4672C171.563 51.6196 171.417 51.731 171.246 51.7783C171.161 51.8029 171.072 51.8105 170.985 51.8006C170.897 51.7908 170.812 51.7636 170.735 51.7208C170.658 51.678 170.591 51.6203 170.536 51.5511C170.482 51.4819 170.441 51.4025 170.418 51.3177C170.378 51.1438 170.407 50.9615 170.498 50.8083C170.589 50.6551 170.736 50.5428 170.908 50.4945C170.992 50.4699 171.081 50.4625 171.169 50.4727C171.257 50.4829 171.342 50.5104 171.419 50.5538C171.496 50.5971 171.564 50.6553 171.618 50.725C171.673 50.7948 171.712 50.8746 171.736 50.96Z" fill="#263238"/>
<path d="M171.379 50.0387C171.315 50.1465 170.717 49.8721 169.992 50.0387C169.267 50.2053 168.806 50.6659 168.708 50.5973C168.61 50.5287 168.708 50.3866 168.909 50.1661C169.18 49.8838 169.53 49.6907 169.914 49.6124C170.292 49.5319 170.687 49.5731 171.041 49.73C171.3 49.8476 171.413 49.9799 171.379 50.0387Z" fill="#263238"/>
<path d="M175.068 54.6446C175.428 54.4464 175.809 54.2918 176.205 54.184C176.387 54.1252 176.558 54.0517 176.563 53.9194C176.537 53.7245 176.454 53.5419 176.323 53.3951L175.475 52.0917C174.289 50.2346 173.388 48.696 173.461 48.6617C173.535 48.6274 174.559 50.0827 175.745 51.9398L176.573 53.253C176.735 53.454 176.824 53.705 176.823 53.9635C176.808 54.034 176.778 54.1004 176.735 54.158C176.692 54.2156 176.636 54.263 176.573 54.2967C176.477 54.3475 176.375 54.3854 176.269 54.4094C175.881 54.5421 175.477 54.6213 175.068 54.6446Z" fill="#263238"/>
<path d="M177.382 63.1608C174.903 63.721 172.318 63.5819 169.914 62.759C169.914 62.759 172.482 66.1106 177.661 64.5083L177.382 63.1608Z" fill="#EB996E"/>
<path d="M171.502 48.9999C171.453 49.2106 170.703 49.2057 169.85 49.4164C168.998 49.6271 168.322 49.9456 168.184 49.779C168.126 49.7006 168.224 49.4948 168.483 49.289C168.829 48.9983 169.239 48.7949 169.679 48.6961C170.116 48.5925 170.57 48.5925 171.007 48.6961C171.355 48.7598 171.536 48.9019 171.502 48.9999Z" fill="#263238"/>
<path d="M178.146 45.9961C178.028 46.1921 177.401 46.1431 176.676 46.2852C175.95 46.4273 175.377 46.6723 175.206 46.5302C175.127 46.4567 175.206 46.2705 175.416 46.0402C175.74 45.7681 176.131 45.5886 176.548 45.5208C176.959 45.4381 177.384 45.4686 177.778 45.609C178.077 45.7462 178.195 45.8981 178.146 45.9961Z" fill="#263238"/>
<path d="M164.988 41.199C165.097 41.7299 165.321 42.2303 165.644 42.6648C165.968 43.0992 166.383 43.4571 166.861 43.713C167.338 43.9688 167.866 44.1163 168.407 44.1451C168.948 44.1739 169.489 44.0831 169.991 43.8793C170.765 43.5657 171.569 42.9777 172.353 43.2619C173.137 43.5461 173.46 44.6633 174.21 45.0798C175.313 45.6972 176.66 44.629 177.89 44.7368C178.87 44.8201 179.61 45.5698 180.369 46.2068C181.129 46.8438 182.177 47.324 183.035 46.8634C182.839 46.0452 182.548 45.2525 182.168 44.5016C181.784 43.7457 181.151 43.1464 180.374 42.8062C179.943 42.6347 179.478 42.5759 179.066 42.3652C178.179 41.9144 177.782 40.8952 177.14 40.1259C176.719 39.6412 176.188 39.2638 175.591 39.0252C174.995 38.7866 174.35 38.6936 173.71 38.7539C172.652 38.8617 171.647 39.3958 170.579 39.3517C169.79 39.3174 169.036 38.9646 168.247 38.9793C166.713 38.9793 165.562 40.3513 164.709 41.6302" fill="#263238"/>
<path d="M170.154 42.3211C169.448 42.2672 168.007 42.1202 167.532 41.6204C167.049 41.0803 166.433 40.6766 165.745 40.4495C165.057 40.2225 164.322 40.1802 163.612 40.3268C162.908 40.5367 162.29 40.967 161.849 41.5545C161.408 42.142 161.167 42.8556 161.162 43.5902C160.305 43.7994 159.52 44.2363 158.89 44.8547C158.261 45.4731 157.81 46.25 157.585 47.1035C157.357 47.9969 157.349 48.9324 157.563 49.8294C157.776 50.7265 158.204 51.5583 158.81 52.2534C159.104 52.6215 159.373 53.0095 159.614 53.4147C159.281 53.8269 158.989 54.2699 158.742 54.7377C157.619 57.2171 160.662 58.1677 160.662 58.1677C160.662 59.8337 162.206 59.8239 163.191 59.819C164.176 59.8141 164.72 62.4454 165.489 62.3425L164.71 54.2232C164.824 54.2676 164.945 54.2908 165.067 54.2918C166.925 54.3261 166.439 50.8079 165.842 49.8818C166.395 49.193 166.862 48.4394 167.233 47.6376C167.57 46.4119 167.593 45.1214 167.302 43.8842C167.924 43.8058 170.457 42.3407 170.154 42.3211Z" fill="#263238"/>
<path d="M164.955 54.6545C164.891 54.3965 164.764 54.1588 164.584 53.9634C164.404 53.768 164.177 53.6215 163.925 53.5373C163.673 53.4532 163.404 53.4342 163.143 53.4822C162.882 53.5302 162.637 53.6435 162.431 53.8117C161.941 54.2331 161.682 54.9387 161.976 56.1196C162.769 59.2752 165.773 57.8297 165.753 57.7415C165.734 57.6533 165.298 55.9579 164.955 54.6545Z" fill="#FFBE9D"/>
<path d="M164.49 56.786C164.49 56.786 164.446 56.8399 164.362 56.9036C164.246 56.9924 164.101 57.0328 163.956 57.0163C163.593 56.9771 163.176 56.5263 163.02 55.953C162.945 55.6851 162.93 55.4041 162.976 55.1298C162.981 55.0232 163.011 54.9194 163.065 54.8273C163.119 54.7351 163.194 54.6573 163.284 54.6006C163.344 54.5685 163.413 54.5583 163.479 54.5717C163.545 54.5851 163.605 54.6214 163.647 54.6741C163.711 54.7476 163.706 54.8162 163.725 54.8211C163.745 54.826 163.779 54.7476 163.725 54.6251C163.688 54.5524 163.627 54.4939 163.554 54.4585C163.45 54.4165 163.334 54.4165 163.23 54.4585C163.107 54.5169 163.001 54.6055 162.921 54.716C162.842 54.8265 162.791 54.9553 162.775 55.0906C162.711 55.3991 162.723 55.7185 162.809 56.0216C162.864 56.3061 163.001 56.5681 163.204 56.7748C163.407 56.9814 163.667 57.1234 163.951 57.1829C164.043 57.1866 164.135 57.1696 164.22 57.1332C164.304 57.0967 164.38 57.0417 164.441 56.9722C164.504 56.8644 164.504 56.7909 164.49 56.786Z" fill="#EB996E"/>
<path d="M181.874 50.2493C181.874 50.2493 182.163 50.0288 182.565 49.5388C183.119 48.8328 183.46 47.9825 183.545 47.0888C183.61 46.4788 183.55 45.8619 183.369 45.2758C183.159 44.6035 182.771 44.0006 182.246 43.5314C181.64 43.0021 180.906 42.6404 180.117 42.4822C179.328 42.3241 178.512 42.375 177.748 42.6298C177.601 42.6788 177.464 42.7523 177.327 42.8111C177.19 42.8699 177.067 42.9581 176.94 43.0316L176.744 43.1394V42.9238C176.74 42.5443 176.599 42.1789 176.347 41.8948C176.089 41.6191 175.773 41.4048 175.421 41.2676C174.755 40.9903 174.018 40.9353 173.319 41.1108C171.966 41.4195 170.82 42.0369 169.737 42.1643C168.888 42.3119 168.014 42.1372 167.287 41.6743C167.095 41.5423 166.929 41.3762 166.797 41.1843C166.718 41.052 166.679 40.9785 166.689 40.9736C166.867 41.2156 167.084 41.426 167.331 41.5959C168.046 42.0089 168.887 42.1498 169.698 41.9928C170.262 41.8867 170.814 41.7225 171.344 41.5028C171.967 41.2539 172.605 41.046 173.255 40.8805C173.617 40.7929 173.99 40.755 174.362 40.7678C174.755 40.7886 175.142 40.8782 175.504 41.0324C175.879 41.1925 176.213 41.4335 176.484 41.738C176.774 42.0698 176.937 42.4932 176.945 42.9336L176.749 42.8258L177.155 42.5906C177.307 42.5318 177.449 42.4534 177.606 42.3995C178.411 42.124 179.274 42.0664 180.108 42.2325C180.942 42.3986 181.717 42.7825 182.354 43.3452C182.905 43.8441 183.309 44.4849 183.52 45.1974C183.74 45.9527 183.77 46.7506 183.607 47.52C183.443 48.2895 183.092 49.0066 182.585 49.6074C182.423 49.7916 182.241 49.9561 182.041 50.0974C181.992 50.1546 181.936 50.2056 181.874 50.2493Z" fill="#455A64"/>
<path d="M181.236 39.1704C180.915 39.0071 180.572 38.89 180.217 38.8225C179.812 38.7671 179.4 38.8057 179.012 38.9352C178.509 39.0889 178.073 39.4063 177.772 39.8368L177.65 40.0083L177.576 39.8123C177.32 39.21 176.908 38.6867 176.383 38.2966C175.858 37.9064 175.238 37.6634 174.587 37.5926C173.565 37.5542 172.558 37.8463 171.716 38.4256C170.998 38.8935 170.234 39.2876 169.437 39.6016C168.888 39.8095 168.295 39.8801 167.712 39.8074C167.557 39.7787 167.404 39.7361 167.257 39.68C167.159 39.6359 167.105 39.6114 167.11 39.6016C167.115 39.5918 167.33 39.6653 167.727 39.7045C168.291 39.7397 168.855 39.6476 169.378 39.435C170.153 39.0972 170.896 38.6905 171.598 38.2198C172.032 37.9505 172.491 37.7256 172.97 37.5485C173.496 37.3566 174.059 37.2846 174.616 37.3378C175.311 37.4137 175.973 37.6766 176.53 38.0985C177.088 38.5204 177.52 39.0856 177.782 39.7339H177.591C177.928 39.2734 178.409 38.9388 178.958 38.7833C179.375 38.6624 179.815 38.6405 180.242 38.7196C180.512 38.7709 180.771 38.8705 181.006 39.0136C181.09 39.0546 181.167 39.1074 181.236 39.1704Z" fill="#455A64"/>
<path d="M174.785 56.0951C174.67 55.9994 174.537 55.929 174.393 55.8885C174.25 55.8479 174.099 55.8382 173.951 55.8599C173.779 55.8967 173.616 55.9694 173.473 56.0733C173.331 56.1771 173.211 56.3097 173.123 56.4626C173.123 56.4626 173.099 56.4871 173.094 56.5018C173.027 56.6137 172.996 56.7439 173.006 56.8742C173.027 57.0161 173.083 57.1507 173.168 57.266C173.254 57.3813 173.366 57.4739 173.496 57.5357C173.703 57.6407 173.937 57.6792 174.167 57.6458C174.397 57.6125 174.611 57.509 174.78 57.3495C174.94 57.1802 175.029 56.9563 175.03 56.7233C175.031 56.4902 174.943 56.2656 174.785 56.0951Z" fill="#0669B7"/>
<path d="M175.03 57.619C174.99 57.619 174.946 57.472 174.814 57.2711C174.655 57.0018 174.416 56.7878 174.132 56.6581C173.847 56.5284 173.529 56.4893 173.221 56.5459C172.981 56.5802 172.834 56.6488 172.82 56.6145C172.805 56.5802 172.918 56.4626 173.182 56.3695C173.529 56.258 173.904 56.279 174.236 56.4283C174.571 56.5774 174.835 56.8492 174.976 57.1878C175.079 57.4426 175.064 57.6141 175.03 57.619Z" fill="#263238"/>
<path d="M165.027 58.2267C165.027 58.2267 165.169 58.4717 164.983 58.8441C164.878 59.0669 164.692 59.2419 164.464 59.3341C164.321 59.3851 164.168 59.4024 164.018 59.3846C163.867 59.3667 163.723 59.3142 163.596 59.2312C163.467 59.1528 163.358 59.0457 163.278 58.9182C163.197 58.7907 163.147 58.6463 163.131 58.4962C163.116 58.2541 163.187 58.0147 163.332 57.82C163.587 57.4966 163.871 57.4868 163.871 57.5162C163.871 57.5456 163.655 57.6289 163.484 57.9229C163.384 58.0876 163.343 58.2807 163.366 58.4717C163.384 58.5835 163.427 58.69 163.49 58.7839C163.554 58.8778 163.637 58.9569 163.734 59.0156C163.829 59.0768 163.937 59.1171 164.049 59.134C164.161 59.1509 164.276 59.1439 164.385 59.1136C164.566 59.0488 164.722 58.9288 164.831 58.7706C165.022 58.4668 164.988 58.2267 165.027 58.2267Z" fill="#0669B7"/>
<path d="M163.376 58.0356C163.401 58.0356 163.376 58.2022 163.146 58.31C163.033 58.357 162.909 58.3706 162.788 58.3493C162.667 58.328 162.555 58.2725 162.465 58.1896C162.375 58.1066 162.31 57.9996 162.279 57.8811C162.248 57.7627 162.251 57.6377 162.289 57.5211C162.337 57.3886 162.428 57.2763 162.548 57.2026C162.749 57.0801 162.901 57.1291 162.896 57.1585C162.891 57.1879 162.779 57.2222 162.656 57.3447C162.596 57.42 162.559 57.5114 162.55 57.6075C162.542 57.7035 162.562 57.8 162.608 57.8848C162.654 57.9695 162.724 58.0388 162.809 58.084C162.895 58.1291 162.991 58.148 163.087 58.1385C163.254 58.1042 163.342 58.016 163.376 58.0356Z" fill="#0669B7"/>
<path d="M168.763 101.553C168.763 101.553 180.895 102.258 188.069 102.322C193.621 102.376 196.1 100.901 197.207 97.3288C198.138 94.3349 196.139 88.5872 196.139 88.5872C192.381 88.5872 190.063 89.1262 187.647 90.2581L188.289 92.8845L168.729 94.5701L168.763 101.553Z" fill="#FFBE9D"/>
<path d="M192.365 95.6871C191.839 95.003 191.225 94.3917 190.538 93.8692C189.801 93.4183 189.006 93.0689 188.176 92.8304C188.437 92.7928 188.704 92.8163 188.955 92.899C189.571 93.0447 190.156 93.3021 190.68 93.6585C191.204 94.016 191.658 94.468 192.017 94.9913C192.292 95.3931 192.395 95.6724 192.365 95.6871Z" fill="#EB996E"/>
<path d="M164.323 90.2384C164.323 90.2384 160.569 91.14 157.811 92.9824L160.751 100.95C161.731 103.566 164.724 104.87 167.121 103.498C170.81 101.386 172.114 95.2315 172.114 95.2315L176.166 77.6503L169.448 73.4412L164.347 90.2384" fill="#FFBE9D"/>
<path d="M169.423 73.4411L169.698 67.6591L168.193 61.7791C168.11 61.4557 168.071 61.049 168.335 60.853C168.467 60.7524 168.629 60.7003 168.794 60.7057C168.959 60.7111 169.117 60.7735 169.242 60.8824C169.649 61.3038 171.609 66.4439 171.609 66.4439C171.609 66.4439 174.583 64.6603 175.112 64.5721C175.641 64.4839 176.303 66.0862 176.347 66.2087C176.366 66.5678 176.366 66.9276 176.347 67.2867C176.347 67.2867 178.184 67.3406 178.351 67.5905C178.485 68.101 178.555 68.6259 178.562 69.1536C178.562 69.1536 179.341 69.4035 179.463 69.9915C179.586 70.5795 179.841 71.5497 179.463 71.7653C179.086 71.9809 178.322 72.4023 178.322 72.4023C178.322 72.4023 178.013 75.4011 177.93 75.6755C177.846 75.9499 176.126 77.6355 176.126 77.6355L169.423 73.4411Z" fill="#FFBE9D"/>
<path d="M163.172 103.615C163.172 103.615 163.353 103.723 163.735 103.846C164.294 104.021 164.886 104.068 165.465 103.983C166.396 103.85 167.268 103.448 167.974 102.827C168.907 101.98 169.694 100.987 170.306 99.8866C170.667 99.2396 170.97 98.5624 171.213 97.8629C171.468 97.0931 171.679 96.3094 171.845 95.5158C172.227 93.8645 172.644 92.0858 173.085 90.1944C173.967 86.4165 174.956 82.1927 176.025 77.6406V77.6063H176.049C176.387 77.2731 176.725 76.9349 177.063 76.5821C177.23 76.4058 177.397 76.2294 177.553 76.0481C177.632 75.955 177.715 75.8619 177.779 75.7688C177.828 75.6765 177.857 75.5744 177.862 75.4699C177.994 74.4899 178.097 73.4756 178.205 72.4515V72.3878L178.264 72.3584L179.2 71.8341C179.268 71.79 179.376 71.741 179.42 71.7018C179.467 71.6594 179.498 71.6024 179.508 71.5401C179.531 71.3775 179.531 71.2126 179.508 71.0501C179.461 70.6907 179.387 70.3353 179.288 69.9868C179.121 69.6819 178.841 69.4549 178.509 69.3546L178.426 69.3253V69.242C178.426 68.9578 178.396 68.6637 178.362 68.3746C178.349 68.2299 178.327 68.0859 178.298 67.9435C178.287 67.8807 178.267 67.8197 178.239 67.7621C178.239 67.7278 178.239 67.7622 178.21 67.7328C178.183 67.7188 178.155 67.7073 178.127 67.6985C177.537 67.57 176.936 67.5027 176.333 67.4976H176.206V67.3702C176.206 67.0664 176.206 66.7283 176.206 66.3902C176.186 66.2748 176.146 66.1638 176.088 66.0619C176.039 65.9443 175.98 65.8316 175.922 65.714C175.807 65.487 175.673 65.2706 175.52 65.0671C175.451 64.9724 175.366 64.8896 175.27 64.8221C175.234 64.7921 175.191 64.7733 175.145 64.7681C175.098 64.7628 175.052 64.7714 175.01 64.7927C174.773 64.8836 174.542 64.99 174.319 65.1113C173.408 65.6013 172.516 66.0913 171.644 66.6205L171.517 66.6989L171.463 66.5617C171.002 65.4004 170.541 64.2538 170.091 63.1317C169.865 62.5682 169.645 62.0047 169.419 61.451C169.385 61.3269 169.316 61.2152 169.22 61.1285C169.125 61.0418 169.007 60.9838 168.88 60.961C168.763 60.9221 168.636 60.9242 168.521 60.9669C168.405 61.0097 168.307 61.0905 168.243 61.1962C168.182 61.3013 168.157 61.4232 168.17 61.5441C168.17 61.6519 168.238 61.8185 168.268 61.9508C168.346 62.235 168.42 62.5142 168.493 62.7935C168.64 63.357 168.782 63.9108 168.929 64.4596C169.217 65.5637 169.499 66.6417 169.777 67.6935V67.7279C169.679 69.7401 169.586 71.6675 169.498 73.5099V73.5001L165.034 88.0237L163.775 92.0662C163.628 92.5219 163.515 92.8796 163.436 93.1295C163.358 93.3794 163.309 93.4872 163.309 93.4872C163.309 93.4872 163.334 93.3598 163.402 93.1197L163.711 92.0466C163.995 91.1009 164.402 89.7338 164.916 87.9894C165.975 84.481 167.479 79.4732 169.297 73.4364V73.4609C169.382 71.625 169.468 69.6976 169.557 67.6789V67.7132C169.277 66.6597 168.988 65.5817 168.699 64.4841L168.258 62.8181C168.185 62.5388 168.111 62.2546 168.033 61.9753C167.991 61.8285 167.956 61.6797 167.93 61.5294C167.912 61.3593 167.948 61.1878 168.033 61.0394C168.123 60.8865 168.263 60.769 168.43 60.7062C168.594 60.658 168.768 60.6526 168.935 60.6903C169.102 60.728 169.257 60.8077 169.385 60.9218C169.508 61.0371 169.599 61.1823 169.65 61.3432L170.321 63.0238C170.777 64.1508 171.232 65.2974 171.698 66.4538L171.517 66.3902C172.394 65.8708 173.276 65.3514 174.207 64.8663C174.442 64.7433 174.684 64.6336 174.932 64.538C175.009 64.5058 175.094 64.4939 175.177 64.5037C175.261 64.5158 175.341 64.5459 175.412 64.5919C175.53 64.6765 175.634 64.779 175.721 64.8957C175.885 65.1101 176.027 65.3398 176.147 65.5817C176.211 65.7042 176.27 65.8218 176.323 65.9443C176.393 66.074 176.44 66.215 176.461 66.3607C176.461 66.7086 176.461 67.032 176.461 67.3407L176.338 67.2085C176.968 67.2127 177.596 67.285 178.21 67.4241C178.252 67.4388 178.293 67.4568 178.332 67.478C178.386 67.5073 178.431 67.5515 178.46 67.6054C178.498 67.6849 178.526 67.7688 178.543 67.8553C178.573 68.0121 178.592 68.1591 178.612 68.311C178.641 68.6099 178.661 68.9039 178.675 69.1979L178.587 69.0803C178.788 69.139 178.974 69.238 179.135 69.3711C179.296 69.5042 179.428 69.6686 179.523 69.8545C179.631 70.2268 179.709 70.6069 179.758 70.9913C179.792 71.1874 179.792 71.388 179.758 71.5842C179.737 71.703 179.675 71.8105 179.582 71.888C179.502 71.9418 179.418 71.9908 179.332 72.035L178.401 72.5201L178.465 72.427C178.352 73.4511 178.249 74.4556 178.112 75.4503L178.083 75.6414C178.071 75.7187 178.039 75.7916 177.989 75.8521C177.917 75.9593 177.837 76.0609 177.749 76.1559C177.583 76.3421 177.416 76.5234 177.259 76.6998C176.921 77.0526 176.583 77.3907 176.24 77.7239L176.274 77.6651C175.196 82.2123 174.197 86.4361 173.3 90.214C172.854 92.1005 172.428 93.8792 172.036 95.5256C171.868 96.3252 171.652 97.1139 171.389 97.8874C171.137 98.5935 170.826 99.277 170.458 99.9307C169.832 101.045 169.026 102.049 168.072 102.9C167.345 103.526 166.451 103.924 165.499 104.047C164.907 104.126 164.305 104.066 163.74 103.87C163.597 103.817 163.457 103.754 163.324 103.679L163.172 103.615Z" fill="#EB996E"/>
<path d="M176.352 67.3014C176.352 67.3357 176.185 67.3553 175.926 67.3651C175.596 67.3713 175.268 67.4107 174.946 67.4827C174.635 67.559 174.349 67.7124 174.113 67.9286C173.936 68.0952 173.858 68.2373 173.819 68.2226C173.78 68.2079 173.819 68.0315 173.98 67.8061C174.209 67.5207 174.526 67.3205 174.882 67.2377C175.225 67.1531 175.581 67.1365 175.931 67.1887C176.195 67.223 176.352 67.2671 176.352 67.3014Z" fill="#EB996E"/>
<path d="M174.93 67.3553C174.867 67.3308 174.862 67.1789 174.93 67.0172C174.999 66.8555 175.097 66.7428 175.161 66.7673C175.224 66.7918 175.234 66.9437 175.161 67.1054C175.087 67.2671 174.979 67.3798 174.93 67.3553Z" fill="#EB996E"/>
<path d="M178.645 69.134C178.169 69.2812 177.673 69.3491 177.175 69.3349C177.018 69.3297 176.863 69.3621 176.721 69.4295C176.58 69.4968 176.456 69.5972 176.361 69.722C176.234 69.9229 176.278 70.0895 176.239 70.0993C176.2 70.1091 176.082 69.9376 176.205 69.6436C176.272 69.4781 176.395 69.3412 176.553 69.2565C176.734 69.157 176.934 69.0969 177.141 69.0801C177.641 69.0035 178.151 69.0218 178.645 69.134Z" fill="#EB996E"/>
<path d="M178.322 70.898C178.39 70.898 178.429 71.2606 178.41 71.7065C178.39 72.1524 178.317 72.5052 178.248 72.5052C178.18 72.5052 178.135 72.1377 178.155 71.6918C178.175 71.2459 178.248 70.8931 178.322 70.898Z" fill="#EB996E"/>
<path d="M180.355 84.0936L180.792 82.5942C180.812 82.5256 180.849 82.4633 180.9 82.4136C180.952 82.3638 181.015 82.3283 181.084 82.3105C181.154 82.2927 181.226 82.2932 181.295 82.312C181.364 82.3309 181.427 82.3673 181.478 82.4178L182.051 83.0009L182.404 81.5848C182.424 81.503 182.47 81.4295 182.534 81.3744C182.598 81.3193 182.677 81.2851 182.761 81.2765C182.845 81.268 182.929 81.2854 183.003 81.3266C183.077 81.3677 183.136 81.4305 183.173 81.5064L183.972 83.1822L180.355 84.0936Z" fill="white"/>
<path d="M183.982 83.8242C183.434 84.0891 182.852 84.2771 182.252 84.3828C181.673 84.5722 181.069 84.6778 180.459 84.6964C181.587 84.2433 182.773 83.9497 183.982 83.8242Z" fill="white"/>
<path d="M154.841 75.46C154.841 75.46 154.66 75.6462 154.405 76.0431C154.063 76.6083 153.838 77.2365 153.743 77.8904C153.604 78.8639 153.574 79.8502 153.655 80.8304C153.709 81.9427 153.797 83.1579 153.934 84.4319C154.166 86.6076 154.512 88.7698 154.968 90.9097C155.14 91.7329 155.297 92.3797 155.404 92.8697C155.453 93.0755 155.497 93.247 155.532 93.394C155.566 93.541 155.571 93.5802 155.571 93.5802C155.571 93.5802 155.546 93.5214 155.512 93.4038C155.478 93.2862 155.424 93.0804 155.37 92.8795C155.248 92.4238 155.081 91.7672 154.88 90.944C154.404 88.8048 154.049 86.6405 153.817 84.4613C153.68 83.1873 153.596 81.9672 153.547 80.8549C153.473 79.8739 153.509 78.8877 153.655 77.9149C153.76 77.2524 154 76.6187 154.361 76.0529C154.493 75.8345 154.655 75.6351 154.841 75.46Z" fill="white"/>
<path d="M165.156 68.7861L165.044 68.8449L164.72 69.0017C164.441 69.134 164.034 69.33 163.549 69.5995C162.285 70.3048 161.056 71.0734 159.869 71.9025C158.468 72.8825 157.228 73.7743 156.322 74.4211L155.248 75.1806L154.95 75.3815C154.916 75.4081 154.88 75.4311 154.842 75.4501C154.87 75.4172 154.903 75.389 154.94 75.3668L155.224 75.1512L156.277 74.3623C157.174 73.7008 158.409 72.7796 159.81 71.8192C161 70.9865 162.237 70.2241 163.515 69.5358C164.005 69.2761 164.416 69.0899 164.706 68.9674L165.034 68.8302C165.132 68.7959 165.132 68.7812 165.156 68.7861Z" fill="white"/>
<path d="M188.523 71.9761C188.492 71.9591 188.464 71.9376 188.44 71.9124L188.219 71.7213C187.946 71.4908 187.66 71.2765 187.362 71.0794C186.367 70.4452 185.312 69.9117 184.211 69.4869C183.114 69.0523 181.993 68.6794 180.855 68.3697C180.414 68.2472 180.061 68.159 179.811 68.1002L179.532 68.0267C179.498 68.0197 179.465 68.0082 179.434 67.9924H179.536L179.821 68.0463C180.071 68.0953 180.428 68.1737 180.869 68.2864C182.019 68.5766 183.148 68.9416 184.25 69.3791C185.357 69.8038 186.414 70.3494 187.401 71.0059C187.812 71.2841 188.188 71.6097 188.523 71.9761Z" fill="white"/>
<path d="M165.294 109.378C165.227 109.366 165.163 109.344 165.102 109.314C164.932 109.239 164.768 109.151 164.612 109.049C164.348 108.891 164.118 108.682 163.935 108.435C163.752 108.188 163.619 107.907 163.544 107.609C163.41 107.006 163.477 106.376 163.735 105.815C163.81 105.641 163.905 105.477 164.02 105.325C164.098 105.222 164.152 105.173 164.157 105.178C164.023 105.387 163.904 105.605 163.799 105.83C163.571 106.381 163.518 106.988 163.647 107.57C163.788 108.144 164.137 108.645 164.627 108.976C165.034 109.27 165.303 109.358 165.294 109.378Z" fill="white"/>
<path d="M163.734 104.071C163.839 104.266 163.916 104.473 163.965 104.688C164.041 104.895 164.088 105.111 164.102 105.33C163.991 105.14 163.911 104.933 163.867 104.718C163.786 104.511 163.742 104.293 163.734 104.071Z" fill="white"/>
<path d="M170.36 213.934L185.305 213.86L185.035 162.19L184.893 109.628L164.641 109.368L161.001 116.228C159.511 118.986 158.561 122.003 158.203 125.117C157.958 127.498 159.741 135.24 160.359 137.2L165.93 154.869L170.36 213.934Z" fill="#263238"/>
<path d="M189.278 109.691L205.702 154.463C206.676 157.347 206.999 160.411 206.649 163.436C206.299 166.46 205.285 169.369 203.679 171.956L184.608 209.196L173.887 195.779L189.841 162.459L175.778 139.65L178.145 109.76L184.77 109.652L189.278 109.691Z" fill="#263238"/>
<path d="M183.531 124.69C183.531 124.69 183.531 124.769 183.531 124.92C183.531 125.072 183.556 125.308 183.575 125.597C183.61 126.199 183.654 127.067 183.713 128.189C183.825 130.457 183.982 133.716 184.203 137.739C184.423 141.762 184.609 146.559 184.854 151.9C184.972 154.565 185.099 157.363 185.227 160.264C185.32 161.734 185.281 163.204 185.295 164.674C185.31 166.144 185.295 167.693 185.295 169.231C185.295 181.545 185.334 192.692 185.349 200.772C185.349 204.8 185.349 208.064 185.349 210.332C185.349 211.455 185.349 212.327 185.349 212.934C185.349 213.218 185.349 213.424 185.349 213.611C185.349 213.797 185.349 213.841 185.349 213.841C185.349 213.841 185.349 213.762 185.349 213.611V212.934C185.349 212.327 185.349 211.464 185.32 210.332C185.32 208.064 185.281 204.805 185.251 200.777C185.217 192.697 185.173 181.55 185.124 169.236C185.124 167.697 185.124 166.178 185.124 164.679C185.124 163.18 185.153 161.7 185.06 160.269C184.938 157.373 184.815 154.575 184.702 151.91C184.477 146.578 184.271 141.781 184.105 137.744C183.938 133.706 183.815 130.462 183.722 128.194C183.683 127.076 183.654 126.204 183.634 125.597C183.634 125.308 183.634 125.107 183.634 124.92C183.634 124.734 183.531 124.69 183.531 124.69Z" fill="#455A64"/>
<path d="M183.154 110.573C183.212 110.731 183.246 110.896 183.257 111.063C183.311 111.377 183.37 111.833 183.439 112.401C183.566 113.533 183.703 115.106 183.782 116.845C183.86 118.585 183.865 120.163 183.84 121.304C183.84 121.873 183.806 122.338 183.782 122.657C183.787 122.822 183.767 122.987 183.723 123.147C183.661 122.535 183.64 121.919 183.659 121.304C183.659 120.163 183.605 118.595 183.527 116.855C183.448 115.116 183.341 113.552 183.257 112.445C183.188 111.824 183.153 111.199 183.154 110.573Z" fill="#455A64"/>
<path d="M179.86 111.583C179.885 111.617 179.605 111.744 179.527 112.141C179.505 112.249 179.511 112.361 179.545 112.465C179.578 112.57 179.638 112.664 179.718 112.739C179.815 112.829 179.936 112.89 180.066 112.913C180.196 112.937 180.331 112.922 180.453 112.871C180.57 112.811 180.669 112.719 180.736 112.605C180.804 112.492 180.838 112.362 180.835 112.23C180.831 112.12 180.798 112.013 180.741 111.92C180.683 111.826 180.603 111.749 180.507 111.695C180.308 111.599 180.085 111.56 179.865 111.583C179.865 111.583 179.914 111.519 180.042 111.48C180.225 111.435 180.419 111.454 180.59 111.534C180.727 111.591 180.845 111.684 180.932 111.805C181.018 111.925 181.07 112.067 181.08 112.215C181.1 112.397 181.061 112.581 180.971 112.741C180.88 112.9 180.742 113.027 180.575 113.104C180.409 113.181 180.222 113.204 180.042 113.169C179.862 113.134 179.697 113.044 179.571 112.911C179.467 112.807 179.393 112.677 179.358 112.534C179.322 112.392 179.327 112.242 179.37 112.102C179.419 111.919 179.53 111.758 179.684 111.646C179.782 111.578 179.855 111.568 179.86 111.583Z" fill="#455A64"/>
<path d="M172.021 110.696C172.093 110.85 172.138 111.016 172.153 111.186C172.232 111.626 172.247 112.075 172.197 112.519C172.127 113.18 171.936 113.823 171.634 114.415C171.269 115.152 170.728 115.788 170.06 116.267C169.392 116.746 168.617 117.054 167.802 117.164C167.149 117.261 166.485 117.236 165.842 117.09C165.407 116.996 164.987 116.839 164.597 116.625C164.45 116.555 164.314 116.462 164.195 116.35C164.737 116.594 165.302 116.783 165.881 116.914C166.578 117.059 167.297 117.058 167.994 116.911C168.69 116.763 169.349 116.473 169.927 116.059C170.506 115.645 170.993 115.115 171.356 114.503C171.72 113.891 171.953 113.21 172.04 112.504C172.098 111.902 172.091 111.296 172.021 110.696Z" fill="#455A64"/>
<path d="M191.248 114.988C190.929 115.025 190.605 114.986 190.303 114.875C189.562 114.642 188.898 114.216 188.377 113.641C187.852 113.068 187.491 112.363 187.333 111.602C187.256 111.292 187.256 110.967 187.333 110.656C187.377 110.656 187.382 111.014 187.529 111.563C187.728 112.272 188.089 112.925 188.584 113.47C189.079 114.016 189.694 114.438 190.381 114.704C190.891 114.905 191.253 114.939 191.248 114.988Z" fill="#455A64"/>
<path d="M197.084 163.253C196.838 163.533 196.545 163.767 196.217 163.944C195.873 164.162 195.498 164.328 195.104 164.434C194.61 164.565 194.088 164.552 193.6 164.395C192.744 164.072 192.011 163.49 191.503 162.729C191.27 162.443 191.077 162.126 190.93 161.788C191.194 162.041 191.434 162.318 191.645 162.616C192.165 163.306 192.868 163.837 193.674 164.15C194.085 164.26 194.514 164.285 194.935 164.223C195.357 164.162 195.761 164.015 196.124 163.792C196.433 163.594 196.754 163.414 197.084 163.253Z" fill="#455A64"/>
<path d="M193.341 166.11C192.762 165.51 192.245 164.854 191.798 164.15C191.282 163.495 190.833 162.791 190.455 162.048C191.038 162.645 191.557 163.302 192.003 164.008C192.523 164.659 192.971 165.364 193.341 166.11Z" fill="#455A64"/>
<path d="M168.233 126.42C168.164 126.444 167.992 126.165 167.841 125.788C167.689 125.411 167.625 125.092 167.689 125.063C167.752 125.033 167.929 125.317 168.076 125.695C168.223 126.072 168.296 126.42 168.233 126.42Z" fill="#FAFAFA"/>
<path d="M177.719 127.782C177.646 127.782 177.592 127.542 177.592 127.243C177.592 126.944 177.646 126.699 177.719 126.699C177.793 126.699 177.847 126.944 177.847 127.243C177.847 127.542 177.788 127.782 177.719 127.782Z" fill="#FAFAFA"/>
<path d="M173.819 132.937C173.751 132.937 173.672 132.643 173.648 132.266C173.623 131.888 173.648 131.585 173.726 131.58C173.805 131.575 173.878 131.874 173.903 132.251C173.927 132.628 173.888 132.932 173.819 132.937Z" fill="#FAFAFA"/>
<path d="M166.694 136.71C166.635 136.754 166.434 136.573 166.17 136.386C165.905 136.2 165.68 136.058 165.68 135.99C165.68 135.921 166.003 135.96 166.302 136.176C166.601 136.391 166.753 136.71 166.694 136.71Z" fill="#FAFAFA"/>
<path d="M179.253 141.517C179.194 141.478 179.253 141.267 179.419 141.027C179.586 140.787 179.738 140.65 179.797 140.689C179.855 140.728 179.797 140.944 179.63 141.179C179.463 141.414 179.311 141.556 179.253 141.517Z" fill="#FAFAFA"/>
<path d="M171.5 142.874C171.432 142.874 171.373 142.467 171.373 141.972C171.373 141.478 171.432 141.066 171.5 141.066C171.569 141.066 171.628 141.473 171.628 141.972C171.628 142.472 171.554 142.874 171.5 142.874Z" fill="#FAFAFA"/>
<path d="M168.963 148.372C168.924 148.426 168.669 148.313 168.395 148.112C168.12 147.911 167.905 147.706 167.968 147.647C168.032 147.588 168.267 147.706 168.542 147.906C168.816 148.107 169.007 148.313 168.963 148.372Z" fill="#FAFAFA"/>
<path d="M176.813 150.283C176.842 150.347 176.686 150.479 176.46 150.582C176.235 150.685 176.029 150.709 176 150.646C175.97 150.582 176.132 150.45 176.357 150.347C176.583 150.244 176.788 150.219 176.813 150.283Z" fill="#FAFAFA"/>
<path d="M171.5 159.25C171.441 159.279 171.187 158.902 170.937 158.402C170.687 157.903 170.535 157.471 170.599 157.422C170.662 157.373 170.917 157.77 171.162 158.27C171.407 158.77 171.544 159.196 171.5 159.25Z" fill="#FAFAFA"/>
<path d="M180.16 158.417C180.097 158.383 180.209 158.054 180.405 157.677C180.601 157.3 180.822 157.025 180.895 157.06C180.969 157.094 180.846 157.422 180.646 157.799C180.445 158.177 180.219 158.451 180.16 158.417Z" fill="#FAFAFA"/>
<path d="M176.362 166.007C176.289 166.007 176.299 165.61 176.22 165.149C176.142 164.689 176.024 164.321 176.093 164.287C176.162 164.253 176.397 164.601 176.475 165.11C176.554 165.62 176.431 166.022 176.362 166.007Z" fill="#FAFAFA"/>
<path d="M172.295 170.343C172.246 170.392 172.001 170.206 171.751 169.932C171.501 169.657 171.339 169.398 171.393 169.349C171.447 169.3 171.687 169.486 171.937 169.76C172.187 170.035 172.349 170.294 172.295 170.343Z" fill="#FAFAFA"/>
<path d="M182.162 171.99C182.113 171.941 182.295 171.676 182.569 171.397C182.843 171.118 183.098 170.937 183.152 170.986C183.206 171.035 183.02 171.304 182.75 171.578C182.481 171.853 182.216 172.039 182.162 171.99Z" fill="#FAFAFA"/>
<path d="M176.489 178.482C176.42 178.482 176.42 178.095 176.489 177.645C176.558 177.194 176.665 176.841 176.739 176.851C176.812 176.861 176.807 177.233 176.739 177.684C176.67 178.135 176.558 178.492 176.489 178.482Z" fill="#FAFAFA"/>
<path d="M172.672 181.633C172.608 181.667 172.393 181.413 172.182 181.065C171.971 180.717 171.863 180.408 171.922 180.374C171.981 180.339 172.197 180.589 172.412 180.937C172.628 181.285 172.731 181.594 172.672 181.633Z" fill="#FAFAFA"/>
<path d="M181.869 185.607C181.913 185.666 181.663 185.916 181.31 186.166C180.957 186.416 180.649 186.572 180.605 186.514C180.56 186.455 180.815 186.205 181.163 185.955C181.511 185.705 181.83 185.553 181.869 185.607Z" fill="#FAFAFA"/>
<path d="M174.206 190.767C174.138 190.742 174.206 190.35 174.27 189.86C174.334 189.37 174.294 188.968 174.368 188.959C174.441 188.949 174.569 189.36 174.52 189.885C174.471 190.409 174.27 190.796 174.206 190.767Z" fill="#FAFAFA"/>
<path d="M177.268 198.176C177.209 198.22 177.003 198.053 176.802 197.803C176.602 197.553 176.489 197.313 176.543 197.269C176.597 197.225 176.802 197.392 177.003 197.641C177.204 197.891 177.322 198.131 177.268 198.176Z" fill="#FAFAFA"/>
<path d="M173.923 203.144C173.864 203.183 173.594 202.894 173.32 202.492C173.045 202.091 172.874 201.738 172.928 201.699C172.982 201.659 173.256 201.949 173.531 202.35C173.805 202.752 173.981 203.105 173.923 203.144Z" fill="#FAFAFA"/>
<path d="M183.138 196.906C183.074 196.882 183.079 196.701 183.138 196.505C183.197 196.309 183.329 196.162 183.397 196.186C183.466 196.211 183.456 196.392 183.397 196.593C183.339 196.794 183.206 196.936 183.138 196.906Z" fill="#FAFAFA"/>
<path d="M179.072 208.74C179.009 208.706 179.131 208.358 179.229 207.922C179.327 207.485 179.361 207.118 179.435 207.113C179.508 207.108 179.582 207.505 179.479 207.975C179.376 208.446 179.131 208.779 179.072 208.74Z" fill="#FAFAFA"/>
<path d="M181.717 133.015C181.653 133.045 181.496 132.849 181.369 132.574C181.242 132.3 181.188 132.055 181.251 132.026C181.315 131.996 181.472 132.192 181.599 132.467C181.727 132.741 181.79 132.986 181.717 133.015Z" fill="#FAFAFA"/>
<path d="M174.932 117.757C174.971 117.815 174.628 118.09 174.261 118.482C173.893 118.874 173.643 119.236 173.58 119.202C173.516 119.168 173.683 118.712 174.07 118.31C174.457 117.909 174.883 117.693 174.932 117.757Z" fill="#FAFAFA"/>
<path d="M180.973 117.6C180.899 117.6 180.787 117.321 180.615 116.987C180.444 116.654 180.287 116.38 180.341 116.331C180.395 116.282 180.659 116.497 180.831 116.87C181.002 117.242 181.037 117.561 180.973 117.6Z" fill="#FAFAFA"/>
<path d="M162.109 122.554C162.045 122.524 162.109 122.201 162.26 121.829C162.412 121.456 162.579 121.167 162.648 121.196C162.716 121.226 162.648 121.544 162.496 121.922C162.344 122.299 162.192 122.578 162.109 122.554Z" fill="#FAFAFA"/>
<path d="M162.72 129.953C162.671 130.007 162.391 129.85 162.092 129.6C161.794 129.35 161.602 129.11 161.632 129.051C161.661 128.992 161.96 129.154 162.259 129.404C162.558 129.654 162.764 129.899 162.72 129.953Z" fill="#FAFAFA"/>
<path d="M175.098 111.882C175.034 111.882 174.897 111.725 174.799 111.475C174.701 111.225 174.671 110.985 174.735 110.985C174.799 110.985 174.936 111.142 175.034 111.392C175.132 111.641 175.161 111.857 175.098 111.882Z" fill="#FAFAFA"/>
<path d="M186.95 115.498C186.881 115.498 186.886 115.189 186.95 114.841C187.014 114.493 187.141 114.219 187.21 114.234C187.278 114.248 187.273 114.547 187.21 114.895C187.146 115.243 187.019 115.513 186.95 115.498Z" fill="#FAFAFA"/>
<path d="M189.734 121.099C189.67 121.069 189.758 120.707 189.934 120.28C190.111 119.854 190.302 119.535 190.366 119.56C190.429 119.584 190.366 119.952 190.17 120.378C189.974 120.805 189.802 121.123 189.734 121.099Z" fill="#FAFAFA"/>
<path d="M187.75 125.616C187.686 125.646 187.451 125.308 187.225 124.862C187 124.416 186.873 124.019 186.936 123.99C187 123.96 187.23 124.298 187.456 124.744C187.681 125.19 187.813 125.582 187.75 125.616Z" fill="#FAFAFA"/>
<path d="M191.994 130.134C191.93 130.109 191.994 129.825 192.102 129.502C192.21 129.178 192.381 128.933 192.45 128.958C192.518 128.982 192.45 129.267 192.342 129.59C192.234 129.913 192.082 130.158 191.994 130.134Z" fill="#FAFAFA"/>
<path d="M188.199 134.559C188.141 134.598 187.989 134.466 187.866 134.27C187.744 134.074 187.685 133.878 187.749 133.838C187.812 133.799 187.954 133.932 188.082 134.132C188.209 134.333 188.258 134.524 188.199 134.559Z" fill="#FAFAFA"/>
<path d="M189.009 143.692C188.96 143.736 188.652 143.496 188.328 143.144C188.005 142.791 187.784 142.472 187.838 142.423C187.892 142.374 188.196 142.619 188.519 142.972C188.843 143.325 189.063 143.643 189.009 143.692Z" fill="#FAFAFA"/>
<path d="M193.983 138.445C193.929 138.489 193.659 138.244 193.385 137.891C193.111 137.538 192.934 137.224 192.988 137.18C193.042 137.136 193.312 137.386 193.586 137.734C193.86 138.082 194.042 138.405 193.983 138.445Z" fill="#FAFAFA"/>
<path d="M196.711 145.682C196.647 145.652 196.76 145.285 196.961 144.864C197.162 144.442 197.373 144.119 197.451 144.148C197.529 144.177 197.407 144.55 197.206 144.971C197.005 145.393 196.775 145.716 196.711 145.682Z" fill="#FAFAFA"/>
<path d="M190.91 151.64C190.847 151.675 190.621 151.405 190.308 151.116C189.994 150.827 189.705 150.626 189.734 150.553C189.764 150.479 190.136 150.611 190.479 150.93C190.822 151.248 190.969 151.606 190.91 151.64Z" fill="#FAFAFA"/>
<path d="M191.272 157.78C191.272 157.849 191.027 157.907 190.728 157.907C190.43 157.907 190.189 157.849 190.189 157.78C190.189 157.711 190.43 157.653 190.728 157.653C191.027 157.653 191.272 157.711 191.272 157.78Z" fill="#FAFAFA"/>
<path d="M197.236 156.065C197.172 156.031 197.3 155.722 197.393 155.34C197.486 154.958 197.525 154.624 197.599 154.619C197.672 154.615 197.75 154.972 197.643 155.399C197.535 155.825 197.29 156.104 197.236 156.065Z" fill="#FAFAFA"/>
<path d="M203.16 158.128C203.096 158.152 202.915 157.804 202.758 157.359C202.601 156.913 202.528 156.53 202.591 156.511C202.655 156.491 202.841 156.829 202.998 157.275C203.155 157.721 203.228 158.103 203.16 158.128Z" fill="#FAFAFA"/>
<path d="M202.214 166.556C202.155 166.522 202.307 166.11 202.552 165.635C202.797 165.159 203.042 164.802 203.115 164.836C203.189 164.87 203.027 165.282 202.777 165.752C202.527 166.223 202.278 166.6 202.214 166.556Z" fill="#FAFAFA"/>
<path d="M196.809 171.5C196.745 171.524 196.544 171.186 196.358 170.74C196.172 170.294 196.079 169.912 196.148 169.883C196.216 169.853 196.412 170.196 196.593 170.642C196.775 171.088 196.873 171.5 196.809 171.5Z" fill="#FAFAFA"/>
<path d="M190.823 173.416C190.823 173.484 190.617 173.543 190.367 173.543C190.117 173.543 189.916 173.484 189.916 173.416C189.916 173.347 190.122 173.288 190.367 173.288C190.612 173.288 190.823 173.347 190.823 173.416Z" fill="#FAFAFA"/>
<path d="M194.251 181.3C194.188 181.3 194.051 181.03 193.948 180.658C193.845 180.286 193.825 179.962 193.894 179.948C193.962 179.933 194.095 180.217 194.198 180.589C194.301 180.962 194.32 181.261 194.251 181.3Z" fill="#FAFAFA"/>
<path d="M189.915 178.654C189.856 178.62 189.915 178.389 190.077 178.14C190.238 177.89 190.4 177.718 190.459 177.752C190.518 177.787 190.459 178.022 190.297 178.272C190.135 178.522 189.979 178.693 189.915 178.654Z" fill="#FAFAFA"/>
<path d="M189.827 187.332C189.758 187.332 189.66 187.003 189.611 186.577C189.562 186.151 189.577 185.803 189.645 185.793C189.714 185.783 189.812 186.121 189.861 186.548C189.91 186.974 189.895 187.322 189.827 187.332Z" fill="#FAFAFA"/>
</svg>
